Bevan.ufo
<glyph name="exclam" format="1">
  <advance width="577"/>
  <unicode hex="0021"/>
  <outline>
    <contour>
      <point x="284" y="18" type="curve" smooth="yes"/>
      <point x="146.516" y="18"/>
      <point x="57" y="91.0576"/>
      <point x="57" y="212" type="curve" smooth="yes"/>
      <point x="57" y="335.05"/>
      <point x="147.672" y="411"/>
      <point x="283" y="411" type="curve" smooth="yes"/>
      <point x="295.039" y="411" type="line"/>
      <point x="296.641" y="411.801" type="line"/>
      <point x="429.222" y="406.952"/>
      <point x="520" y="331.024"/>
      <point x="520" y="212" type="curve" smooth="yes"/>
      <point x="520" y="90.3232"/>
      <point x="427.075" y="18"/>
    </contour>
    <contour>
      <point x="450.218" y="608.783" type="line"/>
      <point x="120.865" y="607.219" type="line"/>
      <point x="44" y="1333.69" type="line"/>
      <point x="44" y="1579" type="line"/>
      <point x="529" y="1579" type="line"/>
      <point x="529" y="1333.76" type="line"/>
    </contour>
  </outline>
</glyph>
<glyph name="numbersign" format="1">
  <advance width="1150"/>
  <unicode hex="0023"/>
  <outline>
    <contour>
      <point x="347.54901123" y="1195" type="line"/>
      <point x="418.812988281" y="1572" type="line"/>
      <point x="604.611999512" y="1572" type="line"/>
      <point x="530.802001953" y="1195" type="line"/>
      <point x="753.924987793" y="1195" type="line"/>
      <point x="825.189025879" y="1572" type="line"/>
      <point x="1040.02001953" y="1572" type="line"/>
      <point x="953.023986816" y="1195" type="line"/>
      <point x="1094.27001953" y="1195" type="line"/>
      <point x="1052.76000977" y="998" type="line"/>
      <point x="908.50402832" y="998" type="line"/>
      <point x="809.151000977" y="534" type="line"/>
      <point x="947.268981934" y="534" type="line"/>
      <point x="905.760986328" y="337" type="line"/>
      <point x="770.385986328" y="337" type="line"/>
      <point x="715.241027832" y="51" type="line"/>
      <point x="538.070983887" y="51" type="line"/>
      <point x="591.518981934" y="337" type="line"/>
      <point x="364.010986328" y="337" type="line"/>
      <point x="308.865997314" y="51" type="line"/>
      <point x="105.592010498" y="51" type="line"/>
      <point x="168.592010498" y="337" type="line"/>
      <point x="32.0000152588" y="337" type="line"/>
      <point x="73.5088043213" y="534" type="line"/>
      <point x="213.094009399" y="534" type="line"/>
      <point x="309.89302063" y="998" type="line"/>
      <point x="179.000015259" y="998" type="line"/>
      <point x="220.509017944" y="1195" type="line"/>
    </contour>
    <contour>
      <point x="402.775009155" y="534" type="line"/>
      <point x="629.274002075" y="534" type="line"/>
      <point x="716.268997192" y="998" type="line"/>
      <point x="493.032028198" y="998" type="line"/>
    </contour>
  </outline>
</glyph>
<glyph name="dollar" format="1">
  <advance width="1090"/>
  <unicode hex="0024"/>
  <outline>
    <contour>
      <point x="507.239" y="-167" type="line"/>
      <point x="615.049" y="-167" type="line"/>
      <point x="615.049" y="31.7715" type="line"/>
      <point x="655.722" y="34" type="line" smooth="yes"/>
      <point x="849.999" y="45.5361"/>
      <point x="1070.7" y="255.111"/>
      <point x="1059.1" y="517.489" type="curve" smooth="yes"/>
      <point x="1047.77" y="773.555"/>
      <point x="850.3" y="872.384"/>
      <point x="646.161" y="940.896" type="curve" smooth="yes"/>
      <point x="615.049" y="951.337" type="line"/>
      <point x="615.049" y="1218" type="line" smooth="yes"/>
      <point x="615.049" y="1314.96"/>
      <point x="660.223" y="1326"/>
      <point x="666.865" y="1326" type="curve" smooth="yes"/>
      <point x="688.259" y="1326"/>
      <point x="700.531" y="1306.55"/>
      <point x="714.149" y="1286.84" type="curve" smooth="yes"/>
      <point x="756.484" y="1225.57"/>
      <point x="791.62" y="1156.5"/>
      <point x="809.015" y="1078.05" type="curve" smooth="yes"/>
      <point x="809.434" y="1078.04"/>
      <point x="811.312" y="1078"/>
      <point x="812.284" y="1078" type="curve" smooth="yes"/>
      <point x="823.5" y="1078" type="line" smooth="yes"/>
      <point x="826.67" y="1078"/>
      <point x="848.257" y="1080"/>
      <point x="861" y="1080" type="curve" smooth="yes"/>
      <point x="867.157" y="1080" type="line"/>
      <point x="944" y="1082.54" type="line"/>
      <point x="944" y="1476" type="line"/>
      <point x="834.125" y="1476" type="line"/>
      <point x="786.399" y="1418.3" type="line"/>
      <point x="759.482" y="1433" type="line" smooth="yes"/>
      <point x="708.933" y="1461.47"/>
      <point x="669.602" y="1481.6"/>
      <point x="642.894" y="1493" type="curve" smooth="yes"/>
      <point x="614.214" y="1504.88" type="line"/>
      <point x="614.214" y="1703" type="line"/>
      <point x="509.746" y="1703" type="line"/>
      <point x="509.746" y="1514.55" type="line"/>
      <point x="469.373" y="1512" type="line"/>
      <point x="236.037" y="1496.08"/>
      <point x="49" y="1341.71"/>
      <point x="49" y="1053" type="curve" smooth="yes"/>
      <point x="49" y="776.85"/>
      <point x="256.122" y="705.99"/>
      <point x="469.981" y="636.203" type="curve" smooth="yes"/>
      <point x="501.389" y="625.953" type="line"/>
      <point x="501.389" y="197" type="line"/>
      <point x="458.766" y="197" type="line" smooth="yes"/>
      <point x="351.328" y="197"/>
      <point x="241.651" y="359.886"/>
      <point x="205.786" y="494.828" type="curve"/>
      <point x="58" y="494.212" type="line"/>
      <point x="58" y="66" type="line"/>
      <point x="175.656" y="66" type="line"/>
      <point x="229.159" y="146.292" type="line"/>
      <point x="267.814" y="128" type="line"/>
      <point x="331.053" y="93.0098"/>
      <point x="397.893" y="65.8789"/>
      <point x="472.975" y="47" type="curve" smooth="yes"/>
      <point x="507.239" y="38.8008" type="line"/>
    </contour>
    <contour>
      <point x="607.528" y="206" type="line"/>
      <point x="607.528" y="585.902" type="line"/>
      <point x="655.532" y="578.592" type="line" smooth="yes"/>
      <point x="729.28" y="567.361"/>
      <point x="785.402" y="490.336"/>
      <point x="777.827" y="395.165" type="curve" smooth="yes"/>
      <point x="774.153" y="349" type="line"/>
      <point x="767.388" y="349" type="line"/>
      <point x="746.54" y="267.935"/>
      <point x="700.893" y="206"/>
      <point x="650.15" y="206" type="curve" smooth="yes"/>
    </contour>
    <contour>
      <point x="505.567" y="995.827" type="line"/>
      <point x="453.958" y="1009.15" type="line" smooth="yes"/>
      <point x="394.468" y="1024.5"/>
      <point x="324.212" y="1080.6"/>
      <point x="324.212" y="1180" type="curve" smooth="yes"/>
      <point x="324.212" y="1181" type="line" smooth="yes"/>
      <point x="324.212" y="1308.14"/>
      <point x="404.03" y="1376.41"/>
      <point x="464.88" y="1371.89" type="curve"/>
      <point x="505.567" y="1369.68" type="line"/>
    </contour>
  </outline>
</glyph>
<glyph name="percent" format="1">
  <advance width="2489"/>
  <unicode hex="0025"/>
  <outline>
    <contour>
      <point x="463.168" y="838" type="curve" smooth="yes"/>
      <point x="352.995" y="838"/>
      <point x="326.42" y="964.73"/>
      <point x="326.42" y="1097" type="curve" smooth="yes"/>
      <point x="326.42" y="1206.31"/>
      <point x="326.671" y="1357.88"/>
      <point x="469.97" y="1363.18" type="curve"/>
      <point x="583.893" y="1339.18"/>
      <point x="606.564" y="1237.45"/>
      <point x="606.564" y="1137" type="curve" smooth="yes"/>
      <point x="606.564" y="1094.02" type="line"/>
      <point x="605.614" y="1068.02" type="line"/>
      <point x="605.614" y="1048" type="line" smooth="yes"/>
      <point x="605.614" y="970.4"/>
      <point x="585.429" y="838"/>
    </contour>
    <contour>
      <point x="2005.39" y="281" type="curve" smooth="yes"/>
      <point x="1895.21" y="281"/>
      <point x="1868.64" y="407.73"/>
      <point x="1868.64" y="540" type="curve" smooth="yes"/>
      <point x="1868.64" y="651.836"/>
      <point x="1870.13" y="798.268"/>
      <point x="2011.74" y="806.271" type="curve"/>
      <point x="2125.96" y="782.213"/>
      <point x="2148.78" y="680.809"/>
      <point x="2148.78" y="580" type="curve" smooth="yes"/>
      <point x="2148.78" y="562" type="line" smooth="yes"/>
      <point x="2148.78" y="554.039"/>
      <point x="2148.5" y="546.955"/>
      <point x="2147.83" y="537.092" type="curve" smooth="yes"/>
      <point x="2147.83" y="491" type="line" smooth="yes"/>
      <point x="2147.83" y="413.4"/>
      <point x="2127.65" y="281"/>
    </contour>
    <contour>
      <point x="487.859" y="590" type="curve" smooth="yes"/>
      <point x="753.692" y="590"/>
      <point x="892.406" y="810.323"/>
      <point x="892.406" y="1111" type="curve" smooth="yes"/>
      <point x="892.406" y="1413.55"/>
      <point x="744.682" y="1601"/>
      <point x="465.067" y="1601" type="curve" smooth="yes"/>
      <point x="196.703" y="1601"/>
      <point x="32.3613" y="1375.64"/>
      <point x="32" y="1077.94" type="curve" smooth="yes"/>
      <point x="32" y="773.11"/>
      <point x="199.856" y="590"/>
    </contour>
    <contour>
      <point x="893.193" y="51" type="line"/>
      <point x="1271.91" y="51" type="line"/>
      <point x="1576.27" y="1572" type="line"/>
      <point x="1196.67" y="1572" type="line"/>
    </contour>
    <contour>
      <point x="2030.08" y="33" type="curve" smooth="yes"/>
      <point x="2300.93" y="33"/>
      <point x="2447" y="253.323"/>
      <point x="2447" y="554" type="curve" smooth="yes"/>
      <point x="2447" y="856.552"/>
      <point x="2291.44" y="1044"/>
      <point x="2007.29" y="1044" type="curve" smooth="yes"/>
      <point x="1743" y="1044"/>
      <point x="1586.94" y="818.644"/>
      <point x="1586.59" y="520.938" type="curve" smooth="yes"/>
      <point x="1586.59" y="216.11"/>
      <point x="1746" y="33"/>
    </contour>
  </outline>
</glyph>
<glyph name="ampersand" format="1">
  <advance width="1519"/>
  <unicode hex="0026"/>
  <outline>
    <contour>
      <point x="1164.0300293" y="797.0" type="curve" smooth="yes"/>
      <point x="1164.0300293" y="723.994995117"/>
      <point x="1091.18994141" y="669.940979004"/>
      <point x="1076.79003906" y="655.200012207" type="curve" smooth="yes"/>
      <point x="1020.08001709" y="599.294006348" type="line"/>
      <point x="792.695007324" y="845.866027832" type="line"/>
      <point x="829.724975586" y="882.198974609" type="line" smooth="yes"/>
      <point x="915.190979004" y="966.056030273"/>
      <point x="965.677001953" y="1017.61999512"/>
      <point x="965.677001953" y="1168.0" type="curve" smooth="yes"/>
      <point x="965.677001953" y="1349.93005371"/>
      <point x="814.156005859" y="1462.0"/>
      <point x="628.481994629" y="1462.0" type="curve" smooth="yes"/>
      <point x="402.588989258" y="1462.0"/>
      <point x="235.0" y="1338.67004395"/>
      <point x="235.0" y="1107.0" type="curve" smooth="yes"/>
      <point x="235.0" y="1003.01000977"/>
      <point x="270.994995117" y="915.263000488"/>
      <point x="335.276000977" y="838.247009277" type="curve" smooth="yes"/>
      <point x="378.272003174" y="785.625976562" type="line"/>
      <point x="319.57800293" y="757.24798584" type="line" smooth="yes"/>
      <point x="150.518005371" y="681.898010254"/>
      <point x="39.0" y="583.987976074"/>
      <point x="39.0" y="375.0" type="curve" smooth="yes"/>
      <point x="39.0" y="154.457992554"/>
      <point x="204.645004272" y="21.0"/>
      <point x="425.62399292" y="21.0" type="curve" smooth="yes"/>
      <point x="579.044006348" y="21.0"/>
      <point x="704.057006836" y="87.4297027588"/>
      <point x="807.112976074" y="214.158004761" type="curve" smooth="yes"/>
      <point x="840.822021484" y="255.61000061" type="line"/>
      <point x="875.005004883" y="214.639007568" type="line" smooth="yes"/>
      <point x="937.244018555" y="140.039993286"/>
      <point x="983.846008301" y="85.3681945801"/>
      <point x="1014.44000244" y="51.0" type="curve"/>
      <point x="1462.0" y="51.0" type="line"/>
      <point x="1462.0" y="317.0" type="line"/>
      <point x="1261.35998535" y="317.0" type="line"/>
      <point x="1246.31994629" y="332.562011719" type="line" smooth="yes"/>
      <point x="1174.20996094" y="412.290008545"/>
      <point x="1131.83996582" y="460.420013428"/>
      <point x="1117.86999512" y="475.575012207" type="curve"/>
      <point x="1067.59997559" y="503.457000732" type="line"/>
      <point x="1269.31994629" y="729.432006836" type="line" smooth="yes"/>
      <point x="1336.08996582" y="804.231018066"/>
      <point x="1373.88000488" y="839.125"/>
      <point x="1465.0" y="873.92401123" type="curve"/>
      <point x="1465.0" y="1076.0" type="line"/>
      <point x="1097.31005859" y="1076.0" type="line"/>
      <point x="1097.31005859" y="882.911987305" type="line"/>
      <point x="1133.40002441" y="881.09197998"/>
      <point x="1164.0300293" y="845.101013184"/>
    </contour>
    <contour>
      <point x="490.638000488" y="651.038024902" type="line"/>
      <point x="740.611999512" y="364.402008057" type="line"/>
      <point x="699.794006348" y="329.57598877" type="line" smooth="yes"/>
      <point x="661.393981934" y="296.812988281"/>
      <point x="616.473022461" y="279.0"/>
      <point x="568.976989746" y="279.0" type="curve" smooth="yes"/>
      <point x="465.197998047" y="279.0"/>
      <point x="384.151000977" y="367.270996094"/>
      <point x="384.151000977" y="482.0" type="curve" smooth="yes"/>
      <point x="384.151000977" y="484.0" type="line" smooth="yes"/>
      <point x="384.151000977" y="557.820007324"/>
      <point x="429.502990723" y="602.604003906"/>
      <point x="458.403015137" y="625.5" type="curve" smooth="yes"/>
    </contour>
    <contour>
      <point x="695.481994629" y="956.471984863" type="line"/>
      <point x="668.908996582" y="980.418029785" type="line" smooth="yes"/>
      <point x="638.098022461" y="1008.17999268"/>
      <point x="556.354980469" y="1064.9699707"/>
      <point x="556.354980469" y="1169.75" type="curve" smooth="yes"/>
      <point x="556.354980469" y="1246.65002441"/>
      <point x="610.463989258" y="1320.0"/>
      <point x="686.184020996" y="1320.0" type="curve" smooth="yes"/>
      <point x="778.676025391" y="1320.0"/>
      <point x="826.831970215" y="1233.32995605"/>
      <point x="826.831970215" y="1148.0" type="curve" smooth="yes"/>
      <point x="826.831970215" y="1050.81005859"/>
      <point x="764.026000977" y="1008.22998047"/>
      <point x="723.781982422" y="977.843994141" type="curve" smooth="yes"/>
    </contour>
  </outline>
</glyph>
<glyph name="quotesingle" format="1">
  <advance width="459"/>
  <unicode hex="0027"/>
  <outline>
    <contour>
      <point x="41" y="1573" type="line"/>
      <point x="404.57699585" y="1573" type="line"/>
      <point x="319.600006104" y="996" type="line"/>
      <point x="108.981994629" y="996" type="line"/>
    </contour>
  </outline>
</glyph>
<glyph name="parenleft" format="1">
  <advance width="711"/>
  <unicode hex="0028"/>
  <outline>
    <contour>
      <point x="670" y="32.0293" type="curve"/>
      <point x="670" y="262.569" type="line"/>
      <point x="405.365" y="291.73"/>
      <point x="359.345" y="556.104"/>
      <point x="359.345" y="817" type="curve" smooth="yes"/>
      <point x="359.345" y="1095.22"/>
      <point x="402.711" y="1335.96"/>
      <point x="675" y="1366.91" type="curve"/>
      <point x="675" y="1601.28" type="line"/>
      <point x="257.263" y="1586.29"/>
      <point x="19" y="1350.68"/>
      <point x="19" y="816" type="curve" smooth="yes"/>
      <point x="19" y="624.457"/>
      <point x="64.7588" y="479.694"/>
      <point x="141.808" y="360.723" type="curve" smooth="yes"/>
      <point x="264.791" y="170.945"/>
      <point x="386.742" y="44.7637"/>
    </contour>
  </outline>
</glyph>
<glyph name="parenright" format="1">
  <advance width="711"/>
  <unicode hex="0029"/>
  <outline>
    <contour>
      <point x="303.015" y="32.1309" type="line"/>
      <point x="463.494" y="41.1367"/>
      <point x="592.974" y="106.617"/>
      <point x="685.939" y="188.061" type="curve" smooth="yes"/>
      <point x="841.833" y="324.634"/>
      <point x="959.039" y="516.961"/>
      <point x="959.039" y="815" type="curve" smooth="yes"/>
      <point x="959.039" y="1349.19"/>
      <point x="722.01" y="1584.68"/>
      <point x="300.589" y="1600.22" type="curve"/>
      <point x="300.589" y="1369.17" type="line"/>
      <point x="531.781" y="1339.98"/>
      <point x="589.336" y="1092.85"/>
      <point x="589.336" y="817" type="curve" smooth="yes"/>
      <point x="589.336" y="556.944"/>
      <point x="530.003" y="291.854"/>
      <point x="303.015" y="262.568" type="curve"/>
    </contour>
    <contour>
      <point x="36" y="1601" type="line"/>
      <point x="202.261" y="1601" type="line"/>
      <point x="300.589" y="1702.71" type="line"/>
      <point x="300.589" y="1735.52" type="line"/>
    </contour>
  </outline>
</glyph>
<glyph name="comma" format="1">
  <advance width="494"/>
  <unicode hex="002C"/>
  <outline>
    <contour>
      <point x="211.125" y="-395.817993164" type="line"/>
      <point x="516.66998291" y="-380.993988037"/>
      <point x="644.125" y="-243.156005859"/>
      <point x="644.125" y="88.0" type="curve" smooth="yes"/>
      <point x="644.125" y="155.085006714"/>
      <point x="638.687988281" y="228.43800354"/>
      <point x="627.028015137" y="314.0" type="curve"/>
      <point x="212.125" y="314.0" type="line"/>
      <point x="212.125" y="50.0" type="line"/>
      <point x="401.125" y="50.0" type="line"/>
      <point x="401.125" y="-38.5" type="line" smooth="yes"/>
      <point x="401.125" y="-175.119995117"/>
      <point x="339.350006104" y="-258.839996338"/>
      <point x="211.125" y="-272.506988525" type="curve"/>
    </contour>
    <contour>
      <point x="211.125" y="-169.380996704" type="line"/>
      <point x="108.484008789" y="-275.0" type="line"/>
      <point x="36.0" y="-275.0" type="line"/>
      <point x="211.125" y="-99.875" type="line"/>
    </contour>
  </outline>
</glyph>
<glyph name="period" format="1">
  <advance width="515"/>
  <unicode hex="002E"/>
  <outline>
    <contour>
      <point x="253.0" y="417.0" type="curve" smooth="yes"/>
      <point x="115.544006348" y="417"/>
      <point x="26.0" y="343.924987793"/>
      <point x="26.0" y="223.0" type="curve" smooth="yes"/>
      <point x="26.0" y="103.617996216"/>
      <point x="112.074005127" y="28.1269989014"/>
      <point x="240.378997803" y="23.2089996338" type="curve"/>
      <point x="241.960998535" y="24.0" type="line"/>
      <point x="254.0" y="24.0" type="line" smooth="yes"/>
      <point x="393.259002686" y="24.0"/>
      <point x="489.0" y="100.347991943"/>
      <point x="489.0" y="223.0" type="curve" smooth="yes"/>
      <point x="489.0" y="344.704986572"/>
      <point x="396.118011475" y="417.0"/>
    </contour>
  </outline>
</glyph>
<glyph name="three" format="1">
  <advance width="1081"/>
  <unicode hex="0033"/>
  <outline>
    <contour>
      <point x="700" y="890" type="curve" smooth="yes"/>
      <point x="622" y="811" type="line"/>
      <point x="722" y="800" type="line" smooth="yes"/>
      <point x="866" y="786"/>
      <point x="1015" y="637"/>
      <point x="1015" y="473" type="curve" smooth="yes"/>
      <point x="1015" y="171"/>
      <point x="768" y="33"/>
      <point x="484" y="33" type="curve" smooth="yes"/>
      <point x="328" y="33"/>
      <point x="198" y="46"/>
      <point x="96" y="106" type="curve"/>
      <point x="96" y="325" type="line"/>
      <point x="200" y="260"/>
      <point x="306" y="227"/>
      <point x="399" y="227" type="curve" smooth="yes"/>
      <point x="490" y="227"/>
      <point x="621" y="267"/>
      <point x="621" y="425" type="curve" smooth="yes"/>
      <point x="621" y="598"/>
      <point x="482" y="643"/>
      <point x="379" y="643" type="curve" smooth="yes"/>
      <point x="351" y="643"/>
      <point x="321" y="634"/>
      <point x="293" y="628" type="curve"/>
      <point x="293" y="716" type="line"/>
      <point x="578" y="1007" type="line"/>
      <point x="578" y="1092" type="line"/>
      <point x="358" y="1092" type="line" smooth="yes"/>
      <point x="251" y="1092"/>
      <point x="209" y="1026"/>
      <point x="188" y="949" type="curve"/>
      <point x="84" y="950" type="line"/>
      <point x="84" y="1301" type="line"/>
      <point x="949" y="1301" type="line"/>
      <point x="949" y="1111" type="line"/>
      <point x="914" y="1081"/>
      <point x="825" y="1007"/>
    </contour>
  </outline>
</glyph>
<glyph name="four" format="1">
  <advance width="1114"/>
  <unicode hex="0034"/>
  <outline>
    <contour>
      <point x="960" y="51" type="line"/>
      <point x="433" y="51" type="line"/>
      <point x="433" y="237" type="line"/>
      <point x="539" y="237" type="line"/>
      <point x="539" y="471" type="line"/>
      <point x="53" y="470" type="line"/>
      <point x="53" y="669" type="line"/>
      <point x="531" y="1291" type="line"/>
      <point x="839" y="1290" type="line"/>
      <point x="839" y="624" type="line"/>
      <point x="1066" y="626" type="line"/>
      <point x="1066" y="471" type="line"/>
      <point x="838" y="471" type="line"/>
      <point x="838" y="237" type="line"/>
      <point x="960" y="237" type="line"/>
    </contour>
    <contour>
      <point x="239" y="628" type="line"/>
      <point x="539" y="626" type="line"/>
      <point x="539" y="1055" type="line"/>
    </contour>
  </outline>
</glyph>
<glyph name="five" format="1">
  <advance width="942"/>
  <unicode hex="0035"/>
  <outline>
    <contour>
      <point x="386" y="31" type="curve" smooth="yes"/>
      <point x="649" y="31"/>
      <point x="876" y="183"/>
      <point x="876" y="511" type="curve" smooth="yes"/>
      <point x="876" y="729"/>
      <point x="684" y="888"/>
      <point x="498" y="888" type="curve" smooth="yes"/>
      <point x="457" y="888"/>
      <point x="395" y="882"/>
      <point x="365" y="876" type="curve" smooth="yes"/>
      <point x="292" y="862" type="line"/>
      <point x="292" y="1112" type="line"/>
      <point x="801" y="1112" type="line"/>
      <point x="801" y="1307" type="line"/>
      <point x="89" y="1307" type="line"/>
      <point x="89" y="636" type="line"/>
      <point x="133" y="657"/>
      <point x="180" y="668"/>
      <point x="227" y="668" type="curve" smooth="yes"/>
      <point x="348" y="668"/>
      <point x="481" y="614"/>
      <point x="481" y="445" type="curve" smooth="yes"/>
      <point x="481" y="285"/>
      <point x="363" y="229"/>
      <point x="252" y="229" type="curve" smooth="yes"/>
      <point x="199" y="229"/>
      <point x="138" y="251"/>
      <point x="91" y="269" type="curve"/>
      <point x="91" y="97" type="line"/>
      <point x="151" y="60"/>
      <point x="301" y="31"/>
    </contour>
  </outline>
</glyph>
<glyph name="eight" format="1">
  <advance width="1129"/>
  <unicode hex="0038"/>
  <outline>
    <contour>
      <point x="565" y="33" type="curve" smooth="yes"/>
      <point x="817" y="33"/>
      <point x="1062" y="119"/>
      <point x="1062" y="375" type="curve" smooth="yes"/>
      <point x="1062" y="523"/>
      <point x="992" y="621"/>
      <point x="834" y="682" type="curve"/>
      <point x="727" y="730" type="line"/>
      <point x="834" y="778" type="line" smooth="yes"/>
      <point x="920" y="816"/>
      <point x="984" y="888"/>
      <point x="984" y="1010" type="curve" smooth="yes"/>
      <point x="984" y="1239"/>
      <point x="784" y="1326"/>
      <point x="565" y="1326" type="curve" smooth="yes"/>
      <point x="345" y="1326"/>
      <point x="143" y="1240"/>
      <point x="143" y="1008" type="curve" smooth="yes"/>
      <point x="143" y="886"/>
      <point x="205" y="809"/>
      <point x="293" y="776" type="curve"/>
      <point x="400" y="728" type="line"/>
      <point x="293" y="680" type="line"/>
      <point x="152" y="626"/>
      <point x="83" y="542"/>
      <point x="68" y="423" type="curve"/>
      <point x="68" y="375" type="line" smooth="yes"/>
      <point x="68" y="119"/>
      <point x="313" y="33"/>
    </contour>
    <contour>
      <point x="568" y="773" type="curve" smooth="yes"/>
      <point x="497" y="773"/>
      <point x="466" y="850"/>
      <point x="460" y="933" type="curve"/>
      <point x="454" y="933" type="line"/>
      <point x="454" y="984" type="line" smooth="yes"/>
      <point x="454" y="1055"/>
      <point x="466" y="1172"/>
      <point x="567" y="1172" type="curve" smooth="yes"/>
      <point x="666" y="1172"/>
      <point x="676" y="1050"/>
      <point x="676" y="984" type="curve" smooth="yes"/>
      <point x="676" y="879"/>
      <point x="654" y="773"/>
    </contour>
    <contour>
      <point x="563" y="187" type="curve" smooth="yes"/>
      <point x="476" y="187"/>
      <point x="454" y="297"/>
      <point x="454" y="404" type="curve" smooth="yes"/>
      <point x="454" y="515"/>
      <point x="476" y="627"/>
      <point x="565" y="627" type="curve" smooth="yes"/>
      <point x="653" y="627"/>
      <point x="672" y="513"/>
      <point x="672" y="404" type="curve" smooth="yes"/>
      <point x="672" y="297"/>
      <point x="650" y="187"/>
    </contour>
  </outline>
</glyph>
<glyph name="colon" format="1">
  <advance width="527"/>
  <unicode hex="003A"/>
  <outline>
    <contour>
      <point x="245.379" y="31.209" type="curve"/>
      <point x="246.961" y="32" type="line"/>
      <point x="259" y="32" type="line" smooth="yes"/>
      <point x="398.259" y="32"/>
      <point x="494" y="108.348"/>
      <point x="494" y="231" type="curve" smooth="yes"/>
      <point x="494" y="352.705"/>
      <point x="401.118" y="425"/>
      <point x="258" y="425" type="curve" smooth="yes"/>
      <point x="120.544" y="425"/>
      <point x="31" y="351.925"/>
      <point x="31" y="231" type="curve" smooth="yes"/>
      <point x="31" y="111.618"/>
      <point x="117.074" y="36.127"/>
    </contour>
    <contour>
      <point x="247.379" y="646.209" type="curve"/>
      <point x="248.961" y="647" type="line"/>
      <point x="261" y="647" type="line" smooth="yes"/>
      <point x="400.259" y="647"/>
      <point x="496" y="723.348"/>
      <point x="496" y="846" type="curve" smooth="yes"/>
      <point x="496" y="967.705"/>
      <point x="403.118" y="1040"/>
      <point x="260" y="1040" type="curve" smooth="yes"/>
      <point x="122.544" y="1040"/>
      <point x="33" y="966.925"/>
      <point x="33" y="846" type="curve" smooth="yes"/>
      <point x="33" y="726.618"/>
      <point x="119.074" y="651.127"/>
    </contour>
  </outline>
</glyph>
<glyph name="less" format="1">
  <advance width="664"/>
  <unicode hex="003C"/>
  <outline>
    <contour>
      <point x="15" y="922.117" type="line"/>
      <point x="15" y="599.883" type="line"/>
      <point x="628" y="49.7314" type="line"/>
      <point x="628" y="423.089" type="line"/>
      <point x="271.909" y="761" type="line"/>
      <point x="628" y="1098.91" type="line"/>
      <point x="628" y="1472.27" type="line"/>
    </contour>
  </outline>
</glyph>
<glyph name="equal" format="1">
  <advance width="617"/>
  <unicode hex="003D"/>
  <outline>
    <contour>
      <point x="581" y="341" type="line"/>
      <point x="36" y="341" type="line"/>
      <point x="36" y="220" type="line"/>
      <point x="581" y="220" type="line"/>
    </contour>
    <contour>
      <point x="581" y="710" type="line"/>
      <point x="36" y="710" type="line"/>
      <point x="36" y="589" type="line"/>
      <point x="581" y="589" type="line"/>
    </contour>
  </outline>
</glyph>
<glyph name="greater" format="1">
  <advance width="664"/>
  <unicode hex="003E"/>
  <outline>
    <contour>
      <point x="649" y="599.882995605" type="line"/>
      <point x="36" y="49.7313842773" type="line"/>
      <point x="36" y="423.088989258" type="line"/>
      <point x="392.091003418" y="761.0" type="line"/>
      <point x="36.0" y="1098.91003418" type="line"/>
      <point x="36.0" y="1472.27001953" type="line"/>
      <point x="649.0" y="922.117004395" type="line"/>
    </contour>
  </outline>
</glyph>
<glyph name="question" format="1">
  <advance width="1055"/>
  <unicode hex="003F"/>
  <outline>
    <contour>
      <point x="312.977" y="590" type="line"/>
      <point x="516.927" y="590" type="line"/>
      <point x="516.927" y="762.38" type="line"/>
      <point x="545.579" y="774.223" type="line" smooth="yes"/>
      <point x="760.69" y="863.129"/>
      <point x="1026.1" y="973.141"/>
      <point x="1026.1" y="1273" type="curve" smooth="yes"/>
      <point x="1026.1" y="1534.96"/>
      <point x="776.669" y="1686"/>
      <point x="526.922" y="1686" type="curve" smooth="yes"/>
      <point x="286.521" y="1686"/>
      <point x="67.1895" y="1516.87"/>
      <point x="26" y="1270" type="curve"/>
      <point x="375.095" y="1270" type="line"/>
      <point x="389.459" y="1364.74"/>
      <point x="440.819" y="1432"/>
      <point x="521.092" y="1432" type="curve" smooth="yes"/>
      <point x="615.807" y="1432"/>
      <point x="643.535" y="1324.2"/>
      <point x="643.535" y="1250" type="curve" smooth="yes"/>
      <point x="643.535" y="1097.08"/>
      <point x="517.693" y="974.812"/>
      <point x="313.616" y="860.23" type="curve"/>
    </contour>
    <contour>
      <point x="408.96" y="25.209" type="curve"/>
      <point x="410.278" y="26" type="line"/>
      <point x="420.305" y="26" type="line" smooth="yes"/>
      <point x="536.3" y="26"/>
      <point x="616.048" y="102.348"/>
      <point x="616.048" y="225" type="curve" smooth="yes"/>
      <point x="616.048" y="346.705"/>
      <point x="538.682" y="419"/>
      <point x="419.473" y="419" type="curve" smooth="yes"/>
      <point x="304.979" y="419"/>
      <point x="222.098" y="345.925"/>
      <point x="222.098" y="225" type="curve" smooth="yes"/>
      <point x="222.098" y="105.618"/>
      <point x="302.089" y="30.127"/>
    </contour>
  </outline>
</glyph>
<glyph name="at" format="1">
  <advance width="1613"/>
  <unicode hex="0040"/>
  <outline>
    <contour>
      <point x="938.268005371" y="357.391998291" type="curve"/>
      <point x="978.489990234" y="253.0" type="line"/>
      <point x="1084.5" y="253.0" type="line" smooth="yes"/>
      <point x="1388.51000977" y="253.0"/>
      <point x="1586.0" y="373.381988525"/>
      <point x="1586.0" y="674.0" type="curve" smooth="yes"/>
      <point x="1586.0" y="762.315979004"/>
      <point x="1568.01000977" y="844.452026367"/>
      <point x="1531.7199707" y="922.581970215" type="curve" smooth="yes"/>
      <point x="1418.90002441" y="1167.32995605"/>
      <point x="1174.57995605" y="1317.0"/>
      <point x="829.901000977" y="1317.0" type="curve" smooth="yes"/>
      <point x="577.749023438" y="1317.0"/>
      <point x="376.994995117" y="1222.17004395"/>
      <point x="249.569000244" y="1093.44995117" type="curve" smooth="yes"/>
      <point x="126.255004883" y="968.888000488"/>
      <point x="30.0" y="797.418029785"/>
      <point x="30.0" y="563.0" type="curve" smooth="yes"/>
      <point x="30.0" y="463.834014893"/>
      <point x="49.7373046875" y="373.074005127"/>
      <point x="89.2362976074" y="288.520996094" type="curve" smooth="yes"/>
      <point x="216.289001465" y="14.5653991699"/>
      <point x="488.023010254" y="-150.0"/>
      <point x="876.442016602" y="-150.0" type="curve" smooth="yes"/>
      <point x="921.999023438" y="-150.0"/>
      <point x="967.357971191" y="-144.904006958"/>
      <point x="1016.9699707" y="-133.86000061" type="curve"/>
      <point x="990.281005859" y="-5.634765625" type="line"/>
      <point x="954.405029297" y="-13.1230010986"/>
      <point x="916.017028809" y="-17.0"/>
      <point x="876.442016602" y="-17.0" type="curve" smooth="yes"/>
      <point x="530.473022461" y="-17.0"/>
      <point x="243.0" y="173.486999512"/>
      <point x="243.0" y="565.0" type="curve" smooth="yes"/>
      <point x="243.0" y="945.205993652"/>
      <point x="482.053009033" y="1166.0"/>
      <point x="830.814025879" y="1166.0" type="curve" smooth="yes"/>
      <point x="1139.77001953" y="1166.0"/>
      <point x="1404.0" y="1017.21002197"/>
      <point x="1404.0" y="675.0" type="curve" smooth="yes"/>
      <point x="1404.0" y="539.862976074"/>
      <point x="1385.20996094" y="344.0"/>
      <point x="1207.69995117" y="344.0" type="curve" smooth="yes"/>
      <point x="1194.81005859" y="344.0" type="line"/>
      <point x="1156.72998047" y="369.040008545" type="line"/>
      <point x="1155.68005371" y="602.875976562" type="line" smooth="yes"/>
      <point x="1154.76000977" y="810.633972168"/>
      <point x="1056.54003906" y="913.0"/>
      <point x="869.140991211" y="913.0" type="curve" smooth="yes"/>
      <point x="844.50201416" y="913.0" type="line" smooth="yes"/>
      <point x="626.481018066" y="913.0"/>
      <point x="505.031005859" y="806.768005371"/>
      <point x="505.031005859" y="587.0" type="curve" smooth="yes"/>
      <point x="505.031005859" y="395.653015137"/>
      <point x="592.768005371" y="240.0"/>
      <point x="719.481994629" y="240.0" type="curve" smooth="yes"/>
      <point x="785.458007812" y="240.0"/>
      <point x="850.169006348" y="283.111999512"/>
      <point x="876.174987793" y="323.350006104" type="curve"/>
      <point x="864.161010742" y="320.42401123"/>
      <point x="851.684020996" y="319.0"/>
      <point x="839.026977539" y="319.0" type="curve" smooth="yes"/>
      <point x="721.598022461" y="319.0"/>
      <point x="725.869995117" y="513.497009277"/>
      <point x="725.869995117" y="577.0" type="curve" smooth="yes"/>
      <point x="725.869995117" y="589.039001465" type="line"/>
      <point x="726.773986816" y="591.020996094" type="line"/>
      <point x="726.731994629" y="650.007995605"/>
      <point x="710.630981445" y="864.0"/>
      <point x="846.327026367" y="864.0" type="curve" smooth="yes"/>
      <point x="958.405029297" y="864.0"/>
      <point x="962.221984863" y="740.198974609"/>
      <point x="962.221984863" y="667.0" type="curve" smooth="yes"/>
      <point x="962.221984863" y="386.615997314" type="line"/>
      <point x="954.640014648" y="376.588989258"/>
      <point x="947.093994141" y="366.023986816"/>
    </contour>
    <contour>
      <point x="923.296020508" y="396.24798584" type="line"/>
      <point x="938.268005371" y="357.391998291" type="line"/>
      <point x="920.617980957" y="340.131988525"/>
      <point x="899.250976562" y="328.970001221"/>
      <point x="876.174987793" y="323.350006104" type="curve"/>
    </contour>
  </outline>
</glyph>
<glyph name="B" format="1">
  <advance width="1467"/>
  <unicode hex="0042"/>
  <outline>
    <contour>
      <point x="250" y="1342" type="line"/>
      <point x="84" y="1342" type="line"/>
      <point x="84" y="1593" type="line"/>
      <point x="790" y="1593" type="line" smooth="yes"/>
      <point x="1107" y="1593"/>
      <point x="1331" y="1534"/>
      <point x="1331" y="1225" type="curve" smooth="yes"/>
      <point x="1331" y="1073"/>
      <point x="1236" y="984"/>
      <point x="1124" y="939" type="curve" smooth="yes"/>
      <point x="993" y="886" type="line"/>
      <point x="1126" y="842" type="line" smooth="yes"/>
      <point x="1291" y="792"/>
      <point x="1400" y="687"/>
      <point x="1400" y="471" type="curve" smooth="yes"/>
      <point x="1400" y="191"/>
      <point x="1183" y="102"/>
      <point x="897" y="102" type="curve" smooth="yes"/>
      <point x="77" y="102" type="line"/>
      <point x="77" y="359" type="line"/>
      <point x="250" y="359" type="line"/>
    </contour>
    <contour>
      <point x="681" y="740" type="curve" smooth="yes"/>
      <point x="637" y="739" type="line"/>
      <point x="637" y="359" type="line"/>
      <point x="702" y="359" type="line" smooth="yes"/>
      <point x="830" y="359"/>
      <point x="970" y="382"/>
      <point x="970" y="552" type="curve" smooth="yes"/>
      <point x="970" y="689"/>
      <point x="866" y="741"/>
      <point x="748" y="741" type="curve" smooth="yes"/>
      <point x="727" y="741" type="line" smooth="yes"/>
      <point x="715" y="741"/>
      <point x="700" y="741"/>
    </contour>
    <contour>
      <point x="794" y="1291" type="curve" smooth="yes"/>
      <point x="637" y="1291" type="line"/>
      <point x="637" y="900" type="line"/>
      <point x="718" y="900" type="line" smooth="yes"/>
      <point x="832" y="900"/>
      <point x="963" y="928"/>
      <point x="963" y="1101" type="curve" smooth="yes"/>
      <point x="963" y="1210"/>
      <point x="891" y="1291"/>
    </contour>
  </outline>
</glyph>
<glyph name="C" format="1">
  <advance width="1333"/>
  <unicode hex="0043"/>
  <outline>
    <contour>
      <point x="867" y="342" type="curve" smooth="yes"/>
      <point x="996" y="342"/>
      <point x="1125" y="390"/>
      <point x="1222" y="456" type="curve"/>
      <point x="1222" y="163" type="line"/>
      <point x="1075" y="81"/>
      <point x="921" y="24"/>
      <point x="744" y="24" type="curve" smooth="yes"/>
      <point x="338" y="24"/>
      <point x="66" y="326"/>
      <point x="66" y="805" type="curve" smooth="yes"/>
      <point x="66" y="1261"/>
      <point x="267" y="1572"/>
      <point x="649" y="1572" type="curve" smooth="yes"/>
      <point x="795" y="1572"/>
      <point x="890" y="1537"/>
      <point x="947" y="1460" type="curve" smooth="yes"/>
      <point x="998" y="1391" type="line"/>
      <point x="1048" y="1543" type="line"/>
      <point x="1252" y="1543" type="line"/>
      <point x="1252" y="1013" type="line"/>
      <point x="1054" y="1013" type="line"/>
      <point x="1042" y="1172"/>
      <point x="959" y="1311"/>
      <point x="800" y="1311" type="curve" smooth="yes"/>
      <point x="596" y="1311"/>
      <point x="533" y="1033"/>
      <point x="533" y="846" type="curve" smooth="yes"/>
      <point x="533" y="603"/>
      <point x="624" y="342"/>
    </contour>
  </outline>
</glyph>
<glyph name="D" format="1">
  <advance width="1591"/>
  <unicode hex="0044"/>
  <outline>
    <contour>
      <point x="82" y="102" type="line"/>
      <point x="784" y="102" type="line" smooth="yes"/>
      <point x="1216" y="102"/>
      <point x="1524" y="380"/>
      <point x="1524" y="847" type="curve" smooth="yes"/>
      <point x="1524" y="1355"/>
      <point x="1268" y="1593"/>
      <point x="804" y="1593" type="curve" smooth="yes"/>
      <point x="76" y="1593" type="line"/>
      <point x="76" y="1343" type="line"/>
      <point x="245" y="1343" type="line"/>
      <point x="245" y="359" type="line"/>
      <point x="82" y="359" type="line"/>
    </contour>
    <contour>
      <point x="655" y="359" type="line"/>
      <point x="655" y="1343" type="line"/>
      <point x="743" y="1343" type="line" smooth="yes"/>
      <point x="1002" y="1343"/>
      <point x="1056" y="1088"/>
      <point x="1056" y="848" type="curve" smooth="yes"/>
      <point x="1056" y="607"/>
      <point x="987" y="359"/>
      <point x="732" y="359" type="curve" smooth="yes"/>
    </contour>
  </outline>
</glyph>
<glyph name="E" format="1">
  <advance width="1242"/>
  <unicode hex="0045"/>
  <outline>
    <contour>
      <point x="79" y="102" type="line"/>
      <point x="1154" y="102" type="line"/>
      <point x="1154" y="677" type="line"/>
      <point x="972" y="677" type="line"/>
      <point x="897" y="359" type="line"/>
      <point x="634" y="359" type="line"/>
      <point x="634" y="767" type="line"/>
      <point x="808" y="767" type="line"/>
      <point x="808" y="927" type="line"/>
      <point x="634" y="927" type="line"/>
      <point x="634" y="1291" type="line"/>
      <point x="892" y="1291" type="line"/>
      <point x="965" y="1010" type="line"/>
      <point x="1143" y="1010" type="line"/>
      <point x="1143" y="1542" type="line"/>
      <point x="79" y="1542" type="line"/>
      <point x="79" y="1291" type="line"/>
      <point x="237" y="1291" type="line"/>
      <point x="237" y="359" type="line"/>
      <point x="79" y="359" type="line"/>
    </contour>
  </outline>
</glyph>
<glyph name="G" format="1">
  <advance width="1483"/>
  <unicode hex="0047"/>
  <outline>
    <contour>
      <point x="820.114" y="22" type="curve" smooth="yes"/>
      <point x="358.337" y="22"/>
      <point x="45" y="285.978"/>
      <point x="45" y="792" type="curve" smooth="yes"/>
      <point x="45" y="1271.77"/>
      <point x="316.558" y="1571"/>
      <point x="743.116" y="1571" type="curve" smooth="yes"/>
      <point x="862.362" y="1571"/>
      <point x="932.235" y="1527.46"/>
      <point x="988.275" y="1452.35" type="curve" smooth="yes"/>
      <point x="1041.8" y="1380.61" type="line"/>
      <point x="1087.29" y="1542" type="line"/>
      <point x="1335" y="1542" type="line"/>
      <point x="1335" y="1044" type="line"/>
      <point x="1122.11" y="1044" type="line"/>
      <point x="1088.05" y="1172.37"/>
      <point x="1009.24" y="1311"/>
      <point x="851.451" y="1311" type="curve" smooth="yes"/>
      <point x="599.29" y="1311"/>
      <point x="515.702" y="1047.79"/>
      <point x="515.702" y="801" type="curve" smooth="yes"/>
      <point x="515.702" y="571.59"/>
      <point x="617.512" y="327"/>
      <point x="849.66" y="327" type="curve" smooth="yes"/>
      <point x="923.042" y="327"/>
      <point x="985.768" y="345.457"/>
      <point x="1037" y="368.77" type="curve" smooth="yes"/>
      <point x="1065.43" y="381.708" type="line"/>
      <point x="1065.43" y="609" type="line"/>
      <point x="915.019" y="609" type="line"/>
      <point x="915.019" y="811" type="line"/>
      <point x="1409" y="811" type="line"/>
      <point x="1409" y="170.939" type="line"/>
      <point x="1235.31" y="83.1553"/>
      <point x="1036.28" y="22"/>
    </contour>
  </outline>
</glyph>
<glyph name="H" format="1">
  <advance width="1719"/>
  <unicode hex="0048"/>
  <outline>
    <contour>
      <point x="234" y="1291" type="line"/>
      <point x="234" y="359" type="line"/>
      <point x="80" y="359" type="line"/>
      <point x="80" y="102" type="line"/>
      <point x="761" y="102" type="line"/>
      <point x="761" y="359" type="line"/>
      <point x="667" y="359" type="line"/>
      <point x="667" y="686" type="line"/>
      <point x="1058" y="686" type="line"/>
      <point x="1058" y="359" type="line"/>
      <point x="978" y="359" type="line"/>
      <point x="978" y="102" type="line"/>
      <point x="1643" y="102" type="line"/>
      <point x="1643" y="359" type="line"/>
      <point x="1492" y="359" type="line"/>
      <point x="1492" y="1291" type="line"/>
      <point x="1643" y="1291" type="line"/>
      <point x="1643" y="1542" type="line"/>
      <point x="978" y="1542" type="line"/>
      <point x="978" y="1291" type="line"/>
      <point x="1058" y="1291" type="line"/>
      <point x="1058" y="925" type="line"/>
      <point x="667" y="925" type="line"/>
      <point x="667" y="1291" type="line"/>
      <point x="760" y="1291" type="line"/>
      <point x="760" y="1542" type="line"/>
      <point x="80" y="1542" type="line"/>
      <point x="80" y="1291" type="line"/>
    </contour>
  </outline>
</glyph>
<glyph name="I" format="1">
  <advance width="816"/>
  <unicode hex="0049"/>
  <outline>
    <contour>
      <point x="64" y="0" type="line"/>
      <point x="512" y="0" type="line"/>
      <point x="512" y="92" type="line"/>
      <point x="352" y="92" type="line"/>
      <point x="352" y="1399" type="line"/>
      <point x="512" y="1399" type="line"/>
      <point x="512" y="1491" type="line"/>
      <point x="64" y="1491" type="line"/>
      <point x="64" y="1399" type="line"/>
      <point x="224" y="1399" type="line"/>
      <point x="224" y="92" type="line"/>
      <point x="64" y="92" type="line"/>
    </contour>
  </outline>
</glyph>
<glyph name="J" format="1">
  <advance width="1156"/>
  <unicode hex="004A"/>
  <outline>
    <contour>
      <point x="1105" y="1542" type="line"/>
      <point x="433" y="1542" type="line"/>
      <point x="433" y="1291" type="line"/>
      <point x="563" y="1291" type="line"/>
      <point x="563" y="572" type="line" smooth="yes"/>
      <point x="563" y="482"/>
      <point x="558" y="314"/>
      <point x="426" y="314" type="curve" smooth="yes"/>
      <point x="289" y="314"/>
      <point x="276" y="484"/>
      <point x="273" y="582" type="curve"/>
      <point x="71" y="582" type="line"/>
      <point x="71" y="38" type="line"/>
      <point x="256" y="38" type="line"/>
      <point x="312" y="179" type="line"/>
      <point x="359" y="111" type="line" smooth="yes"/>
      <point x="398" y="55"/>
      <point x="463" y="21"/>
      <point x="568" y="21" type="curve" smooth="yes"/>
      <point x="809" y="21"/>
      <point x="958" y="186"/>
      <point x="958" y="475" type="curve" smooth="yes"/>
      <point x="958" y="1291" type="line"/>
      <point x="1105" y="1291" type="line"/>
    </contour>
  </outline>
</glyph>
<glyph name="K" format="1">
  <advance width="1601"/>
  <unicode hex="004B"/>
  <outline>
    <contour>
      <point x="983" y="358" type="curve" smooth="yes"/>
      <point x="983" y="533" type="line" smooth="yes"/>
      <point x="983" y="612"/>
      <point x="937" y="732"/>
      <point x="838" y="732" type="curve" smooth="yes"/>
      <point x="638" y="732" type="line"/>
      <point x="638" y="359" type="line"/>
      <point x="754" y="359" type="line"/>
      <point x="758" y="102" type="line"/>
      <point x="79" y="102" type="line"/>
      <point x="79" y="359" type="line"/>
      <point x="226" y="359" type="line"/>
      <point x="226" y="1342" type="line"/>
      <point x="79" y="1342" type="line"/>
      <point x="79" y="1592" type="line"/>
      <point x="753" y="1592" type="line"/>
      <point x="753" y="1342" type="line"/>
      <point x="638" y="1342" type="line"/>
      <point x="638" y="781" type="line"/>
      <point x="989" y="1273" type="line"/>
      <point x="989" y="1592" type="line"/>
      <point x="1480" y="1592" type="line"/>
      <point x="1480" y="1342" type="line"/>
      <point x="1370" y="1342" type="line"/>
      <point x="1049" y="923" type="line"/>
      <point x="1049" y="840" type="line"/>
      <point x="1095" y="840" type="line" smooth="yes"/>
      <point x="1269" y="840"/>
      <point x="1370" y="797"/>
      <point x="1370" y="643" type="curve" smooth="yes"/>
      <point x="1370" y="502" type="line" smooth="yes"/>
      <point x="1370" y="449"/>
      <point x="1399" y="359"/>
      <point x="1488" y="359" type="curve" smooth="yes"/>
      <point x="1528" y="359" type="line"/>
      <point x="1532" y="102" type="line"/>
      <point x="1241" y="102" type="line" smooth="yes"/>
      <point x="1057" y="102"/>
      <point x="983" y="181"/>
    </contour>
  </outline>
</glyph>
<glyph name="L" format="1">
  <advance width="1223"/>
  <unicode hex="004C"/>
  <outline>
    <contour>
      <point x="82" y="102" type="line"/>
      <point x="1151" y="102" type="line"/>
      <point x="1151" y="709" type="line"/>
      <point x="956" y="709" type="line"/>
      <point x="874" y="359" type="line"/>
      <point x="634" y="359" type="line"/>
      <point x="634" y="1342" type="line"/>
      <point x="765" y="1342" type="line"/>
      <point x="765" y="1592" type="line"/>
      <point x="77" y="1592" type="line"/>
      <point x="77" y="1342" type="line"/>
      <point x="224" y="1342" type="line"/>
      <point x="224" y="359" type="line"/>
      <point x="82" y="359" type="line"/>
    </contour>
  </outline>
</glyph>
<glyph name="N" format="1">
  <advance width="1639"/>
  <unicode hex="004E"/>
  <outline>
    <contour>
      <point x="947" y="102" type="line"/>
      <point x="443" y="1131" type="line"/>
      <point x="443" y="360" type="line"/>
      <point x="523" y="360" type="line" smooth="yes"/>
      <point x="543" y="360"/>
      <point x="565" y="359"/>
      <point x="587" y="359" type="curve"/>
      <point x="587" y="102" type="line"/>
      <point x="78" y="102" type="line"/>
      <point x="78" y="359" type="line"/>
      <point x="147" y="359" type="line" smooth="yes"/>
      <point x="164" y="359"/>
      <point x="180" y="359"/>
      <point x="193" y="360" type="curve" smooth="yes"/>
      <point x="241" y="362" type="line"/>
      <point x="241" y="1344" type="line"/>
      <point x="84" y="1344" type="line"/>
      <point x="84" y="1593" type="line"/>
      <point x="700" y="1593" type="line"/>
      <point x="1225" y="491" type="line"/>
      <point x="1225" y="1342" type="line"/>
      <point x="1081" y="1342" type="line"/>
      <point x="1081" y="1592" type="line"/>
      <point x="1590" y="1592" type="line"/>
      <point x="1590" y="1342" type="line"/>
      <point x="1432" y="1342" type="line"/>
      <point x="1432" y="102" type="line"/>
    </contour>
  </outline>
</glyph>
<glyph name="O" format="1">
  <advance width="1566"/>
  <unicode hex="004F"/>
  <outline>
    <contour>
      <point x="782" y="22" type="curve" smooth="yes"/>
      <point x="1002" y="22"/>
      <point x="1168" y="118"/>
      <point x="1285" y="242" type="curve" smooth="yes"/>
      <point x="1406" y="370"/>
      <point x="1500" y="555"/>
      <point x="1500" y="798" type="curve" smooth="yes"/>
      <point x="1500" y="1282"/>
      <point x="1220" y="1572"/>
      <point x="782" y="1572" type="curve" smooth="yes"/>
      <point x="346" y="1572"/>
      <point x="64" y="1283"/>
      <point x="64" y="798" type="curve" smooth="yes"/>
      <point x="64" y="555"/>
      <point x="158" y="370"/>
      <point x="279" y="242" type="curve" smooth="yes"/>
      <point x="396" y="118"/>
      <point x="562" y="22"/>
    </contour>
    <contour>
      <point x="782" y="267" type="curve" smooth="yes"/>
      <point x="560" y="267"/>
      <point x="537" y="630"/>
      <point x="537" y="806" type="curve" smooth="yes"/>
      <point x="537" y="982"/>
      <point x="561" y="1311"/>
      <point x="782" y="1311" type="curve" smooth="yes"/>
      <point x="1002" y="1311"/>
      <point x="1027" y="983"/>
      <point x="1027" y="806" type="curve" smooth="yes"/>
      <point x="1027" y="632"/>
      <point x="1004" y="267"/>
    </contour>
  </outline>
</glyph>
<glyph name="P" format="1">
  <advance width="1466"/>
  <unicode hex="0050"/>
  <outline>
    <contour>
      <point x="79" y="102" type="line"/>
      <point x="782" y="102" type="line"/>
      <point x="782" y="359" type="line"/>
      <point x="652" y="359" type="line"/>
      <point x="652" y="627" type="line"/>
      <point x="703" y="620" type="line" smooth="yes"/>
      <point x="745" y="614"/>
      <point x="787" y="610"/>
      <point x="831" y="610" type="curve" smooth="yes"/>
      <point x="1196" y="610"/>
      <point x="1402" y="745"/>
      <point x="1402" y="1133" type="curve" smooth="yes"/>
      <point x="1402" y="1455"/>
      <point x="1147" y="1542"/>
      <point x="823" y="1542" type="curve" smooth="yes"/>
      <point x="84" y="1542" type="line"/>
      <point x="84" y="1291" type="line"/>
      <point x="235" y="1291" type="line"/>
      <point x="235" y="359" type="line"/>
      <point x="79" y="359" type="line"/>
    </contour>
    <contour>
      <point x="653" y="834" type="line"/>
      <point x="653" y="1291" type="line"/>
      <point x="773" y="1291" type="line" smooth="yes"/>
      <point x="881" y="1291"/>
      <point x="982" y="1225"/>
      <point x="982" y="1086" type="curve" smooth="yes"/>
      <point x="982" y="923"/>
      <point x="887" y="834"/>
      <point x="735" y="834" type="curve" smooth="yes"/>
    </contour>
  </outline>
</glyph>
<glyph name="T" format="1">
  <advance width="1415"/>
  <unicode hex="0054"/>
  <outline>
    <contour>
      <point x="352" y="51" type="line"/>
      <point x="1052" y="51" type="line"/>
      <point x="1052" y="309" type="line"/>
      <point x="906" y="309" type="line"/>
      <point x="906" y="1291" type="line"/>
      <point x="1122" y="1291" type="line"/>
      <point x="1164" y="1016" type="line"/>
      <point x="1350" y="1016" type="line"/>
      <point x="1350" y="1541" type="line"/>
      <point x="57" y="1541" type="line"/>
      <point x="57" y="1016" type="line"/>
      <point x="244" y="1016" type="line"/>
      <point x="288" y="1291" type="line"/>
      <point x="497" y="1291" type="line"/>
      <point x="497" y="309" type="line"/>
      <point x="352" y="309" type="line"/>
    </contour>
  </outline>
</glyph>
<glyph name="U" format="1">
  <advance width="1479"/>
  <unicode hex="0055"/>
  <outline>
    <contour>
      <point x="199" y="704" type="curve" smooth="yes"/>
      <point x="199" y="1291" type="line"/>
      <point x="38" y="1291" type="line"/>
      <point x="38" y="1541" type="line"/>
      <point x="752" y="1541" type="line"/>
      <point x="752" y="1291" type="line"/>
      <point x="619" y="1291" type="line"/>
      <point x="619" y="600" type="line" smooth="yes"/>
      <point x="619" y="452"/>
      <point x="672" y="295"/>
      <point x="835" y="295" type="curve" smooth="yes"/>
      <point x="964" y="295"/>
      <point x="1056" y="388"/>
      <point x="1056" y="536" type="curve" smooth="yes"/>
      <point x="1056" y="1291" type="line"/>
      <point x="909" y="1291" type="line"/>
      <point x="909" y="1541" type="line"/>
      <point x="1430" y="1541" type="line"/>
      <point x="1430" y="1291" type="line"/>
      <point x="1276" y="1291" type="line"/>
      <point x="1276" y="520" type="line" smooth="yes"/>
      <point x="1276" y="206"/>
      <point x="1029" y="22"/>
      <point x="728" y="22" type="curve" smooth="yes"/>
      <point x="344" y="22"/>
      <point x="199" y="260"/>
    </contour>
  </outline>
</glyph>
<glyph name="V" format="1">
  <advance width="1565"/>
  <unicode hex="0056"/>
  <outline>
    <contour>
      <point x="524" y="51" type="line"/>
      <point x="986" y="51" type="line"/>
      <point x="1355" y="1291" type="line"/>
      <point x="1521" y="1291" type="line"/>
      <point x="1521" y="1541" type="line"/>
      <point x="961" y="1541" type="line"/>
      <point x="961" y="1290" type="line"/>
      <point x="1092" y="1290" type="line"/>
      <point x="877" y="315" type="line"/>
      <point x="630" y="1291" type="line"/>
      <point x="750" y="1291" type="line"/>
      <point x="750" y="1541" type="line"/>
      <point x="35" y="1541" type="line"/>
      <point x="35" y="1291" type="line"/>
      <point x="188" y="1291" type="line"/>
    </contour>
  </outline>
</glyph>
<glyph name="W" format="1">
  <advance width="2372"/>
  <unicode hex="0057"/>
  <outline>
    <contour>
      <point x="521" y="51" type="line"/>
      <point x="956" y="51" type="line"/>
      <point x="1185" y="895" type="line"/>
      <point x="1403" y="51" type="line"/>
      <point x="1844" y="51" type="line"/>
      <point x="2171" y="1291" type="line"/>
      <point x="2328" y="1291" type="line"/>
      <point x="2328" y="1542" type="line"/>
      <point x="1786" y="1542" type="line"/>
      <point x="1786" y="1291" type="line"/>
      <point x="1934" y="1291" type="line"/>
      <point x="1723" y="518" type="line"/>
      <point x="1447" y="1542" type="line"/>
      <point x="1133" y="1542" type="line"/>
      <point x="851" y="484" type="line"/>
      <point x="637" y="1291" type="line"/>
      <point x="795" y="1291" type="line"/>
      <point x="795" y="1542" type="line"/>
      <point x="35" y="1542" type="line"/>
      <point x="35" y="1291" type="line"/>
      <point x="186" y="1291" type="line"/>
    </contour>
  </outline>
</glyph>
<glyph name="Y" format="1">
  <advance width="1451"/>
  <unicode hex="0059"/>
  <outline>
    <contour>
      <point x="865" y="926" type="line"/>
      <point x="1066" y="1342" type="line"/>
      <point x="903" y="1342" type="line"/>
      <point x="903" y="1592" type="line"/>
      <point x="1408" y="1592" type="line"/>
      <point x="1408" y="1342" type="line"/>
      <point x="1251" y="1342" type="line"/>
      <point x="945" y="769" type="line"/>
      <point x="945" y="359" type="line"/>
      <point x="1086" y="359" type="line"/>
      <point x="1086" y="102" type="line"/>
      <point x="398" y="102" type="line"/>
      <point x="398" y="359" type="line"/>
      <point x="537" y="359" type="line"/>
      <point x="537" y="719" type="line"/>
      <point x="121" y="1342" type="line"/>
      <point x="34" y="1342" type="line"/>
      <point x="34" y="1592" type="line"/>
      <point x="732" y="1592" type="line"/>
      <point x="732" y="1342" type="line"/>
      <point x="609" y="1342" type="line"/>
    </contour>
  </outline>
</glyph>
<glyph name="Z" format="1">
  <advance width="1380"/>
  <unicode hex="005A"/>
  <outline>
    <contour>
      <point x="1004" y="359" type="line"/>
      <point x="612" y="359" type="line"/>
      <point x="1277" y="1331" type="line"/>
      <point x="1277" y="1592" type="line"/>
      <point x="87" y="1592" type="line"/>
      <point x="87" y="1030" type="line"/>
      <point x="284" y="1030" type="line"/>
      <point x="360" y="1342" type="line"/>
      <point x="761" y="1342" type="line"/>
      <point x="92" y="384" type="line"/>
      <point x="92" y="102" type="line"/>
      <point x="1298" y="102" type="line"/>
      <point x="1298" y="695" type="line"/>
      <point x="1104" y="695" type="line"/>
    </contour>
  </outline>
</glyph>
<glyph name="bracketleft" format="1">
  <advance width="684"/>
  <unicode hex="005B"/>
  <outline>
    <contour>
      <point x="36" y="51" type="line"/>
      <point x="36" y="1572" type="line"/>
      <point x="648" y="1572" type="line"/>
      <point x="648" y="1373" type="line"/>
      <point x="451" y="1373" type="line"/>
      <point x="451" y="260" type="line"/>
      <point x="643.835998535" y="260" type="line"/>
      <point x="643.164001465" y="51" type="line"/>
    </contour>
  </outline>
</glyph>
<glyph name="backslash" format="1">
  <advance width="743"/>
  <unicode hex="005C"/>
  <outline>
    <contour>
      <point x="310.903991699" y="51" type="line"/>
      <point x="16.0" y="1572" type="line"/>
      <point x="409.016998291" y="1572" type="line"/>
      <point x="703.304992676" y="51" type="line"/>
    </contour>
  </outline>
</glyph>
<glyph name="bracketright" format="1">
  <advance width="684"/>
  <unicode hex="005D"/>
  <outline>
    <contour>
      <point x="40.8359" y="51" type="line"/>
      <point x="648" y="51" type="line"/>
      <point x="648" y="1572" type="line"/>
      <point x="36" y="1572" type="line"/>
      <point x="36" y="1373" type="line"/>
      <point x="233" y="1373" type="line"/>
      <point x="233" y="260" type="line"/>
      <point x="40.1641" y="260" type="line"/>
    </contour>
  </outline>
</glyph>
<glyph name="asciicircum" format="1">
  <advance width="1234"/>
  <unicode hex="005E"/>
  <outline>
    <contour>
      <point x="702.958984375" y="1573" type="line"/>
      <point x="1101.09997559" y="960" type="line"/>
      <point x="775.463989258" y="960" type="line"/>
      <point x="568.551025391" y="1335.7199707" type="line"/>
      <point x="361.638000488" y="960.0" type="line"/>
      <point x="36.0" y="960.0" type="line"/>
      <point x="434.144012451" y="1573.0" type="line"/>
    </contour>
  </outline>
</glyph>
<glyph name="underscore" format="1">
  <advance width="1124"/>
  <unicode hex="005F"/>
  <outline>
    <contour>
      <point x="1058" y="-52" type="line"/>
      <point x="1058" y="-173" type="line"/>
      <point x="69" y="-173" type="line"/>
      <point x="69" y="-52" type="line"/>
    </contour>
  </outline>
</glyph>
<glyph name="grave" format="1">
  <advance width="654"/>
  <unicode hex="0060"/>
  <outline>
    <contour>
      <point x="166.682998657" y="1710.81005859" type="line"/>
      <point x="564.017044067" y="1344.48999023" type="line"/>
      <point x="513.958023071" y="1276.61999512" type="line"/>
      <point x="48.0000152588" y="1539.88000488" type="line"/>
    </contour>
  </outline>
</glyph>
<glyph name="a" format="1">
  <advance width="1059"/>
  <unicode hex="0061"/>
  <outline>
    <contour>
      <point x="407.0" y="75.0" type="curve" smooth="yes"/>
      <point x="524" y="75"/>
      <point x="626" y="114"/>
      <point x="702" y="188" type="curve"/>
      <point x="702" y="417" type="line"/>
      <point x="613.537841797" y="442.548400879"/>
      <point x="521.008422852" y="453.0"/>
      <point x="460.0" y="453.0" type="curve" smooth="yes"/>
      <point x="234.405197144" y="453.0"/>
      <point x="195.0" y="358.553192139"/>
      <point x="195.0" y="260.0" type="curve" smooth="yes"/>
      <point x="195.0" y="179.0"/>
      <point x="248.0" y="75.0"/>
    </contour>
    <contour>
      <point x="737.0" y="0.0" type="line"/>
      <point x="738.166687012" y="0.0"/>
      <point x="709.0" y="125.0"/>
      <point x="709.0" y="125.0" type="curve"/>
      <point x="691.0" y="81.0"/>
      <point x="565.0" y="-18.0"/>
      <point x="389.0" y="-18.0" type="curve" smooth="yes"/>
      <point x="188.0" y="-18.0"/>
      <point x="71.0" y="99.0"/>
      <point x="71.0" y="261.0" type="curve" smooth="yes"/>
      <point x="71.0" y="440.29586792"/>
      <point x="234.581665039" y="533.0"/>
      <point x="417.0" y="533.0" type="curve" smooth="yes"/>
      <point x="500.882965088" y="533.0"/>
      <point x="626.202148438" y="518.700012207"/>
      <point x="702.0" y="478.0" type="curve"/>
      <point x="702.0" y="586.0" type="line" smooth="yes"/>
      <point x="702.0" y="790.512207031"/>
      <point x="671.873413086" y="898.0"/>
      <point x="464.0" y="898.0" type="curve" smooth="yes"/>
      <point x="278.139251709" y="898.0"/>
      <point x="181.868896484" y="844.861877441"/>
      <point x="152.0" y="829.241210938" type="curve"/>
      <point x="144.0" y="832.799804688" type="line"/>
      <point x="144.0" y="926.0" type="line"/>
      <point x="214.0" y="959.812927246"/>
      <point x="338.0" y="989.0"/>
      <point x="466.0" y="989.0" type="curve" smooth="yes"/>
      <point x="679.0" y="989.0"/>
      <point x="846.0" y="901.0"/>
      <point x="846.0" y="584.0" type="curve" smooth="yes"/>
      <point x="846.0" y="93.0" type="line"/>
      <point x="1007.0" y="93.0" type="line"/>
      <point x="1007.0" y="0.0" type="line"/>
    </contour>
  </outline>
</glyph>
<glyph name="b" format="1">
  <advance width="1228"/>
  <unicode hex="0062"/>
  <outline>
    <contour>
      <point x="756" y="990" type="curve" smooth="yes"/>
      <point x="1023" y="990"/>
      <point x="1188" y="793"/>
      <point x="1188" y="487" type="curve" smooth="yes"/>
      <point x="1188" y="186"/>
      <point x="1006" y="-27"/>
      <point x="720" y="-15" type="curve" smooth="yes"/>
      <point x="619" y="-11"/>
      <point x="485" y="44"/>
      <point x="411" y="138" type="curve"/>
      <point x="360" y="0" type="line"/>
      <point x="268" y="0" type="line"/>
      <point x="268" y="1330" type="line"/>
      <point x="80" y="1330" type="line"/>
      <point x="80" y="1405" type="line"/>
      <point x="412" y="1456" type="line"/>
      <point x="412" y="807" type="line"/>
      <point x="430" y="847"/>
      <point x="575" y="990"/>
    </contour>
    <contour>
      <point x="742" y="891" type="curve" smooth="yes"/>
      <point x="550" y="891"/>
      <point x="445" y="741"/>
      <point x="412" y="688" type="curve"/>
      <point x="412" y="218" type="line"/>
      <point x="459" y="172"/>
      <point x="571" y="82"/>
      <point x="721" y="82" type="curve" smooth="yes"/>
      <point x="929" y="82"/>
      <point x="1042" y="269"/>
      <point x="1042" y="465" type="curve" smooth="yes"/>
      <point x="1042" y="738"/>
      <point x="930" y="891"/>
    </contour>
  </outline>
</glyph>
<glyph name="c" format="1">
  <advance width="962"/>
  <unicode hex="0063"/>
  <outline>
    <contour>
      <point x="527" y="-18" type="curve" smooth="yes"/>
      <point x="256" y="-18"/>
      <point x="37" y="162"/>
      <point x="37" y="495" type="curve" smooth="yes"/>
      <point x="37" y="795"/>
      <point x="267" y="989"/>
      <point x="509" y="989" type="curve" smooth="yes"/>
      <point x="593" y="989"/>
      <point x="749" y="952"/>
      <point x="818" y="816" type="curve"/>
      <point x="842" y="961" type="line"/>
      <point x="901" y="961" type="line"/>
      <point x="901" y="663" type="line"/>
      <point x="796" y="663" type="line"/>
      <point x="796" y="755"/>
      <point x="703" y="890"/>
      <point x="536" y="890" type="curve" smooth="yes"/>
      <point x="347" y="890"/>
      <point x="183" y="757"/>
      <point x="183" y="493" type="curve" smooth="yes"/>
      <point x="183" y="215"/>
      <point x="328" y="81"/>
      <point x="540" y="81" type="curve" smooth="yes"/>
      <point x="804" y="81"/>
      <point x="810" y="289"/>
      <point x="815" y="323" type="curve"/>
      <point x="903" y="323" type="line"/>
      <point x="903" y="98" type="line"/>
      <point x="809" y="30"/>
      <point x="661" y="-18"/>
    </contour>
  </outline>
</glyph>
<glyph name="d" format="1">
  <advance width="1290"/>
  <unicode hex="0064"/>
  <outline>
    <contour>
      <point x="456" y="84" type="curve" smooth="yes"/>
      <point x="205" y="84"/>
      <point x="66" y="304"/>
      <point x="66" y="601" type="curve" smooth="yes"/>
      <point x="66" y="880"/>
      <point x="212" y="1091"/>
      <point x="449" y="1091" type="curve" smooth="yes"/>
      <point x="565" y="1091"/>
      <point x="620" y="1045"/>
      <point x="681" y="975" type="curve" smooth="yes"/>
      <point x="756" y="888" type="line"/>
      <point x="756" y="1324" type="line"/>
      <point x="622" y="1324" type="line"/>
      <point x="622" y="1500" type="line"/>
      <point x="1107" y="1555" type="line"/>
      <point x="1107" y="301" type="line"/>
      <point x="1224" y="301" type="line"/>
      <point x="1224" y="102" type="line"/>
      <point x="756" y="102" type="line"/>
      <point x="756" y="331" type="line"/>
      <point x="676" y="210" type="line" smooth="yes"/>
      <point x="632" y="142"/>
      <point x="558" y="84"/>
    </contour>
    <contour>
      <point x="595" y="243" type="curve" smooth="yes"/>
      <point x="677" y="243"/>
      <point x="726" y="299"/>
      <point x="756" y="356" type="curve"/>
      <point x="756" y="727" type="line"/>
      <point x="723" y="773"/>
      <point x="676" y="830"/>
      <point x="595" y="830" type="curve" smooth="yes"/>
      <point x="457" y="830"/>
      <point x="419" y="676"/>
      <point x="419" y="558" type="curve" smooth="yes"/>
      <point x="419" y="436"/>
      <point x="438" y="243"/>
    </contour>
  </outline>
</glyph>
<glyph name="e" format="1">
  <advance width="1020"/>
  <unicode hex="0065"/>
  <outline>
    <contour>
      <point x="549" y="-18" type="curve" smooth="yes"/>
      <point x="749" y="-18"/>
      <point x="875" y="80"/>
      <point x="914" y="121" type="curve"/>
      <point x="914" y="121"/>
      <point x="932" y="308"/>
      <point x="932" y="308" type="curve"/>
      <point x="868" y="308" type="line"/>
      <point x="824" y="134"/>
      <point x="731" y="78"/>
      <point x="550" y="78" type="curve" smooth="yes"/>
      <point x="305" y="78"/>
      <point x="196" y="274"/>
      <point x="196" y="496" type="curve"/>
      <point x="944" y="496" type="line"/>
      <point x="946" y="518"/>
      <point x="948" y="561"/>
      <point x="948" y="562" type="curve" smooth="yes"/>
      <point x="948" y="841"/>
      <point x="748" y="989"/>
      <point x="524" y="989" type="curve" smooth="yes"/>
      <point x="228" y="989"/>
      <point x="68" y="766"/>
      <point x="68" y="485" type="curve" smooth="yes"/>
      <point x="68" y="236"/>
      <point x="251" y="-18"/>
    </contour>
    <contour>
      <point x="835" y="584" type="curve"/>
      <point x="199" y="584" type="line"/>
      <point x="199" y="586"/>
      <point x="201" y="616"/>
      <point x="201" y="618" type="curve"/>
      <point x="224" y="761"/>
      <point x="343" y="893"/>
      <point x="524" y="893" type="curve" smooth="yes"/>
      <point x="700" y="893"/>
      <point x="835" y="756"/>
      <point x="835" y="605" type="curve" smooth="yes"/>
      <point x="835" y="600"/>
      <point x="835" y="588"/>
    </contour>
  </outline>
</glyph>
<glyph name="f" format="1">
  <advance width="789"/>
  <unicode hex="0066"/>
  <outline>
    <contour>
      <point x="84" y="0" type="line"/>
      <point x="654" y="0" type="line"/>
      <point x="654" y="103" type="line"/>
      <point x="416" y="103" type="line"/>
      <point x="416" y="872" type="line"/>
      <point x="684" y="872" type="line"/>
      <point x="684" y="970" type="line"/>
      <point x="413" y="970" type="line"/>
      <point x="413" y="1085" type="line" smooth="yes"/>
      <point x="413" y="1286"/>
      <point x="446" y="1354"/>
      <point x="556" y="1354" type="curve" smooth="yes"/>
      <point x="639" y="1354"/>
      <point x="691" y="1330"/>
      <point x="720" y="1323" type="curve"/>
      <point x="720" y="1434" type="line"/>
      <point x="641" y="1456"/>
      <point x="597" y="1471"/>
      <point x="514" y="1468" type="curve" smooth="yes"/>
      <point x="364" y="1462"/>
      <point x="272" y="1366"/>
      <point x="272" y="1116" type="curve" smooth="yes"/>
      <point x="272" y="970" type="line"/>
      <point x="66" y="970" type="line"/>
      <point x="66" y="872" type="line"/>
      <point x="272" y="872" type="line"/>
      <point x="272" y="103" type="line"/>
      <point x="84" y="103" type="line"/>
    </contour>
  </outline>
</glyph>
<glyph name="g" format="1">
  <advance width="1293"/>
  <unicode hex="0067"/>
  <outline>
    <contour>
      <point x="1227" y="970" type="line"/>
      <point x="1227" y="761" type="line"/>
      <point x="1120" y="761" type="line"/>
      <point x="1120" y="84" type="line" smooth="yes"/>
      <point x="1120" y="-253"/>
      <point x="884" y="-390"/>
      <point x="567" y="-390" type="curve" smooth="yes"/>
      <point x="459" y="-390"/>
      <point x="343" y="-373"/>
      <point x="206" y="-339" type="curve"/>
      <point x="206" y="-159" type="line"/>
      <point x="306" y="-190"/>
      <point x="404" y="-224"/>
      <point x="515" y="-224" type="curve" smooth="yes"/>
      <point x="673" y="-224"/>
      <point x="770" y="-120"/>
      <point x="770" y="66" type="curve" smooth="yes"/>
      <point x="770" y="182" type="line"/>
      <point x="695" y="104" type="line" smooth="yes"/>
      <point x="640" y="45"/>
      <point x="562" y="0"/>
      <point x="453" y="0" type="curve" smooth="yes"/>
      <point x="208" y="0"/>
      <point x="71" y="203"/>
      <point x="71" y="490" type="curve" smooth="yes"/>
      <point x="71" y="780"/>
      <point x="206" y="989"/>
      <point x="451" y="989" type="curve" smooth="yes"/>
      <point x="568" y="989"/>
      <point x="640" y="923"/>
      <point x="689" y="842" type="curve" smooth="yes"/>
      <point x="733" y="770" type="line"/>
      <point x="815" y="970" type="line"/>
    </contour>
    <contour>
      <point x="768" y="390" type="curve" smooth="yes"/>
      <point x="768" y="691" type="line"/>
      <point x="750" y="774"/>
      <point x="690" y="830"/>
      <point x="609" y="830" type="curve" smooth="yes"/>
      <point x="480" y="830"/>
      <point x="424" y="706"/>
      <point x="424" y="535" type="curve" smooth="yes"/>
      <point x="424" y="403"/>
      <point x="469" y="261"/>
      <point x="613" y="261" type="curve" smooth="yes"/>
      <point x="661" y="261"/>
      <point x="768" y="282"/>
    </contour>
  </outline>
</glyph>
<glyph name="h" format="1">
  <advance width="1234"/>
  <unicode hex="0068"/>
  <outline>
    <contour>
      <point x="500.965" y="766.995" type="line"/>
      <point x="511.223" y="788.654" type="line"/>
      <point x="503.918" y="765.035"/>
      <point x="500.965" y="739.33"/>
      <point x="500.965" y="712" type="curve" smooth="yes"/>
      <point x="500.965" y="301" type="line"/>
      <point x="581.717" y="301" type="line"/>
      <point x="581.717" y="102" type="line"/>
      <point x="49" y="102" type="line"/>
      <point x="49" y="301" type="line"/>
      <point x="148" y="301" type="line"/>
      <point x="148" y="1324" type="line"/>
      <point x="44" y="1324" type="line"/>
      <point x="44" y="1500.3" type="line"/>
      <point x="500.965" y="1554.08" type="line"/>
    </contour>
    <contour>
      <point x="632.946" y="830" type="curve" smooth="yes"/>
      <point x="594.026" y="830"/>
      <point x="555.638" y="814.562"/>
      <point x="530.591" y="778.547" type="curve"/>
      <point x="584.124" y="891.578" type="line" smooth="yes"/>
      <point x="624.411" y="976.641"/>
      <point x="699.014" y="1040"/>
      <point x="819.631" y="1040" type="curve" smooth="yes"/>
      <point x="1007.91" y="1040"/>
      <point x="1102" y="923.133"/>
      <point x="1102" y="702" type="curve" smooth="yes"/>
      <point x="1102" y="250" type="line"/>
      <point x="1208" y="250" type="line"/>
      <point x="1208" y="51" type="line"/>
      <point x="749.298" y="51" type="line"/>
      <point x="749.298" y="654" type="line" smooth="yes"/>
      <point x="749.298" y="745.286"/>
      <point x="716.005" y="830"/>
    </contour>
  </outline>
</glyph>
<glyph name="i" format="1">
  <advance width="573"/>
  <unicode hex="0069"/>
  <outline>
    <contour>
      <point x="75" y="0" type="line"/>
      <point x="523" y="0" type="line"/>
      <point x="523" y="92" type="line"/>
      <point x="363" y="92" type="line"/>
      <point x="363" y="984" type="line"/>
      <point x="75" y="958" type="line"/>
      <point x="75" y="875" type="line"/>
      <point x="235" y="875" type="line"/>
      <point x="235" y="92" type="line"/>
      <point x="75" y="92" type="line"/>
    </contour>
    <contour>
      <point x="249" y="1182" type="curve" smooth="yes"/>
      <point x="318" y="1182"/>
      <point x="363" y="1218"/>
      <point x="363" y="1285" type="curve" smooth="yes"/>
      <point x="363" y="1351"/>
      <point x="319" y="1390"/>
      <point x="249" y="1390" type="curve" smooth="yes"/>
      <point x="180" y="1390"/>
      <point x="139" y="1351"/>
      <point x="139" y="1285" type="curve" smooth="yes"/>
      <point x="139" y="1218"/>
      <point x="182" y="1182"/>
    </contour>
  </outline>
</glyph>
<glyph name="j" format="1">
  <advance width="674"/>
  <unicode hex="006A"/>
  <outline>
    <contour>
      <point x="60" y="-397" type="curve"/>
      <point x="60" y="-173" type="line"/>
      <point x="112" y="-169"/>
      <point x="197" y="-145"/>
      <point x="197" y="-60" type="curve" smooth="yes"/>
      <point x="197" y="761" type="line"/>
      <point x="67" y="761" type="line"/>
      <point x="67" y="911" type="line"/>
      <point x="582" y="964" type="line"/>
      <point x="582" y="78" type="line" smooth="yes"/>
      <point x="582" y="-276"/>
      <point x="413" y="-387"/>
    </contour>
    <contour>
      <point x="123" y="1436" type="curve" smooth="yes"/>
      <point x="123" y="1562"/>
      <point x="208" y="1630"/>
      <point x="349" y="1630" type="curve" smooth="yes"/>
      <point x="495" y="1630"/>
      <point x="585" y="1563"/>
      <point x="585" y="1436" type="curve" smooth="yes"/>
      <point x="585" y="1309"/>
      <point x="492" y="1237"/>
      <point x="349" y="1237" type="curve" smooth="yes"/>
      <point x="211" y="1237"/>
      <point x="123" y="1310"/>
    </contour>
  </outline>
</glyph>
<glyph name="k" format="1">
  <advance width="1298"/>
  <unicode hex="006B"/>
  <outline>
    <contour>
      <point x="1224" y="250" type="line"/>
      <point x="1224" y="51" type="line"/>
      <point x="850" y="51" type="line"/>
      <point x="584" y="524" type="line"/>
      <point x="871" y="812" type="line"/>
      <point x="715" y="812" type="line"/>
      <point x="715" y="1021" type="line"/>
      <point x="1206" y="1021" type="line"/>
      <point x="1206" y="812" type="line"/>
      <point x="1068" y="812" type="line"/>
      <point x="1009" y="764"/>
      <point x="945" y="705"/>
      <point x="894" y="658" type="curve" smooth="yes"/>
      <point x="863" y="629" type="line"/>
      <point x="1092" y="250" type="line"/>
    </contour>
    <contour>
      <point x="183" y="1324" type="line"/>
      <point x="79" y="1324" type="line"/>
      <point x="79" y="1500" type="line"/>
      <point x="535" y="1554" type="line"/>
      <point x="535" y="102" type="line"/>
      <point x="80" y="102" type="line"/>
      <point x="80" y="301" type="line"/>
      <point x="183" y="301" type="line"/>
    </contour>
  </outline>
</glyph>
<glyph name="l" format="1">
  <advance width="565"/>
  <unicode hex="006C"/>
  <outline>
    <contour>
      <point x="514" y="0" type="line"/>
      <point x="66" y="0" type="line"/>
      <point x="66" y="92" type="line"/>
      <point x="226" y="92" type="line"/>
      <point x="226" y="1315" type="line"/>
      <point x="66" y="1315" type="line"/>
      <point x="66" y="1398" type="line"/>
      <point x="354" y="1452" type="line"/>
      <point x="354" y="92" type="line"/>
      <point x="514" y="92" type="line"/>
    </contour>
  </outline>
</glyph>
<glyph name="m" format="1">
  <advance width="1883"/>
  <unicode hex="006D"/>
  <outline>
    <contour>
      <point x="64" y="0" type="line"/>
      <point x="529" y="0" type="line"/>
      <point x="529" y="92" type="line"/>
      <point x="352" y="92" type="line"/>
      <point x="352" y="645" type="line" smooth="yes"/>
      <point x="352" y="730"/>
      <point x="522" y="893"/>
      <point x="694" y="893" type="curve" smooth="yes"/>
      <point x="842" y="893"/>
      <point x="896" y="811"/>
      <point x="896" y="648" type="curve" smooth="yes"/>
      <point x="896" y="0" type="line"/>
      <point x="1216" y="0" type="line"/>
      <point x="1216" y="92" type="line"/>
      <point x="1024" y="92" type="line"/>
      <point x="1024" y="645" type="line" smooth="yes"/>
      <point x="1024" y="730"/>
      <point x="1195" y="893"/>
      <point x="1367" y="893" type="curve" smooth="yes"/>
      <point x="1515" y="893"/>
      <point x="1568" y="811"/>
      <point x="1568" y="648" type="curve" smooth="yes"/>
      <point x="1568" y="0" type="line"/>
      <point x="1888" y="0" type="line"/>
      <point x="1888" y="92" type="line"/>
      <point x="1696" y="92" type="line"/>
      <point x="1696" y="659" type="line" smooth="yes"/>
      <point x="1696" y="901"/>
      <point x="1583" y="989"/>
      <point x="1399" y="989" type="curve" smooth="yes"/>
      <point x="1266" y="989"/>
      <point x="1083" y="900"/>
      <point x="1022" y="768" type="curve"/>
      <point x="986" y="928"/>
      <point x="879" y="989"/>
      <point x="726" y="989" type="curve" smooth="yes"/>
      <point x="590" y="989"/>
      <point x="410" y="908"/>
      <point x="352" y="772" type="curve"/>
      <point x="352" y="984" type="line"/>
      <point x="64" y="958" type="line"/>
      <point x="64" y="875" type="line"/>
      <point x="224" y="875" type="line"/>
      <point x="224" y="92" type="line"/>
      <point x="64" y="92" type="line"/>
    </contour>
  </outline>
</glyph>
<glyph name="n" format="1">
  <advance width="1275"/>
  <unicode hex="006E"/>
  <outline>
    <contour>
      <point x="64.0" y="0.0" type="line"/>
      <point x="512.0" y="0.0" type="line"/>
      <point x="512.0" y="92.0" type="line"/>
      <point x="352.0" y="92.0" type="line"/>
      <point x="352.0" y="645.0" type="line" smooth="yes"/>
      <point x="352.0" y="730.0"/>
      <point x="515.0" y="893.0"/>
      <point x="687.0" y="893.0" type="curve" smooth="yes"/>
      <point x="835.0" y="893.0"/>
      <point x="928" y="811"/>
      <point x="928" y="648" type="curve" smooth="yes"/>
      <point x="928" y="0" type="line"/>
      <point x="1248" y="0" type="line"/>
      <point x="1248" y="92" type="line"/>
      <point x="1056" y="92" type="line"/>
      <point x="1056" y="659" type="line" smooth="yes"/>
      <point x="1056" y="901"/>
      <point x="893" y="989"/>
      <point x="709" y="989" type="curve" smooth="yes"/>
      <point x="573" y="989"/>
      <point x="435" y="922"/>
      <point x="352" y="795" type="curve"/>
      <point x="352" y="984" type="line"/>
      <point x="64" y="958" type="line"/>
      <point x="64" y="875" type="line"/>
      <point x="224" y="875" type="line"/>
      <point x="224.0" y="92.0" type="line"/>
      <point x="64.0" y="92.0" type="line"/>
    </contour>
  </outline>
</glyph>
<glyph name="o" format="1">
  <advance width="1066"/>
  <unicode hex="006F"/>
  <outline>
    <contour>
      <point x="531" y="81" type="curve" smooth="yes"/>
      <point x="288" y="81"/>
      <point x="199" y="279"/>
      <point x="199" y="482" type="curve" smooth="yes"/>
      <point x="199" y="687"/>
      <point x="291" y="890"/>
      <point x="531" y="890" type="curve" smooth="yes"/>
      <point x="781" y="890"/>
      <point x="863" y="687"/>
      <point x="863" y="482" type="curve" smooth="yes"/>
      <point x="863" y="279"/>
      <point x="784" y="81"/>
    </contour>
    <contour>
      <point x="531" y="989" type="curve" smooth="yes"/>
      <point x="218" y="989"/>
      <point x="51" y="755"/>
      <point x="51" y="482" type="curve" smooth="yes"/>
      <point x="52" y="212"/>
      <point x="215" y="-18"/>
      <point x="531" y="-18" type="curve" smooth="yes"/>
      <point x="846" y="-18"/>
      <point x="1011" y="213"/>
      <point x="1011" y="484" type="curve" smooth="yes"/>
      <point x="1010" y="756"/>
      <point x="845" y="989"/>
    </contour>
  </outline>
</glyph>
<glyph name="p" format="1">
  <advance width="1203"/>
  <unicode hex="0070"/>
  <outline>
    <contour>
      <point x="694" y="987" type="curve" smooth="yes"/>
      <point x="970" y="987"/>
      <point x="1135" y="798"/>
      <point x="1135" y="488" type="curve" smooth="yes"/>
      <point x="1135" y="104"/>
      <point x="885" y="-20"/>
      <point x="676" y="-20" type="curve" smooth="yes"/>
      <point x="467" y="-20"/>
      <point x="361" y="119"/>
      <point x="335" y="197" type="curve"/>
      <point x="335" y="-275" type="line"/>
      <point x="463" y="-275" type="line"/>
      <point x="463" y="-368" type="line"/>
      <point x="47" y="-368" type="line"/>
      <point x="47" y="-273" type="line"/>
      <point x="207" y="-273" type="line"/>
      <point x="207" y="876" type="line"/>
      <point x="59" y="876" type="line"/>
      <point x="59" y="947" type="line"/>
      <point x="335" y="982" type="line"/>
      <point x="335" y="789" type="line"/>
      <point x="388" y="894"/>
      <point x="494" y="987"/>
    </contour>
    <contour>
      <point x="1007" y="470" type="curve" smooth="yes"/>
      <point x="1007" y="730"/>
      <point x="884" y="891"/>
      <point x="673" y="891" type="curve" smooth="yes"/>
      <point x="592" y="891"/>
      <point x="451" y="870"/>
      <point x="335" y="689" type="curve"/>
      <point x="335" y="388" type="line" smooth="yes"/>
      <point x="335" y="283"/>
      <point x="426" y="76"/>
      <point x="677" y="76" type="curve" smooth="yes"/>
      <point x="933" y="76"/>
      <point x="1007" y="298"/>
    </contour>
  </outline>
</glyph>
<glyph name="q" format="1">
  <advance width="1228"/>
  <unicode hex="0071"/>
  <outline>
    <contour>
      <point x="688" y="-367" type="line"/>
      <point x="1160" y="-367" type="line"/>
      <point x="1160" y="-272" type="line"/>
      <point x="1000" y="-272" type="line"/>
      <point x="1000" y="878" type="line"/>
      <point x="1137" y="878" type="line"/>
      <point x="1137" y="973" type="line"/>
      <point x="908" y="973" type="line"/>
      <point x="857" y="835" type="line"/>
      <point x="783" y="929"/>
      <point x="649" y="984"/>
      <point x="548" y="988" type="curve" smooth="yes"/>
      <point x="262" y="1000"/>
      <point x="80" y="787"/>
      <point x="80" y="486" type="curve" smooth="yes"/>
      <point x="80" y="180"/>
      <point x="269" y="-18"/>
      <point x="536" y="-17" type="curve" smooth="yes"/>
      <point x="757" y="-16"/>
      <point x="838" y="126"/>
      <point x="856" y="166" type="curve"/>
      <point x="856" y="-272" type="line"/>
      <point x="688" y="-272" type="line"/>
    </contour>
    <contour>
      <point x="554" y="82" type="curve" smooth="yes"/>
      <point x="366" y="82"/>
      <point x="226" y="235"/>
      <point x="226" y="508" type="curve" smooth="yes"/>
      <point x="226" y="704"/>
      <point x="339" y="891"/>
      <point x="547" y="891" type="curve" smooth="yes"/>
      <point x="697" y="891"/>
      <point x="809" y="801"/>
      <point x="856" y="755" type="curve"/>
      <point x="856" y="285" type="line"/>
      <point x="826" y="222"/>
      <point x="746" y="82"/>
    </contour>
  </outline>
</glyph>
<glyph name="r" format="1">
  <advance width="857"/>
  <unicode hex="0072"/>
  <outline>
    <contour>
      <point x="793" y="1036" type="curve"/>
      <point x="793" y="730" type="line"/>
      <point x="771" y="733"/>
      <point x="750" y="735"/>
      <point x="727" y="735" type="curve" smooth="yes"/>
      <point x="543" y="735"/>
      <point x="488" y="588"/>
      <point x="488" y="426" type="curve" smooth="yes"/>
      <point x="488" y="250" type="line"/>
      <point x="598" y="250" type="line"/>
      <point x="598" y="51" type="line"/>
      <point x="81" y="51" type="line"/>
      <point x="81" y="250" type="line"/>
      <point x="197" y="250" type="line"/>
      <point x="197" y="812" type="line"/>
      <point x="80" y="812" type="line"/>
      <point x="80" y="986" type="line"/>
      <point x="501" y="1036" type="line"/>
      <point x="501" y="735" type="line"/>
      <point x="574" y="890" type="line"/>
      <point x="613" y="955"/>
      <point x="696" y="1018"/>
    </contour>
  </outline>
</glyph>
<glyph name="s" format="1">
  <advance width="974"/>
  <unicode hex="0073"/>
  <outline>
    <contour>
      <point x="561" y="941" type="curve" smooth="yes"/>
      <point x="527" y="941"/>
      <point x="466" y="923"/>
      <point x="466" y="843" type="curve" smooth="yes"/>
      <point x="466" y="760"/>
      <point x="530" y="731"/>
      <point x="550" y="719" type="curve" smooth="yes"/>
      <point x="703" y="624"/>
      <point x="900" y="588"/>
      <point x="900" y="358" type="curve" smooth="yes"/>
      <point x="900" y="149"/>
      <point x="737" y="33"/>
      <point x="545" y="33" type="curve" smooth="yes"/>
      <point x="438" y="33"/>
      <point x="356" y="72"/>
      <point x="278" y="132" type="curve"/>
      <point x="224" y="169" type="line"/>
      <point x="180" y="51" type="line"/>
      <point x="81" y="51" type="line"/>
      <point x="81" y="345" type="line"/>
      <point x="227" y="345" type="line"/>
      <point x="255" y="251"/>
      <point x="329" y="147"/>
      <point x="427" y="147" type="curve" smooth="yes"/>
      <point x="477" y="147"/>
      <point x="521" y="195"/>
      <point x="521" y="268" type="curve" smooth="yes"/>
      <point x="521" y="350"/>
      <point x="464" y="385"/>
      <point x="442" y="401" type="curve" smooth="yes"/>
      <point x="305" y="498"/>
      <point x="82" y="543"/>
      <point x="82" y="755" type="curve" smooth="yes"/>
      <point x="82" y="938"/>
      <point x="275" y="1040"/>
      <point x="457" y="1040" type="curve" smooth="yes"/>
      <point x="543" y="1040"/>
      <point x="611" y="1008"/>
      <point x="672" y="962" type="curve"/>
      <point x="726" y="928" type="line"/>
      <point x="759" y="1021" type="line"/>
      <point x="849" y="1021" type="line"/>
      <point x="849" y="803" type="line"/>
      <point x="723" y="803" type="line"/>
      <point x="694" y="866"/>
      <point x="645" y="941"/>
    </contour>
  </outline>
</glyph>
<glyph name="t" format="1">
  <advance width="737"/>
  <unicode hex="0074"/>
  <outline>
    <contour>
      <point x="608" y="334" type="curve" smooth="yes"/>
      <point x="625" y="334"/>
      <point x="646" y="336"/>
      <point x="665" y="338" type="curve"/>
      <point x="665" y="134" type="line"/>
      <point x="592" y="105"/>
      <point x="504" y="84"/>
      <point x="414" y="84" type="curve" smooth="yes"/>
      <point x="272" y="84"/>
      <point x="176" y="189"/>
      <point x="176" y="433" type="curve" smooth="yes"/>
      <point x="176" y="881" type="line"/>
      <point x="54" y="881" type="line"/>
      <point x="54" y="1072" type="line"/>
      <point x="176" y="1072" type="line"/>
      <point x="176" y="1311" type="line"/>
      <point x="459" y="1394" type="line"/>
      <point x="459" y="1072" type="line"/>
      <point x="632" y="1072" type="line"/>
      <point x="632" y="881" type="line"/>
      <point x="459" y="881" type="line"/>
      <point x="459" y="489" type="line" smooth="yes"/>
      <point x="459" y="404"/>
      <point x="513" y="334"/>
    </contour>
  </outline>
</glyph>
<glyph name="u" format="1">
  <advance width="1323"/>
  <unicode hex="0075"/>
  <outline>
    <contour>
      <point x="60" y="986" type="line"/>
      <point x="529" y="1036" type="line"/>
      <point x="529" y="394" type="line" smooth="yes"/>
      <point x="529" y="318"/>
      <point x="575" y="243"/>
      <point x="652" y="243" type="curve" smooth="yes"/>
      <point x="733" y="243"/>
      <point x="787" y="317"/>
      <point x="787" y="402" type="curve" smooth="yes"/>
      <point x="787" y="812" type="line"/>
      <point x="700" y="812" type="line"/>
      <point x="700" y="986" type="line"/>
      <point x="1139" y="1036" type="line"/>
      <point x="1139" y="250" type="line"/>
      <point x="1259" y="250" type="line"/>
      <point x="1259" y="51" type="line"/>
      <point x="788" y="51" type="line"/>
      <point x="788" y="329" type="line"/>
      <point x="706" y="184" type="line" smooth="yes"/>
      <point x="656" y="95"/>
      <point x="566" y="33"/>
      <point x="430" y="33" type="curve" smooth="yes"/>
      <point x="250" y="33"/>
      <point x="176" y="150"/>
      <point x="176" y="385" type="curve" smooth="yes"/>
      <point x="176" y="812" type="line"/>
      <point x="60" y="812" type="line"/>
    </contour>
  </outline>
</glyph>
<glyph name="v" format="1">
  <advance width="1263"/>
  <unicode hex="0076"/>
  <outline>
    <contour>
      <point x="56" y="1021" type="line"/>
      <point x="594" y="1021" type="line"/>
      <point x="594" y="812" type="line"/>
      <point x="495" y="812" type="line"/>
      <point x="706" y="137" type="line"/>
      <point x="886" y="812" type="line"/>
      <point x="781" y="812" type="line"/>
      <point x="781" y="1021" type="line"/>
      <point x="1203" y="1021" type="line"/>
      <point x="1203" y="812" type="line"/>
      <point x="1076" y="812" type="line"/>
      <point x="808" y="51" type="line"/>
      <point x="468" y="51" type="line"/>
      <point x="186" y="812" type="line"/>
      <point x="56" y="812" type="line"/>
    </contour>
  </outline>
</glyph>
<glyph name="w" format="1">
  <advance width="1844"/>
  <unicode hex="0077"/>
  <outline>
    <contour>
      <point x="1326" y="194" type="line"/>
      <point x="1474" y="812" type="line"/>
      <point x="1351" y="812" type="line"/>
      <point x="1351" y="1021" type="line"/>
      <point x="1784" y="1021" type="line"/>
      <point x="1784" y="812" type="line"/>
      <point x="1662" y="812" type="line"/>
      <point x="1444" y="51" type="line"/>
      <point x="1075" y="51" type="line"/>
      <point x="923" y="594" type="line"/>
      <point x="747" y="51" type="line"/>
      <point x="405" y="51" type="line"/>
      <point x="175" y="812" type="line"/>
      <point x="56" y="812" type="line"/>
      <point x="56" y="1021" type="line"/>
      <point x="635" y="1021" type="line"/>
      <point x="635" y="812" type="line"/>
      <point x="534" y="812" type="line"/>
      <point x="676" y="203" type="line"/>
      <point x="909" y="1021" type="line"/>
      <point x="1086" y="1021" type="line"/>
    </contour>
  </outline>
</glyph>
<glyph name="x" format="1">
  <advance width="1116"/>
  <unicode hex="0078"/>
  <outline>
    <contour>
      <point x="496" y="365" type="line"/>
      <point x="298" y="51" type="line"/>
      <point x="78" y="51" type="line"/>
      <point x="78" y="250" type="line"/>
      <point x="202" y="250" type="line"/>
      <point x="405" y="510" type="line"/>
      <point x="202" y="812" type="line"/>
      <point x="98" y="812" type="line"/>
      <point x="98" y="1021" type="line"/>
      <point x="479" y="1021" type="line"/>
      <point x="633" y="731" type="line"/>
      <point x="812" y="1021" type="line"/>
      <point x="1009" y="1021" type="line"/>
      <point x="1009" y="812" type="line"/>
      <point x="907" y="812" type="line"/>
      <point x="719" y="584" type="line"/>
      <point x="933" y="250" type="line"/>
      <point x="1040" y="250" type="line"/>
      <point x="1040" y="51" type="line"/>
      <point x="672" y="51" type="line"/>
    </contour>
  </outline>
</glyph>
<glyph name="y" format="1">
  <advance width="1335"/>
  <unicode hex="0079"/>
  <outline>
    <contour>
      <point x="900" y="-164" type="line"/>
      <point x="737" y="-164" type="line"/>
      <point x="1185" y="761" type="line"/>
      <point x="1274" y="761" type="line"/>
      <point x="1274" y="970" type="line"/>
      <point x="842" y="970" type="line"/>
      <point x="842" y="761" type="line"/>
      <point x="966" y="761" type="line"/>
      <point x="762" y="292" type="line"/>
      <point x="540" y="761" type="line"/>
      <point x="656" y="761" type="line"/>
      <point x="656" y="970" type="line"/>
      <point x="58" y="970" type="line"/>
      <point x="58" y="761" type="line"/>
      <point x="163" y="761" type="line"/>
      <point x="617" y="-19" type="line"/>
      <point x="542" y="-164" type="line"/>
      <point x="384" y="-164" type="line"/>
      <point x="384" y="-377" type="line"/>
      <point x="900" y="-377" type="line"/>
    </contour>
  </outline>
</glyph>
<glyph name="z" format="1">
  <advance width="1038"/>
  <unicode hex="007A"/>
  <outline>
    <contour>
      <point x="79" y="51" type="line"/>
      <point x="960" y="51" type="line"/>
      <point x="960" y="400" type="line"/>
      <point x="869" y="400" type="line"/>
      <point x="834" y="243" type="line"/>
      <point x="456" y="243" type="line"/>
      <point x="924" y="815" type="line"/>
      <point x="924" y="1021" type="line"/>
      <point x="106" y="1021" type="line"/>
      <point x="106" y="687" type="line"/>
      <point x="219" y="687" type="line"/>
      <point x="283" y="830" type="line"/>
      <point x="578" y="830" type="line"/>
      <point x="79" y="262" type="line"/>
    </contour>
  </outline>
</glyph>
<glyph name="braceleft" format="1">
  <advance width="654"/>
  <unicode hex="007B"/>
  <outline>
    <contour>
      <point x="134.622" y="768.229" type="curve"/>
      <point x="134.622" y="915.938" type="line"/>
      <point x="239.152" y="933.868"/>
      <point x="286.067" y="1009.22"/>
      <point x="286.067" y="1125" type="curve" smooth="yes"/>
      <point x="286.067" y="1456.93"/>
      <point x="433.686" y="1632.83"/>
      <point x="740.622" y="1649.73" type="curve"/>
      <point x="740.622" y="1416.5" type="line"/>
      <point x="622.181" y="1389"/>
      <point x="578.622" y="1272.43"/>
      <point x="578.622" y="1125" type="curve" smooth="yes"/>
      <point x="578.622" y="1025.57"/>
      <point x="518.479" y="947.208"/>
      <point x="401.079" y="888.823" type="curve"/>
      <point x="310.229" y="840.741" type="line"/>
      <point x="401.196" y="793.115" type="line"/>
      <point x="518.715" y="735.333"/>
      <point x="578.622" y="657.573"/>
      <point x="578.622" y="559" type="curve" smooth="yes"/>
      <point x="578.622" y="410.75"/>
      <point x="623.394" y="294.722"/>
      <point x="740.622" y="267.496" type="curve"/>
      <point x="740.622" y="34.2598" type="line"/>
      <point x="432.236" y="51.2422"/>
      <point x="286.767" y="227.51"/>
      <point x="286.767" y="559" type="curve" smooth="yes"/>
      <point x="286.767" y="676.03"/>
      <point x="238.657" y="750.762"/>
    </contour>
    <contour>
      <point x="134.622" y="1020.87" type="line"/>
      <point x="134.622" y="1279.28" type="line"/>
      <point x="11" y="908.409" type="line"/>
      <point x="31.8418" y="909.154" type="line"/>
    </contour>
  </outline>
</glyph>
<glyph name="asciitilde" format="1">
  <advance width="1066"/>
  <unicode hex="007E"/>
  <outline>
    <contour>
      <point x="728.969970703" y="682.0" type="curve" smooth="yes"/>
      <point x="746.461975098" y="682" type="line"/>
      <point x="747.302001953" y="680.984985352" type="line"/>
      <point x="881.223999023" y="695.12097168"/>
      <point x="923.979003906" y="861.304016113"/>
      <point x="1006.59002686" y="1015.22998047" type="curve"/>
      <point x="956.219970703" y="1048.42004395" type="line"/>
      <point x="901.953979492" y="984.408996582"/>
      <point x="863.081970215" y="941.736999512"/>
      <point x="835.42401123" y="918.176025391" type="curve" smooth="yes"/>
      <point x="805.971984863" y="893.086975098"/>
      <point x="775.463012695" y="871.0"/>
      <point x="740.562011719" y="871.0" type="curve" smooth="yes"/>
      <point x="547.502990723" y="871.0"/>
      <point x="481.390991211" y="1070.0"/>
      <point x="302.542999268" y="1070.0" type="curve" smooth="yes"/>
      <point x="151.979003906" y="1070.0"/>
      <point x="110.503997803" y="897.95501709"/>
      <point x="24.0" y="735.940979004" type="curve"/>
      <point x="76.5282897949" y="701.458007812" type="line"/>
      <point x="132.735992432" y="767.672973633"/>
      <point x="173.481002808" y="813.192016602"/>
      <point x="198.802001953" y="836.513000488" type="curve" smooth="yes"/>
      <point x="226.990997314" y="862.416992188"/>
      <point x="259.006988525" y="884.0"/>
      <point x="293.434997559" y="884.0" type="curve" smooth="yes"/>
      <point x="494.45098877" y="884.0"/>
      <point x="541.71697998" y="682.0"/>
    </contour>
  </outline>
</glyph>
<glyph name="exclamdown" format="1">
  <advance width="587"/>
  <unicode hex="00A1"/>
  <outline>
    <contour>
      <point x="53" y="51" type="line"/>
      <point x="538" y="51" type="line"/>
      <point x="538" y="296.237" type="line"/>
      <point x="459.218" y="1021.22" type="line"/>
      <point x="129.865" y="1022.78" type="line"/>
      <point x="53" y="296.31" type="line"/>
    </contour>
    <contour>
      <point x="280.379" y="1208.21" type="curve"/>
      <point x="281.961" y="1209" type="line"/>
      <point x="294" y="1209" type="line" smooth="yes"/>
      <point x="433.259" y="1209"/>
      <point x="529" y="1285.35"/>
      <point x="529" y="1408" type="curve" smooth="yes"/>
      <point x="529" y="1529.71"/>
      <point x="436.118" y="1602"/>
      <point x="293" y="1602" type="curve" smooth="yes"/>
      <point x="155.544" y="1602"/>
      <point x="66" y="1528.92"/>
      <point x="66" y="1408" type="curve" smooth="yes"/>
      <point x="66" y="1288.62"/>
      <point x="152.074" y="1213.13"/>
    </contour>
  </outline>
</glyph>
<glyph name="sterling" format="1">
  <advance width="1031"/>
  <unicode hex="00A3"/>
  <outline>
    <contour>
      <point x="560.028015137" y="327.864013672" type="line"/>
      <point x="560.028015137" y="811.0" type="line"/>
      <point x="772.0" y="811.0" type="line"/>
      <point x="772.0" y="942.0" type="line"/>
      <point x="560.028015137" y="942.0" type="line"/>
      <point x="560.028015137" y="1117.0" type="line" smooth="yes"/>
      <point x="560.028015137" y="1283.56005859"/>
      <point x="683.414001465" y="1315.0"/>
      <point x="799.0" y="1315.0" type="curve" smooth="yes"/>
      <point x="852.713989258" y="1315.0"/>
      <point x="902.273010254" y="1312.33996582"/>
      <point x="955.0" y="1307.55004883" type="curve"/>
      <point x="955.0" y="1524.7199707" type="line"/>
      <point x="881.690002441" y="1545.67004395"/>
      <point x="792.429016113" y="1557.0"/>
      <point x="698.92401123" y="1557.0" type="curve" smooth="yes"/>
      <point x="458.407012939" y="1557.0"/>
      <point x="248.0" y="1456.80004883"/>
      <point x="248.0" y="1207.0" type="curve" smooth="yes"/>
      <point x="248.0" y="942.0" type="line"/>
      <point x="124.0" y="942.0" type="line"/>
      <point x="124.0" y="811.0" type="line"/>
      <point x="248.0" y="811.0" type="line"/>
      <point x="248.0" y="520.0" type="line" smooth="yes"/>
      <point x="248.0" y="410.039001465"/>
      <point x="236.175994873" y="275.0"/>
      <point x="87.0" y="275.0" type="curve" smooth="yes"/>
      <point x="72.5977020264" y="275.0"/>
      <point x="58.1073913574" y="275.984985352"/>
      <point x="42.0" y="277.955993652" type="curve"/>
      <point x="42.0" y="67.0527038574" type="line"/>
      <point x="134.479995728" y="43.1143035889"/>
      <point x="214.61000061" y="31.0"/>
      <point x="274.0" y="31.0" type="curve" smooth="yes"/>
      <point x="396.294006348" y="31.0"/>
      <point x="472.488006592" y="80.6981964111"/>
      <point x="520.193969727" y="178.20199585" type="curve" smooth="yes"/>
      <point x="588.0" y="316.820007324" type="line"/>
    </contour>
    <contour>
      <point x="597.611999512" y="313.024993896" type="curve"/>
      <point x="597.611999512" y="152.0" type="line" smooth="yes"/>
      <point x="597.611999512" y="77.4198913574"/>
      <point x="632.051025391" y="32.0"/>
      <point x="768.0" y="32.0" type="curve" smooth="yes"/>
      <point x="840.318969727" y="32.0"/>
      <point x="913.763977051" y="42.9541015625"/>
      <point x="989.0" y="65.2655944824" type="curve"/>
      <point x="989.0" y="283.726013184" type="line"/>
      <point x="945.74798584" y="280.717987061"/>
      <point x="902.317993164" y="279.0"/>
      <point x="865.0" y="279.0" type="curve" smooth="yes"/>
      <point x="758.306030273" y="279.0"/>
      <point x="668.12701416" y="285.182006836"/>
    </contour>
  </outline>
</glyph>
<glyph name="section" format="1">
  <advance width="812"/>
  <unicode hex="00A7"/>
  <outline>
    <contour>
      <point x="438.025" y="33" type="curve" smooth="yes"/>
      <point x="564.553" y="33"/>
      <point x="710" y="156.568"/>
      <point x="710" y="295" type="curve" smooth="yes"/>
      <point x="710" y="382.053"/>
      <point x="669.799" y="450.809"/>
      <point x="573.482" y="509.436" type="curve"/>
      <point x="487.545" y="568.956" type="line"/>
      <point x="585.346" y="601.85" type="line"/>
      <point x="684.626" y="631.633"/>
      <point x="761" y="723.647"/>
      <point x="761" y="852" type="curve" smooth="yes"/>
      <point x="761" y="1002.38"/>
      <point x="601.478" y="1082.04"/>
      <point x="484.076" y="1158.14" type="curve" smooth="yes"/>
      <point x="438.551" y="1187.64"/>
      <point x="321.055" y="1241.13"/>
      <point x="321.055" y="1373" type="curve" smooth="yes"/>
      <point x="321.055" y="1446.41"/>
      <point x="358.502" y="1514"/>
      <point x="414.211" y="1514" type="curve" smooth="yes"/>
      <point x="471.103" y="1514"/>
      <point x="496.441" y="1455.36"/>
      <point x="518.656" y="1414.81" type="curve"/>
      <point x="548.896" y="1348" type="line"/>
      <point x="666" y="1348" type="line"/>
      <point x="666" y="1569" type="line"/>
      <point x="579.706" y="1569" type="line"/>
      <point x="534.765" y="1484.11" type="line"/>
      <point x="494.716" y="1532.94" type="line" smooth="yes"/>
      <point x="473.624" y="1558.65"/>
      <point x="401.502" y="1583"/>
      <point x="335.764" y="1583" type="curve" smooth="yes"/>
      <point x="197.382" y="1583"/>
      <point x="60" y="1481.84"/>
      <point x="60" y="1351" type="curve" smooth="yes"/>
      <point x="60" y="1279.92"/>
      <point x="100.63" y="1208.17"/>
      <point x="203.667" y="1134.48" type="curve"/>
      <point x="280.787" y="1078.1" type="line"/>
      <point x="191.387" y="1045.05" type="line" smooth="yes"/>
      <point x="120.718" y="1018.93"/>
      <point x="54.3828" y="963.858"/>
      <point x="31" y="891.358" type="curve"/>
      <point x="31" y="837" type="line" smooth="yes"/>
      <point x="31" y="768.974"/>
      <point x="71.3251" y="711.309"/>
      <point x="117.261" y="671.663" type="curve" smooth="yes"/>
      <point x="203.064" y="597.608"/>
      <point x="307.348" y="538.581"/>
      <point x="382.267" y="467.367" type="curve" smooth="yes"/>
      <point x="413.685" y="437.502"/>
      <point x="470.945" y="381.066"/>
      <point x="470.945" y="286" type="curve" smooth="yes"/>
      <point x="470.945" y="201.506"/>
      <point x="418.623" y="158"/>
      <point x="373.586" y="158" type="curve" smooth="yes"/>
      <point x="294.681" y="158"/>
      <point x="224.774" y="240.694"/>
      <point x="194.643" y="328" type="curve"/>
      <point x="64" y="328" type="line"/>
      <point x="64" y="52" type="line"/>
      <point x="152.507" y="52" type="line"/>
      <point x="206.873" y="153.182" type="line"/>
      <point x="255.404" y="103.718" type="line" smooth="yes"/>
      <point x="302.835" y="55.3756"/>
      <point x="349.613" y="33"/>
    </contour>
    <contour>
      <point x="459.332" y="627.67" type="line"/>
      <point x="403.322" y="660.418"/>
      <point x="237" y="724.603"/>
      <point x="237" y="875" type="curve" smooth="yes"/>
      <point x="237" y="956.134"/>
      <point x="301.932" y="1003.91"/>
      <point x="356.233" y="1041.91" type="curve"/>
      <point x="399.799" y="1010.81"/>
      <point x="567" y="972.589"/>
      <point x="567" y="817" type="curve" smooth="yes"/>
      <point x="567" y="744.502"/>
      <point x="523.581" y="685.077"/>
      <point x="475.028" y="642.262" type="curve"/>
    </contour>
  </outline>
</glyph>
<glyph name="dieresis" format="1">
  <advance width="980"/>
  <unicode hex="00A8"/>
  <outline>
    <contour>
      <point x="379.544006348" y="1453.0" type="curve" smooth="yes"/>
      <point x="379.544006348" y="1343.33996582"/>
      <point x="326.221984863" y="1273.0"/>
      <point x="228.0" y="1273.0" type="curve" smooth="yes"/>
      <point x="117.936004639" y="1273.0"/>
      <point x="52.0" y="1342.34997559"/>
      <point x="52.0" y="1455.0" type="curve" smooth="yes"/>
      <point x="52.0" y="1563.26000977"/>
      <point x="119.585998535" y="1631.0"/>
      <point x="227.0" y="1631.0" type="curve" smooth="yes"/>
      <point x="328.395996094" y="1631.0"/>
      <point x="379.544006348" y="1564.04003906"/>
    </contour>
    <contour>
      <point x="915.0" y="1452.0" type="curve" smooth="yes"/>
      <point x="915.0" y="1342.33996582"/>
      <point x="847.036987305" y="1272.0"/>
      <point x="741.0" y="1272.0" type="curve" smooth="yes"/>
      <point x="639.187011719" y="1272.0"/>
      <point x="587.455993652" y="1341.34997559"/>
      <point x="587.455993652" y="1454.0" type="curve" smooth="yes"/>
      <point x="587.455993652" y="1562.26000977"/>
      <point x="640.481994629" y="1630.0"/>
      <point x="740.0" y="1630.0" type="curve" smooth="yes"/>
      <point x="849.807983398" y="1630.0"/>
      <point x="915.0" y="1563.04003906"/>
    </contour>
  </outline>
</glyph>
<glyph name="copyright" format="1">
  <advance width="1566"/>
  <unicode hex="00A9"/>
  <outline>
    <contour>
      <point x="1071.05004883" y="414.204986572" type="curve"/>
      <point x="1071.05004883" y="605.0" type="line"/>
      <point x="986.437011719" y="605.0" type="line"/>
      <point x="972.758972168" y="510.962005615"/>
      <point x="914.406982422" y="434.0"/>
      <point x="812.807983398" y="434.0" type="curve" smooth="yes"/>
      <point x="651.606018066" y="434.0"/>
      <point x="622.523010254" y="603.49798584"/>
      <point x="622.523010254" y="731.0" type="curve" smooth="yes"/>
      <point x="622.523010254" y="840.0" type="line" smooth="yes"/>
      <point x="622.523010254" y="959.193969727"/>
      <point x="647.734985352" y="1136.0"/>
      <point x="805.559020996" y="1136.0" type="curve" smooth="yes"/>
      <point x="912.638977051" y="1136.0"/>
      <point x="970.268005371" y="1043.11999512"/>
      <point x="982.383972168" y="946.0" type="curve"/>
      <point x="1063.80004883" y="946.0" type="line"/>
      <point x="1063.80004883" y="1245.0" type="line"/>
      <point x="960.356018066" y="1245.0" type="line"/>
      <point x="924.895996094" y="1164.94995117" type="line"/>
      <point x="879.151977539" y="1214.66003418" type="line" smooth="yes"/>
      <point x="853.875" y="1242.13000488"/>
      <point x="798.820007324" y="1264.0"/>
      <point x="704.979980469" y="1264.0" type="curve" smooth="yes"/>
      <point x="472.04800415" y="1264.0"/>
      <point x="358.842010498" y="1056.70996094"/>
      <point x="358.842010498" y="774.0" type="curve" smooth="yes"/>
      <point x="358.842010498" y="474.381011963"/>
      <point x="493.183013916" y="296.0"/>
      <point x="753.909973145" y="296.0" type="curve" smooth="yes"/>
      <point x="871.750976562" y="296.0"/>
      <point x="1019.71002197" y="344.945007324"/>
    </contour>
    <contour>
      <point x="273.32598877" y="256.783996582" type="curve" smooth="yes"/>
      <point x="392.074005127" y="137.833999634"/>
      <point x="569.689025879" y="33.0"/>
      <point x="782.0" y="33.0" type="curve" smooth="yes"/>
      <point x="997.026977539" y="33.0"/>
      <point x="1171.18005371" y="136.061004639"/>
      <point x="1290.67004395" y="255.783996582" type="curve" smooth="yes"/>
      <point x="1412.25" y="377.587005615"/>
      <point x="1520.0" y="562.971984863"/>
      <point x="1520.0" y="791.0" type="curve" smooth="yes"/>
      <point x="1520.0" y="1019.26000977"/>
      <point x="1412.42004395" y="1204.25"/>
      <point x="1290.67004395" y="1326.2199707" type="curve" smooth="yes"/>
      <point x="1171.31005859" y="1445.80004883"/>
      <point x="996.835998535" y="1549.0"/>
      <point x="782.0" y="1549.0" type="curve" smooth="yes"/>
      <point x="685.224975586" y="1549.0"/>
      <point x="592.742980957" y="1528.70996094"/>
      <point x="503.37600708" y="1487.88000488" type="curve" smooth="yes"/>
      <point x="265.527008057" y="1379.82995605"/>
      <point x="44.0" y="1146.51000977"/>
      <point x="44.0" y="792.0" type="curve" smooth="yes"/>
      <point x="44.0" y="563.739013672"/>
      <point x="151.576004028" y="378.740997314"/>
    </contour>
    <contour>
      <point x="781.093994141" y="79.0" type="curve" smooth="yes"/>
      <point x="585.79901123" y="79.0"/>
      <point x="427.915008545" y="175.56199646"/>
      <point x="321.907989502" y="286.638000488" type="curve" smooth="yes"/>
      <point x="212.787994385" y="400.976013184"/>
      <point x="114.0" y="575.646972656"/>
      <point x="114.0" y="788.0" type="curve" smooth="yes"/>
      <point x="114.0" y="999.856018066"/>
      <point x="212.695999146" y="1175.90002441"/>
      <point x="321.006011963" y="1289.36999512" type="curve" smooth="yes"/>
      <point x="426.677001953" y="1400.06994629"/>
      <point x="584.583007812" y="1497.0"/>
      <point x="780.187988281" y="1497.0" type="curve" smooth="yes"/>
      <point x="781.093994141" y="1497.0" type="line" smooth="yes"/>
      <point x="1143.93005371" y="1497.0"/>
      <point x="1447.0" y="1190.08996582"/>
      <point x="1447.0" y="788.0" type="curve" smooth="yes"/>
      <point x="1447.0" y="386.533996582"/>
      <point x="1145.5300293" y="79.0"/>
    </contour>
  </outline>
</glyph>
<glyph name="guillemotleft" format="1">
  <advance width="1110"/>
  <unicode hex="00AB"/>
  <outline>
    <contour>
      <point x="399.298" y="69.0049" type="line"/>
      <point x="504.029" y="216.246" type="line"/>
      <point x="227.875" y="534" type="line"/>
      <point x="504.029" y="851.754" type="line"/>
      <point x="399.298" y="998.995" type="line"/>
      <point x="49" y="647.079" type="line"/>
      <point x="49" y="420.921" type="line"/>
    </contour>
    <contour>
      <point x="928.079" y="69.0049" type="line"/>
      <point x="1053.63" y="216.246" type="line"/>
      <point x="747.813" y="534" type="line"/>
      <point x="1053.63" y="851.754" type="line"/>
      <point x="928.079" y="998.995" type="line"/>
      <point x="598.6" y="647.079" type="line"/>
      <point x="598.6" y="420.921" type="line"/>
    </contour>
  </outline>
</glyph>
<glyph name="logicalnot" format="1">
  <advance width="933"/>
  <unicode hex="00AC"/>
  <outline>
    <contour>
      <point x="56" y="1041" type="line"/>
      <point x="862.846008301" y="1041" type="line"/>
      <point x="862.846008301" y="593" type="line"/>
      <point x="733.846008301" y="593" type="line"/>
      <point x="733.846008301" y="812" type="line"/>
      <point x="56.69140625" y="812" type="line"/>
    </contour>
  </outline>
</glyph>
<glyph name="uni00AD" format="1">
  <advance width="676"/>
  <unicode hex="00AD"/>
  <outline>
    <contour>
      <point x="611" y="785" type="line"/>
      <point x="611" y="588" type="line"/>
      <point x="66" y="588" type="line"/>
      <point x="66" y="785" type="line"/>
    </contour>
  </outline>
</glyph>
<glyph name="registered" format="1">
  <advance width="1566"/>
  <unicode hex="00AE"/>
  <outline>
    <contour>
      <point x="1081.93" y="618" type="line" smooth="yes"/>
      <point x="1081.93" y="561.325"/>
      <point x="1115.39" y="518.092"/>
      <point x="1165.29" y="510.469" type="curve"/>
      <point x="1165.29" y="411" type="line"/>
      <point x="1046.59" y="411" type="line" smooth="yes"/>
      <point x="956.43" y="411"/>
      <point x="927.885" y="430.491"/>
      <point x="927.885" y="502" type="curve" smooth="yes"/>
      <point x="927.885" y="611" type="line" smooth="yes"/>
      <point x="927.885" y="704.295"/>
      <point x="898.122" y="798"/>
      <point x="786.531" y="798" type="curve" smooth="yes"/>
      <point x="691.388" y="798" type="line"/>
      <point x="691.388" y="515" type="line"/>
      <point x="752.098" y="515" type="line"/>
      <point x="752.098" y="411" type="line"/>
      <point x="630.678" y="411" type="line" smooth="yes"/>
      <point x="574.808" y="411"/>
      <point x="509.174" y="410.764"/>
      <point x="437.675" y="410.314" type="curve"/>
      <point x="437.675" y="511" type="line"/>
      <point x="514.695" y="511" type="line"/>
      <point x="514.695" y="1109" type="line"/>
      <point x="436.769" y="1109" type="line"/>
      <point x="436.769" y="1211" type="line"/>
      <point x="901.608" y="1211" type="line" smooth="yes"/>
      <point x="1055.51" y="1211"/>
      <point x="1123.61" y="1159.73"/>
      <point x="1123.61" y="1011" type="curve" smooth="yes"/>
      <point x="1123.61" y="922.3"/>
      <point x="1070.15" y="875.876"/>
      <point x="980.921" y="859.292" type="curve" smooth="yes"/>
      <point x="843.552" y="833.759" type="line"/>
      <point x="899.86" y="853.596"/>
      <point x="938.759" y="898.762"/>
      <point x="938.759" y="970" type="curve" smooth="yes"/>
      <point x="938.759" y="1061.85"/>
      <point x="872.92" y="1119"/>
      <point x="796.498" y="1119" type="curve" smooth="yes"/>
      <point x="688.67" y="1119" type="line"/>
      <point x="688.67" y="821" type="line"/>
      <point x="774.908" y="821" type="line"/>
      <point x="752.923" y="816.914" type="line"/>
      <point x="978.164" y="759.316" type="line" smooth="yes"/>
      <point x="1053.29" y="740.106"/>
      <point x="1081.93" y="717.83"/>
      <point x="1081.93" y="670" type="curve" smooth="yes"/>
    </contour>
    <contour>
      <point x="273.326" y="256.784" type="curve" smooth="yes"/>
      <point x="151.576" y="378.741"/>
      <point x="44" y="563.739"/>
      <point x="44" y="792" type="curve" smooth="yes"/>
      <point x="44" y="1146.51"/>
      <point x="265.527" y="1379.83"/>
      <point x="503.376" y="1487.88" type="curve" smooth="yes"/>
      <point x="592.743" y="1528.71"/>
      <point x="685.225" y="1549"/>
      <point x="782" y="1549" type="curve" smooth="yes"/>
      <point x="996.836" y="1549"/>
      <point x="1171.31" y="1445.8"/>
      <point x="1290.67" y="1326.22" type="curve" smooth="yes"/>
      <point x="1412.42" y="1204.25"/>
      <point x="1520" y="1019.26"/>
      <point x="1520" y="791" type="curve" smooth="yes"/>
      <point x="1520" y="562.972"/>
      <point x="1412.25" y="377.587"/>
      <point x="1290.67" y="255.784" type="curve" smooth="yes"/>
      <point x="1171.18" y="136.061"/>
      <point x="997.027" y="33"/>
      <point x="782" y="33" type="curve" smooth="yes"/>
      <point x="569.689" y="33"/>
      <point x="392.074" y="137.834"/>
    </contour>
    <contour>
      <point x="781.094" y="79" type="curve" smooth="yes"/>
      <point x="1145.53" y="79"/>
      <point x="1447" y="386.534"/>
      <point x="1447" y="788" type="curve" smooth="yes"/>
      <point x="1447" y="1190.09"/>
      <point x="1143.93" y="1497"/>
      <point x="781.094" y="1497" type="curve" smooth="yes"/>
      <point x="780.188" y="1497" type="line" smooth="yes"/>
      <point x="584.583" y="1497"/>
      <point x="426.677" y="1400.07"/>
      <point x="321.006" y="1289.37" type="curve" smooth="yes"/>
      <point x="212.696" y="1175.9"/>
      <point x="114" y="999.856"/>
      <point x="114" y="788" type="curve" smooth="yes"/>
      <point x="114" y="575.647"/>
      <point x="212.788" y="400.976"/>
      <point x="321.908" y="286.638" type="curve" smooth="yes"/>
      <point x="427.915" y="175.562"/>
      <point x="585.799" y="79"/>
    </contour>
    <contour>
      <point x="843.552" y="833.759" type="curve"/>
      <point x="774.908" y="821" type="line"/>
      <point x="784.832" y="821" type="line"/>
      <point x="786.241" y="822.556" type="line"/>
      <point x="806.61" y="823.825"/>
      <point x="825.933" y="827.552"/>
    </contour>
  </outline>
</glyph>
<glyph name="degree" format="1">
  <advance width="706"/>
  <unicode hex="00B0"/>
  <outline>
    <contour>
      <point x="603.0" y="1297.0" type="curve" smooth="yes"/>
      <point x="603" y="1190.26000977"/>
      <point x="542.125976562" y="1100.59997559"/>
      <point x="446.778015137" y="1062.34997559" type="curve"/>
      <point x="468.125" y="1041.0" type="line"/>
      <point x="345.0" y="1041.0" type="line" smooth="yes"/>
      <point x="197.610992432" y="1041.0"/>
      <point x="93.0" y="1156.25"/>
      <point x="93.0" y="1297.0" type="curve" smooth="yes"/>
      <point x="93.0" y="1437.77001953"/>
      <point x="198.332000732" y="1547.0"/>
      <point x="344.0" y="1547.0" type="curve" smooth="yes"/>
      <point x="489.596984863" y="1547.0"/>
      <point x="603.0" y="1442.73999023"/>
    </contour>
    <contour>
      <point x="344.0" y="1583.0" type="curve" smooth="yes"/>
      <point x="160.884002686" y="1583.0"/>
      <point x="42.0" y="1472.07995605"/>
      <point x="42.0" y="1296.0" type="curve" smooth="yes"/>
      <point x="42.0" y="1134.85998535"/>
      <point x="137.311004639" y="1026.13000488"/>
      <point x="288.490997314" y="1004.0" type="curve"/>
      <point x="343.0" y="1004.0" type="line" smooth="yes"/>
      <point x="531.317993164" y="1004.0"/>
      <point x="658.0" y="1119.45996094"/>
      <point x="658.0" y="1300.0" type="curve" smooth="yes"/>
      <point x="658.0" y="1474.7199707"/>
      <point x="534.856994629" y="1583.0"/>
    </contour>
  </outline>
</glyph>
<glyph name="plusminus" format="1">
  <advance width="712"/>
  <unicode hex="00B1"/>
  <outline>
    <contour>
      <point x="285" y="329" type="line"/>
      <point x="438" y="329" type="line"/>
      <point x="438" y="568" type="line"/>
      <point x="663" y="568" type="line"/>
      <point x="663" y="711" type="line"/>
      <point x="438" y="711" type="line"/>
      <point x="438" y="980" type="line"/>
      <point x="285" y="980" type="line"/>
      <point x="285" y="711" type="line"/>
      <point x="53" y="711" type="line"/>
      <point x="53" y="568" type="line"/>
      <point x="285" y="568" type="line"/>
    </contour>
    <contour>
      <point x="83" y="50" type="line"/>
      <point x="628" y="50" type="line"/>
      <point x="628" y="172" type="line"/>
      <point x="83" y="172" type="line"/>
    </contour>
  </outline>
</glyph>
<glyph name="acute" format="1">
  <advance width="652"/>
  <unicode hex="00B4"/>
  <outline>
    <contour>
      <point x="564.017028809" y="1539.88000488" type="line"/>
      <point x="98.05859375" y="1276.61999512" type="line"/>
      <point x="48.0" y="1344.48999023" type="line"/>
      <point x="445.334014893" y="1710.81005859" type="line"/>
    </contour>
  </outline>
</glyph>
<glyph name="paragraph" format="1">
  <advance width="1257"/>
  <unicode hex="00B6"/>
  <outline>
    <contour>
      <point x="526.32598877" y="789.994995117" type="curve"/>
      <point x="615.749023438" y="687.0" type="line"/>
      <point x="615.749023438" y="312.0" type="line"/>
      <point x="488.82699585" y="312.0" type="line"/>
      <point x="488.82699585" y="51.0" type="line"/>
      <point x="762.664978027" y="51.0" type="line"/>
      <point x="762.664978027" y="1321.0" type="line"/>
      <point x="960.002990723" y="1321.0" type="line"/>
      <point x="960.002990723" y="51.0" type="line"/>
      <point x="1259.0" y="51.0" type="line"/>
      <point x="1259.0" y="312.0" type="line"/>
      <point x="1103.0" y="312.0" type="line"/>
      <point x="1103.0" y="1319.0" type="line"/>
      <point x="1254.0" y="1319.0" type="line"/>
      <point x="1254.0" y="1572.04003906" type="line"/>
      <point x="1083.55004883" y="1572.29003906"/>
      <point x="923.164001465" y="1573.65002441"/>
      <point x="774.393981934" y="1572.0" type="curve" smooth="yes"/>
      <point x="391.17300415" y="1567.76000977"/>
      <point x="94.2514038086" y="1549.04003906"/>
      <point x="88.9941101074" y="1165.20996094" type="curve" smooth="yes"/>
      <point x="84.3359069824" y="892.687011719"/>
      <point x="263.399993896" y="800.898010254"/>
    </contour>
  </outline>
</glyph>
<glyph name="periodcentered" format="1">
  <advance width="568"/>
  <unicode hex="00B7"/>
  <outline>
    <contour>
      <point x="277.0" y="958.0" type="curve" smooth="yes"/>
      <point x="139.544006348" y="958"/>
      <point x="50.0" y="884.924987793"/>
      <point x="50.0" y="764.0" type="curve" smooth="yes"/>
      <point x="50.0" y="644.617980957"/>
      <point x="136.074005127" y="569.12701416"/>
      <point x="264.378997803" y="564.208984375" type="curve"/>
      <point x="265.960998535" y="565.0" type="line"/>
      <point x="278.0" y="565.0" type="line" smooth="yes"/>
      <point x="417.259002686" y="565.0"/>
      <point x="513.0" y="641.348022461"/>
      <point x="513.0" y="764.0" type="curve" smooth="yes"/>
      <point x="513.0" y="885.70501709"/>
      <point x="420.118011475" y="958.0"/>
    </contour>
  </outline>
</glyph>
<glyph name="cedilla" format="1">
  <advance width="410"/>
  <unicode hex="00B8"/>
  <outline>
    <contour>
      <point x="214" y="-51" type="line"/>
      <point x="137" y="-51" type="line"/>
      <point x="137" y="-90.6230010986" type="line"/>
      <point x="184.854003906" y="-123.751022339"/>
      <point x="247.0" y="-185.042022705"/>
      <point x="247.0" y="-272.000015259" type="curve" smooth="yes"/>
      <point x="247.0" y="-383.093002319"/>
      <point x="137.617996216" y="-414.01701355"/>
      <point x="60.0" y="-422.060012817" type="curve"/>
      <point x="60.0" y="-435.264022827" type="line"/>
      <point x="212.408996582" y="-427.89201355"/>
      <point x="347.0" y="-367.640029907"/>
      <point x="347.0" y="-287.000015259" type="curve" smooth="yes"/>
      <point x="347.0" y="-256.19102478"/>
      <point x="323.316009521" y="-214.062011719"/>
      <point x="239.697006226" y="-166.280014038" type="curve" smooth="yes"/>
      <point x="214.0" y="-151.597015381" type="line"/>
    </contour>
  </outline>
</glyph>
<glyph name="ordmasculine" format="1">
  <advance width="789"/>
  <unicode hex="00BA"/>
  <outline>
    <contour>
      <point x="494.082" y="685" type="curve" smooth="yes"/>
      <point x="494.082" y="765.836"/>
      <point x="489.494" y="910"/>
      <point x="395.17" y="910" type="curve" smooth="yes"/>
      <point x="314.579" y="910"/>
      <point x="297.748" y="798.408"/>
      <point x="294.762" y="723.013" type="curve"/>
      <point x="291" y="721.759" type="line"/>
      <point x="291" y="685" type="line" smooth="yes"/>
      <point x="291" y="561.019"/>
      <point x="317.652" y="449"/>
      <point x="393.192" y="449" type="curve" smooth="yes"/>
      <point x="468.884" y="449"/>
      <point x="494.082" y="560.711"/>
    </contour>
    <contour>
      <point x="395.83" y="1040" type="curve" smooth="yes"/>
      <point x="593.744" y="1040"/>
      <point x="740" y="921.234"/>
      <point x="740" y="688" type="curve" smooth="yes"/>
      <point x="740" y="455.775"/>
      <point x="585.508" y="322"/>
      <point x="395.17" y="322" type="curve" smooth="yes"/>
      <point x="214.375" y="322"/>
      <point x="64.9033" y="445.176"/>
      <point x="51" y="656.509" type="curve"/>
      <point x="51" y="688" type="line" smooth="yes"/>
      <point x="51" y="920.477"/>
      <point x="199.102" y="1040"/>
    </contour>
  </outline>
</glyph>
<glyph name="guillemotright" format="1">
  <advance width="1107"/>
  <unicode hex="00BB"/>
  <outline>
    <contour>
      <point x="493.028991699" y="420.92098999" type="line"/>
      <point x="163.54901123" y="69.0049133301" type="line"/>
      <point x="38.0000152588" y="216.246017456" type="line"/>
      <point x="343.81602478" y="534.000015259" type="line"/>
      <point x="38.0000152588" y="851.754043579" type="line"/>
      <point x="163.54901123" y="998.995010376" type="line"/>
      <point x="493.028991699" y="647.078994751" type="line"/>
    </contour>
    <contour>
      <point x="1042.63000488" y="420.921005249" type="line"/>
      <point x="692.33001709" y="69.0049285889" type="line"/>
      <point x="587.599975586" y="216.246032715" type="line"/>
      <point x="863.75402832" y="534.000030518" type="line"/>
      <point x="587.599975586" y="851.754058838" type="line"/>
      <point x="692.33001709" y="998.995025635" type="line"/>
      <point x="1042.63000488" y="647.07901001" type="line"/>
    </contour>
  </outline>
</glyph>
<glyph name="onequarter" format="1">
  <advance width="1507"/>
  <unicode hex="00BC"/>
  <outline>
    <contour>
      <point x="1088" y="52" type="line"/>
      <point x="1387" y="52" type="line"/>
      <point x="1387" y="119" type="line"/>
      <point x="1315" y="119" type="line"/>
      <point x="1315" y="298" type="line"/>
      <point x="1449" y="298" type="line"/>
      <point x="1449" y="347" type="line"/>
      <point x="1316" y="346" type="line"/>
      <point x="1316" y="737" type="line"/>
      <point x="1140" y="738" type="line"/>
      <point x="873" y="386" type="line"/>
      <point x="873" y="298" type="line"/>
      <point x="1154" y="298" type="line"/>
      <point x="1154" y="119" type="line"/>
      <point x="1088" y="119" type="line"/>
    </contour>
    <contour>
      <point x="94" y="869" type="line"/>
      <point x="385" y="869" type="line"/>
      <point x="385" y="957" type="line"/>
      <point x="335" y="957" type="line"/>
      <point x="331" y="1558" type="line"/>
      <point x="50" y="1485" type="line"/>
      <point x="50" y="1426" type="line"/>
      <point x="146" y="1427" type="line"/>
      <point x="146" y="957" type="line"/>
      <point x="93" y="957" type="line"/>
    </contour>
    <contour>
      <point x="343" y="51" type="line"/>
      <point x="565" y="51" type="line"/>
      <point x="988" y="1572" type="line"/>
      <point x="757" y="1572" type="line"/>
    </contour>
    <contour>
      <point x="1154" y="347" type="line"/>
      <point x="913" y="349" type="line"/>
      <point x="1154" y="680" type="line"/>
    </contour>
  </outline>
</glyph>
<glyph name="questiondown" format="1">
  <advance width="1084"/>
  <unicode hex="00BF"/>
  <outline>
    <contour>
      <point x="543.159" y="35" type="curve" smooth="yes"/>
      <point x="784.063" y="35"/>
      <point x="1001.9" y="203.377"/>
      <point x="1043.9" y="451" type="curve"/>
      <point x="694.777" y="451" type="line"/>
      <point x="679.99" y="356.154"/>
      <point x="628.945" y="289"/>
      <point x="548.989" y="289" type="curve" smooth="yes"/>
      <point x="454.28" y="289"/>
      <point x="426.554" y="396.799"/>
      <point x="426.554" y="471" type="curve" smooth="yes"/>
      <point x="426.554" y="623.376"/>
      <point x="552.312" y="745.479"/>
      <point x="756.456" y="860.699" type="curve"/>
      <point x="757.091" y="1129.29" type="line"/>
      <point x="553.153" y="1130.71" type="line"/>
      <point x="553.153" y="958.428" type="line"/>
      <point x="524.303" y="946.695" type="line" smooth="yes"/>
      <point x="309.286" y="859.255"/>
      <point x="44" y="746.778"/>
      <point x="44" y="448" type="curve" smooth="yes"/>
      <point x="44" y="185.713"/>
      <point x="293.402" y="35"/>
    </contour>
    <contour>
      <point x="649.769" y="1303" type="curve" smooth="yes"/>
      <point x="763.399" y="1303"/>
      <point x="846" y="1376.43"/>
      <point x="846" y="1497" type="curve" smooth="yes"/>
      <point x="846" y="1620.05"/>
      <point x="762.492" y="1696"/>
      <point x="649.769" y="1696" type="curve" smooth="yes"/>
      <point x="628.375" y="1696" type="line"/>
      <point x="525.4" y="1686.16"/>
      <point x="453.206" y="1611.21"/>
      <point x="453.206" y="1497" type="curve" smooth="yes"/>
      <point x="453.206" y="1375.18"/>
      <point x="529.978" y="1303"/>
    </contour>
  </outline>
</glyph>
<glyph name="Agrave" format="1">
  <advance width="1588"/>
  <unicode hex="00C0"/>
  <outline>
    <contour>
      <point x="593.682617188" y="2231.81054688" type="line"/>
      <point x="991.016601562" y="1865.49023438" type="line"/>
      <point x="940.958007812" y="1797.62011719" type="line"/>
      <point x="475.0" y="2060.87988281" type="line"/>
    </contour>
    <contour>
      <point x="933.0" y="303.0" type="line"/>
      <point x="808.0" y="303.0" type="line"/>
      <point x="808.0" y="51.0" type="line"/>
      <point x="1486.0" y="51.0" type="line"/>
      <point x="1486.0" y="303.0" type="line"/>
      <point x="1371.0" y="303.0" type="line"/>
      <point x="1067.0" y="1542.0" type="line"/>
      <point x="247.0" y="1542.0" type="line"/>
      <point x="247.0" y="1291.0" type="line"/>
      <point x="458.0" y="1291.0" type="line"/>
      <point x="205.0" y="303.0" type="line"/>
      <point x="60.0" y="303.0" type="line"/>
      <point x="60.0" y="51.0" type="line"/>
      <point x="604.0" y="51.0" type="line"/>
      <point x="604.0" y="303.0" type="line"/>
      <point x="467.0" y="303.0" type="line"/>
      <point x="506.0" y="574.0" type="line"/>
      <point x="872.0" y="574.0" type="line"/>
    </contour>
    <contour>
      <point x="851.0" y="712.0" type="line"/>
      <point x="529.0" y="712.0" type="line"/>
      <point x="686.0" y="1474.0" type="line"/>
    </contour>
  </outline>
</glyph>
<glyph name="Aacute" format="1">
  <advance width="1588"/>
  <unicode hex="00C1"/>
  <outline>
    <contour>
      <point x="1034.01757812" y="2060.87988281" type="line"/>
      <point x="568.05859375" y="1797.62011719" type="line"/>
      <point x="518.0" y="1865.49023438" type="line"/>
      <point x="915.333984375" y="2231.81054688" type="line"/>
    </contour>
    <contour>
      <point x="933.0" y="303.0" type="line"/>
      <point x="808.0" y="303.0" type="line"/>
      <point x="808.0" y="51.0" type="line"/>
      <point x="1486.0" y="51.0" type="line"/>
      <point x="1486.0" y="303.0" type="line"/>
      <point x="1371.0" y="303.0" type="line"/>
      <point x="1067.0" y="1542.0" type="line"/>
      <point x="247.0" y="1542.0" type="line"/>
      <point x="247.0" y="1291.0" type="line"/>
      <point x="458.0" y="1291.0" type="line"/>
      <point x="205.0" y="303.0" type="line"/>
      <point x="60.0" y="303.0" type="line"/>
      <point x="60.0" y="51.0" type="line"/>
      <point x="604.0" y="51.0" type="line"/>
      <point x="604.0" y="303.0" type="line"/>
      <point x="467.0" y="303.0" type="line"/>
      <point x="506.0" y="574.0" type="line"/>
      <point x="872.0" y="574.0" type="line"/>
    </contour>
    <contour>
      <point x="851.0" y="712.0" type="line"/>
      <point x="529.0" y="712.0" type="line"/>
      <point x="686.0" y="1474.0" type="line"/>
    </contour>
  </outline>
</glyph>
<glyph name="Atilde" format="1">
  <advance width="1588"/>
  <unicode hex="00C3"/>
  <outline>
    <contour>
      <point x="438.946289062" y="2063.890625" type="curve"/>
      <point x="402.0" y="2039.58007812" type="line"/>
      <point x="466.4375" y="1923.91015625"/>
      <point x="505.6015625" y="1818.0"/>
      <point x="607.64453125" y="1818.0" type="curve" smooth="yes"/>
      <point x="688.375976562" y="1818.0"/>
      <point x="739.7578125" y="1938.0"/>
      <point x="861.64453125" y="1938.0" type="curve" smooth="yes"/>
      <point x="937.39453125" y="1938.0"/>
      <point x="984.004882812" y="1878.20996094"/>
      <point x="1015.25390625" y="1843.95019531" type="curve"/>
      <point x="1051.34570312" y="1867.58007812" type="line"/>
      <point x="987.077148438" y="1984.15039062"/>
      <point x="944.89453125" y="2093.0"/>
      <point x="850.64453125" y="2093.0" type="curve" smooth="yes"/>
      <point x="762.53515625" y="2093.0"/>
      <point x="721.87109375" y="1967.0"/>
      <point x="597.64453125" y="1967.0" type="curve" smooth="yes"/>
      <point x="520.564453125" y="1967.0"/>
      <point x="471.741210938" y="2028.0703125"/>
    </contour>
    <contour>
      <point x="933.0" y="303.0" type="line"/>
      <point x="808.0" y="303.0" type="line"/>
      <point x="808.0" y="51.0" type="line"/>
      <point x="1486.0" y="51.0" type="line"/>
      <point x="1486.0" y="303.0" type="line"/>
      <point x="1371.0" y="303.0" type="line"/>
      <point x="1067.0" y="1542.0" type="line"/>
      <point x="247.0" y="1542.0" type="line"/>
      <point x="247.0" y="1291.0" type="line"/>
      <point x="458.0" y="1291.0" type="line"/>
      <point x="205.0" y="303.0" type="line"/>
      <point x="60.0" y="303.0" type="line"/>
      <point x="60.0" y="51.0" type="line"/>
      <point x="604.0" y="51.0" type="line"/>
      <point x="604.0" y="303.0" type="line"/>
      <point x="467.0" y="303.0" type="line"/>
      <point x="506.0" y="574.0" type="line"/>
      <point x="872.0" y="574.0" type="line"/>
    </contour>
    <contour>
      <point x="851.0" y="712.0" type="line"/>
      <point x="529.0" y="712.0" type="line"/>
      <point x="686.0" y="1474.0" type="line"/>
    </contour>
  </outline>
</glyph>
<glyph name="Aring" format="1">
  <advance width="1588"/>
  <unicode hex="00C5"/>
  <outline>
    <contour>
      <point x="571.0" y="2011.0" type="curve" smooth="yes"/>
      <point x="571" y="1902.08007812"/>
      <point x="637.9296875" y="1829.33007812"/>
      <point x="746.517578125" y="1814.01953125" type="curve"/>
      <point x="652.467773438" y="1831.37011719"/>
      <point x="581.0" y="1903.86035156"/>
      <point x="581.0" y="2009.0" type="curve" smooth="yes"/>
      <point x="581.0" y="2109.04003906"/>
      <point x="646.2890625" y="2177.140625"/>
      <point x="732.681640625" y="2198.140625" type="curve"/>
      <point x="631.703125" y="2180.26953125"/>
      <point x="571.0" y="2113.84960938"/>
    </contour>
    <contour>
      <point x="791.0" y="1810.0" type="curve" smooth="yes"/>
      <point x="775.76171875" y="1810.0"/>
      <point x="760.876953125" y="1811.37011719"/>
      <point x="746.517578125" y="1814.01953125" type="curve"/>
      <point x="760.657226562" y="1812.01953125"/>
      <point x="775.502929688" y="1811.0"/>
      <point x="791.0" y="1811.0" type="curve" smooth="yes"/>
      <point x="806.342773438" y="1811.0"/>
      <point x="821.134765625" y="1811.96972656"/>
      <point x="835.307617188" y="1813.84960938" type="curve"/>
      <point x="820.8828125" y="1811.29980469"/>
      <point x="806.043945312" y="1810.0"/>
    </contour>
    <contour>
      <point x="791.0" y="2205.0" type="curve" smooth="yes"/>
      <point x="810.26171875" y="2205.0"/>
      <point x="829.282226562" y="2202.90039062"/>
      <point x="847.576171875" y="2198.78027344" type="curve"/>
      <point x="829.827148438" y="2201.5703125"/>
      <point x="810.93359375" y="2203.0"/>
      <point x="791.0" y="2203.0" type="curve" smooth="yes"/>
      <point x="770.334960938" y="2203.0"/>
      <point x="750.856445312" y="2201.359375"/>
      <point x="732.681640625" y="2198.140625" type="curve"/>
      <point x="751.2890625" y="2202.66015625"/>
      <point x="770.875976562" y="2205.0"/>
    </contour>
    <contour>
      <point x="1007.0" y="2009.0" type="curve" smooth="yes"/>
      <point x="1007.0" y="1901.12011719"/>
      <point x="930.083007812" y="1830.59960938"/>
      <point x="835.307617188" y="1813.84960938" type="curve"/>
      <point x="947.59375" y="1828.79980469"/>
      <point x="1021.0" y="1901.5703125"/>
      <point x="1021.0" y="2010.0" type="curve" smooth="yes"/>
      <point x="1021.0" y="2114.45996094"/>
      <point x="955.396484375" y="2181.83007812"/>
      <point x="847.576171875" y="2198.78027344" type="curve"/>
      <point x="935.7265625" y="2178.95996094"/>
      <point x="1007.0" y="2112.390625"/>
    </contour>
    <contour>
      <point x="933.0" y="303.0" type="line"/>
      <point x="808.0" y="303.0" type="line"/>
      <point x="808.0" y="51.0" type="line"/>
      <point x="1486.0" y="51.0" type="line"/>
      <point x="1486.0" y="303.0" type="line"/>
      <point x="1371.0" y="303.0" type="line"/>
      <point x="1067.0" y="1542.0" type="line"/>
      <point x="247.0" y="1542.0" type="line"/>
      <point x="247.0" y="1291.0" type="line"/>
      <point x="458.0" y="1291.0" type="line"/>
      <point x="205.0" y="303.0" type="line"/>
      <point x="60.0" y="303.0" type="line"/>
      <point x="60.0" y="51.0" type="line"/>
      <point x="604.0" y="51.0" type="line"/>
      <point x="604.0" y="303.0" type="line"/>
      <point x="467.0" y="303.0" type="line"/>
      <point x="506.0" y="574.0" type="line"/>
      <point x="872.0" y="574.0" type="line"/>
    </contour>
    <contour>
      <point x="851.0" y="712.0" type="line"/>
      <point x="529.0" y="712.0" type="line"/>
      <point x="686.0" y="1474.0" type="line"/>
    </contour>
  </outline>
</glyph>
<glyph name="Ccedilla" format="1">
  <advance width="1367"/>
  <unicode hex="00C7"/>
  <outline>
    <contour>
      <point x="700" y="-51" type="line"/>
      <point x="623" y="-51" type="line"/>
      <point x="623" y="-90.623046875" type="line"/>
      <point x="670.853515625" y="-123.750976562"/>
      <point x="733.0" y="-185.041992188"/>
      <point x="733.0" y="-272.0" type="curve" smooth="yes"/>
      <point x="733.0" y="-383.092773438"/>
      <point x="623.618164062" y="-414.016601562"/>
      <point x="546.0" y="-422.059570312" type="curve"/>
      <point x="546.0" y="-435.263671875" type="line"/>
      <point x="698.409179688" y="-427.891601562"/>
      <point x="833.0" y="-367.639648438"/>
      <point x="833.0" y="-287.0" type="curve" smooth="yes"/>
      <point x="833.0" y="-256.19140625"/>
      <point x="809.31640625" y="-214.061523438"/>
      <point x="725.697265625" y="-166.280273438" type="curve" smooth="yes"/>
      <point x="700.0" y="-151.596679688" type="line"/>
    </contour>
    <contour>
      <point x="867.0" y="342.0" type="curve" smooth="yes"/>
      <point x="624.0" y="342.0"/>
      <point x="533.0" y="603.0"/>
      <point x="533.0" y="846.0" type="curve" smooth="yes"/>
      <point x="533.0" y="1033.0"/>
      <point x="596.0" y="1311.0"/>
      <point x="800.0" y="1311.0" type="curve" smooth="yes"/>
      <point x="959.0" y="1311.0"/>
      <point x="1042.0" y="1172.0"/>
      <point x="1054.0" y="1013.0" type="curve"/>
      <point x="1252.0" y="1013.0" type="line"/>
      <point x="1252.0" y="1543.0" type="line"/>
      <point x="1048.0" y="1543.0" type="line"/>
      <point x="998.0" y="1391.0" type="line"/>
      <point x="947.0" y="1460.0" type="line" smooth="yes"/>
      <point x="890.0" y="1537.0"/>
      <point x="795.0" y="1572.0"/>
      <point x="649.0" y="1572.0" type="curve" smooth="yes"/>
      <point x="267.0" y="1572.0"/>
      <point x="66.0" y="1261.0"/>
      <point x="66.0" y="805.0" type="curve" smooth="yes"/>
      <point x="66.0" y="326.0"/>
      <point x="338.0" y="24.0"/>
      <point x="744.0" y="24.0" type="curve" smooth="yes"/>
      <point x="921.0" y="24.0"/>
      <point x="1075.0" y="81.0"/>
      <point x="1222.0" y="163.0" type="curve"/>
      <point x="1222.0" y="456.0" type="line"/>
      <point x="1125.0" y="390.0"/>
      <point x="996.0" y="342.0"/>
    </contour>
  </outline>
</glyph>
<glyph name="Egrave" format="1">
  <advance width="1275"/>
  <unicode hex="00C8"/>
  <outline>
    <contour>
      <point x="439.682617188" y="2231.81054688" type="line"/>
      <point x="837.016601562" y="1865.49023438" type="line"/>
      <point x="786.958007812" y="1797.62011719" type="line"/>
      <point x="321.0" y="2060.87988281" type="line"/>
    </contour>
    <contour>
      <point x="634.0" y="1291.0" type="line"/>
      <point x="634.0" y="927.0" type="line"/>
      <point x="808.0" y="927.0" type="line"/>
      <point x="808.0" y="767.0" type="line"/>
      <point x="634.0" y="767.0" type="line"/>
      <point x="634.0" y="359.0" type="line"/>
      <point x="897.0" y="359.0" type="line"/>
      <point x="972.0" y="677.0" type="line"/>
      <point x="1154.0" y="677.0" type="line"/>
      <point x="1154.0" y="102.0" type="line"/>
      <point x="79.0" y="102.0" type="line"/>
      <point x="79.0" y="359.0" type="line"/>
      <point x="237.0" y="359.0" type="line"/>
      <point x="237.0" y="1291.0" type="line"/>
      <point x="79.0" y="1291.0" type="line"/>
      <point x="79.0" y="1542.0" type="line"/>
      <point x="1143.0" y="1542.0" type="line"/>
      <point x="1143.0" y="1010.0" type="line"/>
      <point x="965.0" y="1010.0" type="line"/>
      <point x="892.0" y="1291.0" type="line"/>
    </contour>
  </outline>
</glyph>
<glyph name="Eacute" format="1">
  <advance width="1275"/>
  <unicode hex="00C9"/>
  <outline>
    <contour>
      <point x="880.016601562" y="2060.87988281" type="line"/>
      <point x="414.05859375" y="1797.62011719" type="line"/>
      <point x="364.0" y="1865.49023438" type="line"/>
      <point x="761.333984375" y="2231.81054688" type="line"/>
    </contour>
    <contour>
      <point x="634.0" y="1291.0" type="line"/>
      <point x="634.0" y="927.0" type="line"/>
      <point x="808.0" y="927.0" type="line"/>
      <point x="808.0" y="767.0" type="line"/>
      <point x="634.0" y="767.0" type="line"/>
      <point x="634.0" y="359.0" type="line"/>
      <point x="897.0" y="359.0" type="line"/>
      <point x="972.0" y="677.0" type="line"/>
      <point x="1154.0" y="677.0" type="line"/>
      <point x="1154.0" y="102.0" type="line"/>
      <point x="79.0" y="102.0" type="line"/>
      <point x="79.0" y="359.0" type="line"/>
      <point x="237.0" y="359.0" type="line"/>
      <point x="237.0" y="1291.0" type="line"/>
      <point x="79.0" y="1291.0" type="line"/>
      <point x="79.0" y="1542.0" type="line"/>
      <point x="1143.0" y="1542.0" type="line"/>
      <point x="1143.0" y="1010.0" type="line"/>
      <point x="965.0" y="1010.0" type="line"/>
      <point x="892.0" y="1291.0" type="line"/>
    </contour>
  </outline>
</glyph>
<glyph name="Edieresis" format="1">
  <advance width="1275"/>
  <unicode hex="00CB"/>
  <outline>
    <contour>
      <point x="483.543945312" y="1974.0" type="curve" smooth="yes"/>
      <point x="483.543945312" y="1864.33984375"/>
      <point x="430.221679688" y="1794.0"/>
      <point x="332.0" y="1794.0" type="curve" smooth="yes"/>
      <point x="221.935546875" y="1794.0"/>
      <point x="156.0" y="1863.34960938"/>
      <point x="156.0" y="1976.0" type="curve" smooth="yes"/>
      <point x="156.0" y="2084.25976562"/>
      <point x="223.5859375" y="2152.0"/>
      <point x="331.0" y="2152.0" type="curve" smooth="yes"/>
      <point x="432.396484375" y="2152.0"/>
      <point x="483.543945312" y="2085.04003906"/>
    </contour>
    <contour>
      <point x="1019.0" y="1973.0" type="curve" smooth="yes"/>
      <point x="1019.0" y="1863.33984375"/>
      <point x="951.037109375" y="1793.0"/>
      <point x="845.0" y="1793.0" type="curve" smooth="yes"/>
      <point x="743.1875" y="1793.0"/>
      <point x="691.456054688" y="1862.34960938"/>
      <point x="691.456054688" y="1975.0" type="curve" smooth="yes"/>
      <point x="691.456054688" y="2083.25976562"/>
      <point x="744.482421875" y="2151.0"/>
      <point x="844.0" y="2151.0" type="curve" smooth="yes"/>
      <point x="953.807617188" y="2151.0"/>
      <point x="1019.0" y="2084.04003906"/>
    </contour>
    <contour>
      <point x="634.0" y="1291.0" type="line"/>
      <point x="634.0" y="927.0" type="line"/>
      <point x="808.0" y="927.0" type="line"/>
      <point x="808.0" y="767.0" type="line"/>
      <point x="634.0" y="767.0" type="line"/>
      <point x="634.0" y="359.0" type="line"/>
      <point x="897.0" y="359.0" type="line"/>
      <point x="972.0" y="677.0" type="line"/>
      <point x="1154.0" y="677.0" type="line"/>
      <point x="1154.0" y="102.0" type="line"/>
      <point x="79.0" y="102.0" type="line"/>
      <point x="79.0" y="359.0" type="line"/>
      <point x="237.0" y="359.0" type="line"/>
      <point x="237.0" y="1291.0" type="line"/>
      <point x="79.0" y="1291.0" type="line"/>
      <point x="79.0" y="1542.0" type="line"/>
      <point x="1143.0" y="1542.0" type="line"/>
      <point x="1143.0" y="1010.0" type="line"/>
      <point x="965.0" y="1010.0" type="line"/>
      <point x="892.0" y="1291.0" type="line"/>
    </contour>
  </outline>
</glyph>
<glyph name="Icircumflex" format="1">
  <advance width="736"/>
  <unicode hex="00CE"/>
  <outline>
    <contour>
      <point x="461" y="1819" type="line"/>
      <point x="251" y="2070" type="line"/>
      <point x="41" y="1819" type="line"/>
      <point x="-34" y="1868" type="line"/>
      <point x="192" y="2180" type="line"/>
      <point x="309" y="2180" type="line"/>
      <point x="537" y="1868" type="line"/>
    </contour>
    <contour>
      <point x="595" y="359" type="line"/>
      <point x="736" y="359" type="line"/>
      <point x="736" y="102" type="line"/>
      <point x="78" y="102" type="line"/>
      <point x="78" y="359" type="line"/>
      <point x="225" y="359" type="line"/>
      <point x="225" y="1342" type="line"/>
      <point x="82" y="1342" type="line"/>
      <point x="82" y="1593" type="line"/>
      <point x="742" y="1593" type="line"/>
      <point x="742" y="1342" type="line"/>
      <point x="595" y="1342" type="line"/>
    </contour>
  </outline>
</glyph>
<glyph name="Idieresis" format="1">
  <advance width="736"/>
  <unicode hex="00CF"/>
  <outline>
    <contour>
      <point x="159.543945312" y="1974.0" type="curve" smooth="yes"/>
      <point x="159.543945312" y="1864.33984375"/>
      <point x="106.221679688" y="1794.0"/>
      <point x="8.0" y="1794.0" type="curve" smooth="yes"/>
      <point x="-102.064453125" y="1794.0"/>
      <point x="-168.0" y="1863.34960938"/>
      <point x="-168.0" y="1976.0" type="curve" smooth="yes"/>
      <point x="-168.0" y="2084.25976562"/>
      <point x="-100.4140625" y="2152.0"/>
      <point x="7.0" y="2152.0" type="curve" smooth="yes"/>
      <point x="108.396484375" y="2152.0"/>
      <point x="159.543945312" y="2085.04003906"/>
    </contour>
    <contour>
      <point x="695.0" y="1973.0" type="curve" smooth="yes"/>
      <point x="695.0" y="1863.33984375"/>
      <point x="627.037109375" y="1793.0"/>
      <point x="521.0" y="1793.0" type="curve" smooth="yes"/>
      <point x="419.1875" y="1793.0"/>
      <point x="367.456054688" y="1862.34960938"/>
      <point x="367.456054688" y="1975.0" type="curve" smooth="yes"/>
      <point x="367.456054688" y="2083.25976562"/>
      <point x="420.482421875" y="2151.0"/>
      <point x="520.0" y="2151.0" type="curve" smooth="yes"/>
      <point x="629.807617188" y="2151.0"/>
      <point x="695.0" y="2084.04003906"/>
    </contour>
    <contour>
      <point x="595.0" y="359.0" type="line"/>
      <point x="736.0" y="359.0" type="line"/>
      <point x="736.0" y="102.0" type="line"/>
      <point x="78.0" y="102.0" type="line"/>
      <point x="78.0" y="359.0" type="line"/>
      <point x="225.0" y="359.0" type="line"/>
      <point x="225.0" y="1342.0" type="line"/>
      <point x="82.0" y="1342.0" type="line"/>
      <point x="82.0" y="1593.0" type="line"/>
      <point x="742.0" y="1593.0" type="line"/>
      <point x="742.0" y="1342.0" type="line"/>
      <point x="595.0" y="1342.0" type="line"/>
    </contour>
  </outline>
</glyph>
<glyph name="Eth" format="1">
  <advance width="1598"/>
  <unicode hex="00D0"/>
  <outline>
    <contour>
      <point x="87" y="51" type="line"/>
      <point x="789" y="51" type="line" smooth="yes"/>
      <point x="1028" y="51"/>
      <point x="1215" y="150"/>
      <point x="1331" y="282" type="curve" smooth="yes"/>
      <point x="1446" y="412"/>
      <point x="1532" y="585"/>
      <point x="1532" y="816" type="curve" smooth="yes"/>
      <point x="1532" y="1327"/>
      <point x="1280" y="1571"/>
      <point x="811" y="1571" type="curve" smooth="yes"/>
      <point x="83" y="1571" type="line"/>
      <point x="83" y="1321" type="line"/>
      <point x="252" y="1321" type="line"/>
      <point x="250" y="901" type="line"/>
      <point x="120" y="901" type="line"/>
      <point x="120" y="704" type="line"/>
      <point x="250" y="704" type="line"/>
      <point x="250" y="300" type="line"/>
      <point x="87" y="300" type="line"/>
    </contour>
    <contour>
      <point x="651" y="296" type="line"/>
      <point x="665" y="319" type="line"/>
      <point x="662" y="703" type="line"/>
      <point x="739" y="703" type="line"/>
      <point x="739" y="900" type="line"/>
      <point x="662" y="900" type="line"/>
      <point x="662" y="1320" type="line"/>
      <point x="750" y="1320" type="line" smooth="yes"/>
      <point x="1011" y="1320"/>
      <point x="1063" y="1055"/>
      <point x="1063" y="815" type="curve" smooth="yes"/>
      <point x="1063" y="576"/>
      <point x="999" y="296"/>
      <point x="737" y="296" type="curve" smooth="yes"/>
    </contour>
  </outline>
</glyph>
<glyph name="Ocircumflex" format="1">
  <advance width="1526"/>
  <unicode hex="00D4"/>
  <outline>
    <contour>
      <point x="856" y="1819" type="line"/>
      <point x="646" y="2070" type="line"/>
      <point x="436" y="1819" type="line"/>
      <point x="361" y="1868" type="line"/>
      <point x="587" y="2180" type="line"/>
      <point x="704" y="2180" type="line"/>
      <point x="932" y="1868" type="line"/>
    </contour>
    <contour>
      <point x="64" y="798" type="curve" smooth="yes"/>
      <point x="64" y="555"/>
      <point x="158" y="370"/>
      <point x="279" y="242" type="curve" smooth="yes"/>
      <point x="396" y="118"/>
      <point x="562" y="22"/>
      <point x="782" y="22" type="curve" smooth="yes"/>
      <point x="1002" y="22"/>
      <point x="1168" y="118"/>
      <point x="1285" y="242" type="curve" smooth="yes"/>
      <point x="1406" y="370"/>
      <point x="1500" y="555"/>
      <point x="1500" y="798" type="curve" smooth="yes"/>
      <point x="1500" y="1282"/>
      <point x="1220" y="1572"/>
      <point x="782" y="1572" type="curve" smooth="yes"/>
      <point x="346" y="1572"/>
      <point x="64" y="1283"/>
    </contour>
    <contour>
      <point x="782" y="1311" type="curve" smooth="yes"/>
      <point x="1002" y="1311"/>
      <point x="1027" y="983"/>
      <point x="1027" y="806" type="curve" smooth="yes"/>
      <point x="1027" y="632"/>
      <point x="1004" y="267"/>
      <point x="782" y="267" type="curve" smooth="yes"/>
      <point x="560" y="267"/>
      <point x="537" y="630"/>
      <point x="537" y="806" type="curve" smooth="yes"/>
      <point x="537" y="982"/>
      <point x="561" y="1311"/>
    </contour>
  </outline>
</glyph>
<glyph name="multiply" format="1">
  <advance width="708"/>
  <unicode hex="00D7"/>
  <outline>
    <contour>
      <point x="140.781" y="310.156" type="line"/>
      <point x="332.875" y="539.312" type="line"/>
      <point x="524.969" y="310.156" type="line"/>
      <point x="625.844" y="411.031" type="line"/>
      <point x="433.844" y="640.094" type="line"/>
      <point x="637.75" y="880.062" type="line"/>
      <point x="530.51" y="987.303" type="line"/>
      <point x="332.875" y="746.582" type="line"/>
      <point x="135.24" y="987.303" type="line"/>
      <point x="28" y="880.062" type="line"/>
      <point x="231.906" y="640.094" type="line"/>
      <point x="39.9062" y="411.031" type="line"/>
    </contour>
  </outline>
</glyph>
<glyph name="Oslash" format="1">
  <advance width="1566"/>
  <unicode hex="00D8"/>
  <outline>
    <contour>
      <point x="562" y="-168" type="line"/>
      <point x="618" y="-183" type="line"/>
      <point x="651" y="-9" type="line"/>
      <point x="693" y="-15" type="line" smooth="yes"/>
      <point x="721" y="-19"/>
      <point x="751" y="-21"/>
      <point x="781" y="-21" type="curve" smooth="yes"/>
      <point x="1188" y="-21"/>
      <point x="1499" y="327"/>
      <point x="1499" y="808" type="curve" smooth="yes"/>
      <point x="1499" y="1232"/>
      <point x="1289" y="1514"/>
      <point x="1008" y="1609" type="curve" smooth="yes"/>
      <point x="967" y="1623" type="line"/>
      <point x="998" y="1785" type="line"/>
      <point x="950" y="1795" type="line"/>
      <point x="917" y="1641" type="line"/>
      <point x="876" y="1646" type="line" smooth="yes"/>
      <point x="844" y="1651"/>
      <point x="815" y="1653"/>
      <point x="782" y="1653" type="curve" smooth="yes"/>
      <point x="353" y="1653"/>
      <point x="64" y="1323"/>
      <point x="64" y="811" type="curve" smooth="yes"/>
      <point x="64" y="412"/>
      <point x="295" y="120"/>
      <point x="557" y="18" type="curve" smooth="yes"/>
      <point x="598" y="2" type="line"/>
    </contour>
    <contour>
      <point x="783" y="1345" type="line" smooth="yes"/>
      <point x="795" y="1345"/>
      <point x="805" y="1344"/>
      <point x="815" y="1343" type="curve" smooth="yes"/>
      <point x="867" y="1337" type="line"/>
      <point x="647" y="286" type="line"/>
      <point x="590" y="413" type="line" smooth="yes"/>
      <point x="555" y="492"/>
      <point x="546" y="595"/>
      <point x="546" y="695" type="curve" smooth="yes"/>
      <point x="546" y="852" type="line"/>
      <point x="536" y="1031"/>
      <point x="548" y="1308"/>
      <point x="749" y="1338" type="curve"/>
      <point x="752" y="1345" type="line"/>
    </contour>
    <contour>
      <point x="693" y="258" type="line"/>
      <point x="696" y="263"/>
      <point x="701" y="272"/>
      <point x="703" y="276" type="curve"/>
      <point x="919" y="1342" type="line"/>
      <point x="975" y="1198" type="line" smooth="yes"/>
      <point x="1004" y="1123"/>
      <point x="1017" y="1031"/>
      <point x="1017" y="932" type="curve" smooth="yes"/>
      <point x="1017" y="783" type="line" smooth="yes"/>
      <point x="1021" y="594"/>
      <point x="1022" y="258"/>
      <point x="779" y="258" type="curve" smooth="yes"/>
    </contour>
  </outline>
</glyph>
<glyph name="igrave" format="1">
  <advance width="651"/>
  <unicode hex="00EC"/>
  <outline>
    <contour>
      <point x="134.682617188" y="1710.81054688" type="line"/>
      <point x="532.016601562" y="1344.49023438" type="line"/>
      <point x="481.958007812" y="1276.62011719" type="line"/>
      <point x="16.0" y="1539.87988281" type="line"/>
    </contour>
    <contour>
      <point x="643.0" y="51.0" type="line"/>
      <point x="98.0" y="51.0" type="line"/>
      <point x="98.0" y="248.0" type="line"/>
      <point x="180.0" y="248.0" type="line"/>
      <point x="180.0" y="798.0" type="line"/>
      <point x="91.0" y="798.0" type="line"/>
      <point x="91.0" y="962.0" type="line"/>
      <point x="559.0" y="1015.0" type="line"/>
      <point x="559.0" y="248.0" type="line"/>
      <point x="643.0" y="248.0" type="line"/>
    </contour>
  </outline>
</glyph>
<glyph name="idieresis" format="1">
  <advance width="651"/>
  <unicode hex="00EF"/>
  <outline>
    <contour>
      <point x="643" y="51" type="line"/>
      <point x="98" y="51" type="line"/>
      <point x="98" y="248" type="line"/>
      <point x="180" y="248" type="line"/>
      <point x="180" y="798" type="line"/>
      <point x="91" y="798" type="line"/>
      <point x="91" y="962" type="line"/>
      <point x="559" y="1015" type="line"/>
      <point x="559" y="248" type="line"/>
      <point x="643" y="248" type="line"/>
    </contour>
    <contour>
      <point x="178.543945312" y="1453.0" type="curve" smooth="yes"/>
      <point x="178.543945312" y="1343.33984375"/>
      <point x="125.221679688" y="1273.0"/>
      <point x="27.0" y="1273.0" type="curve" smooth="yes"/>
      <point x="-83.064453125" y="1273.0"/>
      <point x="-149.0" y="1342.34960938"/>
      <point x="-149.0" y="1455.0" type="curve" smooth="yes"/>
      <point x="-149.0" y="1563.25976562"/>
      <point x="-81.4140625" y="1631.0"/>
      <point x="26.0" y="1631.0" type="curve" smooth="yes"/>
      <point x="127.396484375" y="1631.0"/>
      <point x="178.543945312" y="1564.04003906"/>
    </contour>
    <contour>
      <point x="714.0" y="1452.0" type="curve" smooth="yes"/>
      <point x="714.0" y="1342.33984375"/>
      <point x="646.037109375" y="1272.0"/>
      <point x="540.0" y="1272.0" type="curve" smooth="yes"/>
      <point x="438.1875" y="1272.0"/>
      <point x="386.456054688" y="1341.34960938"/>
      <point x="386.456054688" y="1454.0" type="curve" smooth="yes"/>
      <point x="386.456054688" y="1562.25976562"/>
      <point x="439.482421875" y="1630.0"/>
      <point x="539.0" y="1630.0" type="curve" smooth="yes"/>
      <point x="648.807617188" y="1630.0"/>
      <point x="714.0" y="1563.04003906"/>
    </contour>
  </outline>
</glyph>
<glyph name="eth" format="1">
  <advance width="1185"/>
  <unicode hex="00F0"/>
  <outline>
    <contour>
      <point x="571" y="83" type="curve" smooth="yes"/>
      <point x="915" y="83"/>
      <point x="1106" y="330"/>
      <point x="1106" y="739" type="curve" smooth="yes"/>
      <point x="1106" y="774" type="line" smooth="yes"/>
      <point x="1106" y="1031"/>
      <point x="1036" y="1248"/>
      <point x="943" y="1385" type="curve" smooth="yes"/>
      <point x="907" y="1438" type="line"/>
      <point x="1075" y="1505" type="line"/>
      <point x="1049" y="1570" type="line"/>
      <point x="855" y="1491" type="line"/>
      <point x="835" y="1511" type="line" smooth="yes"/>
      <point x="740" y="1605"/>
      <point x="616" y="1654"/>
      <point x="457" y="1654" type="curve" smooth="yes"/>
      <point x="392" y="1654"/>
      <point x="325" y="1646"/>
      <point x="242" y="1630" type="curve"/>
      <point x="242" y="1420" type="line"/>
      <point x="263" y="1422"/>
      <point x="289" y="1423"/>
      <point x="315" y="1423" type="curve" smooth="yes"/>
      <point x="366" y="1423"/>
      <point x="412" y="1414"/>
      <point x="454" y="1396" type="curve" smooth="yes"/>
      <point x="556" y="1349" type="line"/>
      <point x="342" y="1248" type="line"/>
      <point x="363" y="1185" type="line"/>
      <point x="572" y="1285" type="line"/>
      <point x="589" y="1243" type="line" smooth="yes"/>
      <point x="605" y="1206"/>
      <point x="619" y="1157"/>
      <point x="633" y="1093" type="curve" smooth="yes"/>
      <point x="647" y="1029" type="line"/>
      <point x="564" y="1029" type="line" smooth="yes"/>
      <point x="272" y="1029"/>
      <point x="62" y="869"/>
      <point x="62" y="590" type="curve" smooth="yes"/>
      <point x="62" y="281"/>
      <point x="294" y="83"/>
    </contour>
    <contour>
      <point x="591" y="285" type="curve" smooth="yes"/>
      <point x="485" y="285"/>
      <point x="454" y="416"/>
      <point x="454" y="566" type="curve" smooth="yes"/>
      <point x="454" y="704"/>
      <point x="487" y="826"/>
      <point x="589" y="826" type="curve" smooth="yes"/>
      <point x="690" y="826"/>
      <point x="715" y="697"/>
      <point x="715" y="558" type="curve" smooth="yes"/>
      <point x="715" y="493"/>
      <point x="716" y="285"/>
    </contour>
  </outline>
</glyph>
<glyph name="divide" format="1">
  <advance width="642"/>
  <unicode hex="00F7"/>
  <outline>
    <contour>
      <point x="321.325" y="33" type="curve"/>
      <point x="330.957" y="33" type="line" smooth="yes"/>
      <point x="400.451" y="33"/>
      <point x="474" y="93.7607"/>
      <point x="474" y="187" type="curve" smooth="yes"/>
      <point x="474" y="279.326"/>
      <point x="403.019" y="336"/>
      <point x="330.957" y="336" type="curve" smooth="yes"/>
      <point x="281.229" y="336"/>
      <point x="215" y="280.182"/>
      <point x="215" y="187" type="curve" smooth="yes"/>
      <point x="215" y="99.3008"/>
      <point x="275.3" y="41.7041"/>
    </contour>
    <contour>
      <point x="321.325" y="936" type="curve"/>
      <point x="330.957" y="936" type="line" smooth="yes"/>
      <point x="400.451" y="936"/>
      <point x="474" y="996.761"/>
      <point x="474" y="1090" type="curve" smooth="yes"/>
      <point x="474" y="1182.33"/>
      <point x="403.019" y="1239"/>
      <point x="330.957" y="1239" type="curve" smooth="yes"/>
      <point x="281.229" y="1239"/>
      <point x="215" y="1183.18"/>
      <point x="215" y="1090" type="curve" smooth="yes"/>
      <point x="215" y="1002.3"/>
      <point x="275.3" y="944.704"/>
    </contour>
    <contour>
      <point x="39" y="589" type="line"/>
      <point x="609" y="589" type="line"/>
      <point x="609" y="710" type="line"/>
      <point x="39" y="710" type="line"/>
    </contour>
  </outline>
</glyph>
<glyph name="oslash" format="1">
  <advance width="1068"/>
  <unicode hex="00F8"/>
  <outline>
    <contour>
      <point x="686.988" y="545" type="curve" smooth="yes"/>
      <point x="686.988" y="656.164"/>
      <point x="676" y="832"/>
      <point x="531.335" y="832" type="curve" smooth="yes"/>
      <point x="406.479" y="832"/>
      <point x="380.599" y="695.19"/>
      <point x="376.595" y="596" type="curve"/>
      <point x="374.017" y="596" type="line"/>
      <point x="374.017" y="545" type="line" smooth="yes"/>
      <point x="374.017" y="377.027"/>
      <point x="415.237" y="243"/>
      <point x="530.503" y="243" type="curve" smooth="yes"/>
      <point x="645.771" y="243"/>
      <point x="686.988" y="377.026"/>
    </contour>
    <contour>
      <point x="1032" y="547" type="curve" smooth="yes"/>
      <point x="1032" y="215.374"/>
      <point x="821.326" y="33"/>
      <point x="533.033" y="33" type="curve" smooth="yes"/>
      <point x="244.821" y="33"/>
      <point x="34" y="215.59"/>
      <point x="34" y="547" type="curve" smooth="yes"/>
      <point x="34" y="597.99" type="line"/>
      <point x="55.3779" y="887.159"/>
      <point x="257.729" y="1040"/>
      <point x="532.168" y="1040" type="curve" smooth="yes"/>
      <point x="823.308" y="1040"/>
      <point x="1032" y="871.157"/>
    </contour>
  </outline>
</glyph>
<glyph name="yacute" format="1">
  <advance width="1271"/>
  <unicode hex="00FD"/>
  <outline>
    <contour>
      <point x="900" y="-164" type="line"/>
      <point x="737" y="-164" type="line"/>
      <point x="1185" y="761" type="line"/>
      <point x="1274" y="761" type="line"/>
      <point x="1274" y="970" type="line"/>
      <point x="842" y="970" type="line"/>
      <point x="842" y="761" type="line"/>
      <point x="966" y="761" type="line"/>
      <point x="762" y="292" type="line"/>
      <point x="540" y="761" type="line"/>
      <point x="656" y="761" type="line"/>
      <point x="656" y="970" type="line"/>
      <point x="58" y="970" type="line"/>
      <point x="58" y="761" type="line"/>
      <point x="163" y="761" type="line"/>
      <point x="617" y="-19" type="line"/>
      <point x="542" y="-164" type="line"/>
      <point x="384" y="-164" type="line"/>
      <point x="384" y="-377" type="line"/>
      <point x="900" y="-377" type="line"/>
    </contour>
    <contour>
      <point x="823.016601562" y="1476.87988281" type="line"/>
      <point x="357.05859375" y="1213.62011719" type="line"/>
      <point x="307.0" y="1281.49023438" type="line"/>
      <point x="704.333984375" y="1647.81054688" type="line"/>
    </contour>
  </outline>
</glyph>
<glyph name="thorn" format="1">
  <advance width="1251"/>
  <unicode hex="00FE"/>
  <outline>
    <contour>
      <point x="805" y="1057" type="curve" smooth="yes"/>
      <point x="696" y="1057"/>
      <point x="647" y="1016"/>
      <point x="587" y="938" type="curve" smooth="yes"/>
      <point x="574" y="922" type="line"/>
      <point x="502" y="922" type="line"/>
      <point x="502" y="1445" type="line"/>
      <point x="72" y="1445" type="line"/>
      <point x="72" y="1241" type="line"/>
      <point x="146" y="1241" type="line"/>
      <point x="146" y="-198" type="line"/>
      <point x="62" y="-198" type="line"/>
      <point x="61" y="-398" type="line"/>
      <point x="588" y="-397" type="line"/>
      <point x="588" y="-198" type="line"/>
      <point x="492" y="-198" type="line"/>
      <point x="492" y="239" type="line"/>
      <point x="570" y="120" type="line" smooth="yes"/>
      <point x="609" y="60"/>
      <point x="703" y="4"/>
      <point x="805" y="4" type="curve" smooth="yes"/>
      <point x="1044" y="4"/>
      <point x="1185" y="234"/>
      <point x="1185" y="534" type="curve" smooth="yes"/>
      <point x="1185" y="830"/>
      <point x="1042" y="1057"/>
    </contour>
    <contour>
      <point x="650" y="787" type="curve" smooth="yes"/>
      <point x="771" y="787"/>
      <point x="835" y="688"/>
      <point x="835" y="542" type="curve" smooth="yes"/>
      <point x="835" y="411"/>
      <point x="794" y="255"/>
      <point x="647" y="255" type="curve" smooth="yes"/>
      <point x="578" y="255"/>
      <point x="500" y="306"/>
      <point x="492" y="396" type="curve" smooth="yes"/>
      <point x="490" y="420" type="line"/>
      <point x="493" y="423" type="line"/>
      <point x="493" y="651" type="line"/>
      <point x="514" y="725"/>
      <point x="563" y="787"/>
    </contour>
  </outline>
</glyph>
<glyph name="ydieresis" format="1">
  <advance width="1271"/>
  <unicode hex="00FF"/>
  <outline>
    <contour>
      <point x="900" y="-164" type="line"/>
      <point x="737" y="-164" type="line"/>
      <point x="1185" y="761" type="line"/>
      <point x="1274" y="761" type="line"/>
      <point x="1274" y="970" type="line"/>
      <point x="842" y="970" type="line"/>
      <point x="842" y="761" type="line"/>
      <point x="966" y="761" type="line"/>
      <point x="762" y="292" type="line"/>
      <point x="540" y="761" type="line"/>
      <point x="656" y="761" type="line"/>
      <point x="656" y="970" type="line"/>
      <point x="58" y="970" type="line"/>
      <point x="58" y="761" type="line"/>
      <point x="163" y="761" type="line"/>
      <point x="617" y="-19" type="line"/>
      <point x="542" y="-164" type="line"/>
      <point x="384" y="-164" type="line"/>
      <point x="384" y="-377" type="line"/>
      <point x="900" y="-377" type="line"/>
    </contour>
    <contour>
      <point x="426.543945312" y="1390.0" type="curve" smooth="yes"/>
      <point x="426.543945312" y="1280.33984375"/>
      <point x="373.221679688" y="1210.0"/>
      <point x="275.0" y="1210.0" type="curve" smooth="yes"/>
      <point x="164.935546875" y="1210.0"/>
      <point x="99.0" y="1279.34960938"/>
      <point x="99.0" y="1392.0" type="curve" smooth="yes"/>
      <point x="99.0" y="1500.25976562"/>
      <point x="166.5859375" y="1568.0"/>
      <point x="274.0" y="1568.0" type="curve" smooth="yes"/>
      <point x="375.396484375" y="1568.0"/>
      <point x="426.543945312" y="1501.04003906"/>
    </contour>
    <contour>
      <point x="962.0" y="1389.0" type="curve" smooth="yes"/>
      <point x="962.0" y="1279.33984375"/>
      <point x="894.037109375" y="1209.0"/>
      <point x="788.0" y="1209.0" type="curve" smooth="yes"/>
      <point x="686.1875" y="1209.0"/>
      <point x="634.456054688" y="1278.34960938"/>
      <point x="634.456054688" y="1391.0" type="curve" smooth="yes"/>
      <point x="634.456054688" y="1499.25976562"/>
      <point x="687.482421875" y="1567.0"/>
      <point x="787.0" y="1567.0" type="curve" smooth="yes"/>
      <point x="896.807617188" y="1567.0"/>
      <point x="962.0" y="1500.04003906"/>
    </contour>
  </outline>
</glyph>
<glyph name="Abreve" format="1">
  <advance width="1588"/>
  <unicode hex="0102"/>
  <outline>
    <contour>
      <point x="889.334960938" y="2091" type="line"/>
      <point x="869.185546875" y="1996.88964844"/>
      <point x="793.975585938" y="1930.0"/>
      <point x="742.485351562" y="1930.0" type="curve" smooth="yes"/>
      <point x="691.662109375" y="1930.0"/>
      <point x="616.505859375" y="1994.8203125"/>
      <point x="595.775390625" y="2090.0" type="curve"/>
      <point x="443.0" y="2090.0" type="line"/>
      <point x="460.953125" y="1914.37988281"/>
      <point x="567.940429688" y="1821.93945312"/>
      <point x="731.30078125" y="1815.3203125" type="curve"/>
      <point x="732.163085938" y="1817.0" type="line"/>
      <point x="742.998046875" y="1817.0" type="line" smooth="yes"/>
      <point x="905.228515625" y="1817.0"/>
      <point x="1022.52636719" y="1910.25"/>
      <point x="1041.92089844" y="2091.0" type="curve"/>
    </contour>
    <contour>
      <point x="933.0" y="303.0" type="line"/>
      <point x="808.0" y="303.0" type="line"/>
      <point x="808.0" y="51.0" type="line"/>
      <point x="1486.0" y="51.0" type="line"/>
      <point x="1486.0" y="303.0" type="line"/>
      <point x="1371.0" y="303.0" type="line"/>
      <point x="1067.0" y="1542.0" type="line"/>
      <point x="247.0" y="1542.0" type="line"/>
      <point x="247.0" y="1291.0" type="line"/>
      <point x="458.0" y="1291.0" type="line"/>
      <point x="205.0" y="303.0" type="line"/>
      <point x="60.0" y="303.0" type="line"/>
      <point x="60.0" y="51.0" type="line"/>
      <point x="604.0" y="51.0" type="line"/>
      <point x="604.0" y="303.0" type="line"/>
      <point x="467.0" y="303.0" type="line"/>
      <point x="506.0" y="574.0" type="line"/>
      <point x="872.0" y="574.0" type="line"/>
    </contour>
    <contour>
      <point x="851.0" y="712.0" type="line"/>
      <point x="529.0" y="712.0" type="line"/>
      <point x="686.0" y="1474.0" type="line"/>
    </contour>
  </outline>
</glyph>
<glyph name="aogonek" format="1">
  <advance width="1141"/>
  <unicode hex="0105"/>
  <outline>
    <contour>
      <point x="781.890625" y="-244.799804688" type="curve" smooth="yes"/>
      <point x="766.747070312" y="-269.317382812"/>
      <point x="765.0" y="-269.005859375"/>
      <point x="765.0" y="-288.0" type="curve" smooth="yes"/>
      <point x="765.0" y="-368.637695312"/>
      <point x="897.10546875" y="-428.84765625"/>
      <point x="1052.0" y="-436.276367188" type="curve"/>
      <point x="1052.0" y="-423.107421875" type="line"/>
      <point x="975.450195312" y="-415.26953125"/>
      <point x="865.0" y="-384.725585938"/>
      <point x="865.0" y="-273.0" type="curve" smooth="yes"/>
      <point x="865.0" y="-189.857421875"/>
      <point x="936.833984375" y="-110.443359375"/>
      <point x="970.243164062" y="-51.0" type="curve"/>
      <point x="906.853515625" y="-51.0" type="line"/>
      <point x="861.934570312" y="-120.596679688"/>
      <point x="821.44921875" y="-180.752929688"/>
    </contour>
    <contour>
      <point x="407.0" y="75.0" type="curve" smooth="yes"/>
      <point x="524.0" y="75.0"/>
      <point x="626.0" y="114.0"/>
      <point x="702.0" y="188.0" type="curve"/>
      <point x="702.0" y="417.0" type="line"/>
      <point x="613.538085938" y="442.548828125"/>
      <point x="521.008789062" y="453.0"/>
      <point x="460.0" y="453.0" type="curve" smooth="yes"/>
      <point x="234.405273438" y="453.0"/>
      <point x="195.0" y="358.552734375"/>
      <point x="195.0" y="260.0" type="curve" smooth="yes"/>
      <point x="195.0" y="179.0"/>
      <point x="248.0" y="75.0"/>
    </contour>
    <contour>
      <point x="737.0" y="0.0" type="line"/>
      <point x="738.166992188" y="0.0"/>
      <point x="709.0" y="125.0"/>
      <point x="709.0" y="125.0" type="curve"/>
      <point x="691.0" y="81.0"/>
      <point x="565.0" y="-18.0"/>
      <point x="389.0" y="-18.0" type="curve" smooth="yes"/>
      <point x="188.0" y="-18.0"/>
      <point x="71.0" y="99.0"/>
      <point x="71.0" y="261.0" type="curve" smooth="yes"/>
      <point x="71.0" y="440.295898438"/>
      <point x="234.58203125" y="533.0"/>
      <point x="417.0" y="533.0" type="curve" smooth="yes"/>
      <point x="500.8828125" y="533.0"/>
      <point x="626.202148438" y="518.700195312"/>
      <point x="702.0" y="478.0" type="curve"/>
      <point x="702.0" y="586.0" type="line" smooth="yes"/>
      <point x="702.0" y="790.51171875"/>
      <point x="671.873046875" y="898.0"/>
      <point x="464.0" y="898.0" type="curve" smooth="yes"/>
      <point x="278.139648438" y="898.0"/>
      <point x="181.869140625" y="844.862304688"/>
      <point x="152.0" y="829.241210938" type="curve"/>
      <point x="144.0" y="832.799804688" type="line"/>
      <point x="144.0" y="926.0" type="line"/>
      <point x="214.0" y="959.8125"/>
      <point x="338.0" y="989.0"/>
      <point x="466.0" y="989.0" type="curve" smooth="yes"/>
      <point x="679.0" y="989.0"/>
      <point x="846.0" y="901.0"/>
      <point x="846.0" y="584.0" type="curve" smooth="yes"/>
      <point x="846.0" y="93.0" type="line"/>
      <point x="1007.0" y="93.0" type="line"/>
      <point x="1007.0" y="0.0" type="line"/>
    </contour>
  </outline>
</glyph>
<glyph name="Cacute" format="1">
  <advance width="1352"/>
  <unicode hex="0106"/>
  <outline>
    <contour>
      <point x="912.016601562" y="2060.87988281" type="line"/>
      <point x="446.05859375" y="1797.62011719" type="line"/>
      <point x="396.0" y="1865.49023438" type="line"/>
      <point x="793.333984375" y="2231.81054688" type="line"/>
    </contour>
    <contour>
      <point x="853.0" y="342.0" type="curve" smooth="yes"/>
      <point x="610.0" y="342.0"/>
      <point x="519.0" y="603.0"/>
      <point x="519.0" y="846.0" type="curve" smooth="yes"/>
      <point x="519.0" y="1033.0"/>
      <point x="582.0" y="1311.0"/>
      <point x="786.0" y="1311.0" type="curve" smooth="yes"/>
      <point x="945.0" y="1311.0"/>
      <point x="1028.0" y="1172.0"/>
      <point x="1040.0" y="1013.0" type="curve"/>
      <point x="1238.0" y="1013.0" type="line"/>
      <point x="1238.0" y="1543.0" type="line"/>
      <point x="1034.0" y="1543.0" type="line"/>
      <point x="984.0" y="1391.0" type="line"/>
      <point x="933.0" y="1460.0" type="line" smooth="yes"/>
      <point x="876.0" y="1537.0"/>
      <point x="781.0" y="1572.0"/>
      <point x="635.0" y="1572.0" type="curve" smooth="yes"/>
      <point x="253.0" y="1572.0"/>
      <point x="52.0" y="1261.0"/>
      <point x="52.0" y="805.0" type="curve" smooth="yes"/>
      <point x="52.0" y="326.0"/>
      <point x="324.0" y="24.0"/>
      <point x="730.0" y="24.0" type="curve" smooth="yes"/>
      <point x="907.0" y="24.0"/>
      <point x="1061.0" y="81.0"/>
      <point x="1208.0" y="163.0" type="curve"/>
      <point x="1208.0" y="456.0" type="line"/>
      <point x="1111.0" y="390.0"/>
      <point x="982.0" y="342.0"/>
    </contour>
  </outline>
</glyph>
<glyph name="cacute" format="1">
  <advance width="962"/>
  <unicode hex="0107"/>
  <outline>
    <contour>
      <point x="573.0" y="77.0" type="curve" smooth="yes"/>
      <point x="360.40625" y="77"/>
      <point x="215.0" y="212.30078125"/>
      <point x="215.0" y="493.0" type="curve" smooth="yes"/>
      <point x="215.0" y="757.0"/>
      <point x="379.0" y="890.0"/>
      <point x="568.0" y="890.0" type="curve" smooth="yes"/>
      <point x="735.0" y="890.0"/>
      <point x="828.0" y="755.0"/>
      <point x="828.0" y="663.0" type="curve"/>
      <point x="933.0" y="663.0" type="line"/>
      <point x="933.0" y="961.0" type="line"/>
      <point x="874.0" y="961.0" type="line"/>
      <point x="850.0" y="816.0" type="line"/>
      <point x="781.0" y="952.0"/>
      <point x="625.0" y="989.0"/>
      <point x="541.0" y="989.0" type="curve" smooth="yes"/>
      <point x="299.0" y="989.0"/>
      <point x="69.0" y="795.0"/>
      <point x="69.0" y="495.0" type="curve" smooth="yes"/>
      <point x="69.0" y="162.0"/>
      <point x="288.0" y="-18.0"/>
      <point x="559.0" y="-18.0" type="curve" smooth="yes"/>
      <point x="755.448242188" y="-18.0"/>
      <point x="876.109375" y="50.8974609375"/>
      <point x="915.0" y="79.0" type="curve"/>
      <point x="915.0" y="177.0" type="line"/>
      <point x="905.0" y="179.0" type="line"/>
      <point x="837.772460938" y="132.190429688"/>
      <point x="740.551757812" y="77.0"/>
    </contour>
    <contour>
      <point x="615.016601562" y="1476.87988281" type="line"/>
      <point x="149.05859375" y="1213.62011719" type="line"/>
      <point x="99.0" y="1281.49023438" type="line"/>
      <point x="496.333984375" y="1647.81054688" type="line"/>
    </contour>
  </outline>
</glyph>
<glyph name="ccircumflex" format="1">
  <advance width="962"/>
  <unicode hex="0109"/>
  <outline>
    <contour>
      <point x="521" y="1235" type="line"/>
      <point x="311" y="1486" type="line"/>
      <point x="101" y="1235" type="line"/>
      <point x="26" y="1284" type="line"/>
      <point x="252" y="1596" type="line"/>
      <point x="369" y="1596" type="line"/>
      <point x="597" y="1284" type="line"/>
    </contour>
    <contour>
      <point x="573.0" y="77.0" type="curve" smooth="yes"/>
      <point x="360.40625" y="77"/>
      <point x="215.0" y="212.30078125"/>
      <point x="215.0" y="493.0" type="curve" smooth="yes"/>
      <point x="215.0" y="757.0"/>
      <point x="379.0" y="890.0"/>
      <point x="568.0" y="890.0" type="curve" smooth="yes"/>
      <point x="735.0" y="890.0"/>
      <point x="828.0" y="755.0"/>
      <point x="828.0" y="663.0" type="curve"/>
      <point x="933.0" y="663.0" type="line"/>
      <point x="933.0" y="961.0" type="line"/>
      <point x="874.0" y="961.0" type="line"/>
      <point x="850.0" y="816.0" type="line"/>
      <point x="781.0" y="952.0"/>
      <point x="625.0" y="989.0"/>
      <point x="541.0" y="989.0" type="curve" smooth="yes"/>
      <point x="299.0" y="989.0"/>
      <point x="69.0" y="795.0"/>
      <point x="69.0" y="495.0" type="curve" smooth="yes"/>
      <point x="69.0" y="162.0"/>
      <point x="288.0" y="-18.0"/>
      <point x="559.0" y="-18.0" type="curve" smooth="yes"/>
      <point x="755.448242188" y="-18.0"/>
      <point x="876.109375" y="50.8974609375"/>
      <point x="915.0" y="79.0" type="curve"/>
      <point x="915.0" y="177.0" type="line"/>
      <point x="905.0" y="179.0" type="line"/>
      <point x="837.772460938" y="132.190429688"/>
      <point x="740.551757812" y="77.0"/>
    </contour>
  </outline>
</glyph>
<glyph name="Ccaron" format="1">
  <advance width="1352"/>
  <unicode hex="010C"/>
  <outline>
    <contour>
      <point x="385" y="2183" type="line"/>
      <point x="595" y="1932" type="line"/>
      <point x="805" y="2183" type="line"/>
      <point x="881" y="2134" type="line"/>
      <point x="653" y="1822" type="line"/>
      <point x="536" y="1822" type="line"/>
      <point x="310" y="2134" type="line"/>
    </contour>
    <contour>
      <point x="853" y="342" type="curve" smooth="yes"/>
      <point x="610" y="342"/>
      <point x="519" y="603"/>
      <point x="519" y="846" type="curve" smooth="yes"/>
      <point x="519" y="1033"/>
      <point x="582" y="1311"/>
      <point x="786" y="1311" type="curve" smooth="yes"/>
      <point x="945" y="1311"/>
      <point x="1028" y="1172"/>
      <point x="1040" y="1013" type="curve"/>
      <point x="1238" y="1013" type="line"/>
      <point x="1238" y="1543" type="line"/>
      <point x="1034" y="1543" type="line"/>
      <point x="984" y="1391" type="line"/>
      <point x="933" y="1460" type="line" smooth="yes"/>
      <point x="876" y="1537"/>
      <point x="781" y="1572"/>
      <point x="635" y="1572" type="curve" smooth="yes"/>
      <point x="253" y="1572"/>
      <point x="52" y="1261"/>
      <point x="52" y="805" type="curve" smooth="yes"/>
      <point x="52" y="326"/>
      <point x="324" y="24"/>
      <point x="730" y="24" type="curve" smooth="yes"/>
      <point x="907" y="24"/>
      <point x="1061" y="81"/>
      <point x="1208" y="163" type="curve"/>
      <point x="1208" y="456" type="line"/>
      <point x="1111" y="390"/>
      <point x="982" y="342"/>
    </contour>
  </outline>
</glyph>
<glyph name="Emacron" format="1">
  <advance width="1257"/>
  <unicode hex="0112"/>
  <outline>
    <contour>
      <point x="947" y="1839" type="line"/>
      <point x="301" y="1839" type="line"/>
      <point x="301" y="2063" type="line"/>
      <point x="947" y="2063" type="line"/>
    </contour>
    <contour>
      <point x="617" y="1291" type="line"/>
      <point x="617" y="927" type="line"/>
      <point x="791" y="927" type="line"/>
      <point x="791" y="767" type="line"/>
      <point x="617" y="767" type="line"/>
      <point x="617" y="359" type="line"/>
      <point x="880" y="359" type="line"/>
      <point x="955" y="677" type="line"/>
      <point x="1137" y="677" type="line"/>
      <point x="1137" y="102" type="line"/>
      <point x="62" y="102" type="line"/>
      <point x="62" y="359" type="line"/>
      <point x="220" y="359" type="line"/>
      <point x="220" y="1291" type="line"/>
      <point x="62" y="1291" type="line"/>
      <point x="62" y="1542" type="line"/>
      <point x="1126" y="1542" type="line"/>
      <point x="1126" y="1010" type="line"/>
      <point x="948" y="1010" type="line"/>
      <point x="875" y="1291" type="line"/>
    </contour>
  </outline>
</glyph>
<glyph name="eogonek" format="1">
  <advance width="1094"/>
  <unicode hex="0119"/>
  <outline>
    <contour>
      <point x="413.890625" y="-244.799804688" type="curve" smooth="yes"/>
      <point x="398.747070312" y="-269.317382812"/>
      <point x="397.0" y="-269.005859375"/>
      <point x="397.0" y="-288.0" type="curve" smooth="yes"/>
      <point x="397.0" y="-368.637695312"/>
      <point x="529.10546875" y="-428.84765625"/>
      <point x="684.0" y="-436.276367188" type="curve"/>
      <point x="684.0" y="-423.107421875" type="line"/>
      <point x="607.450195312" y="-415.26953125"/>
      <point x="497.0" y="-384.725585938"/>
      <point x="497.0" y="-273.0" type="curve" smooth="yes"/>
      <point x="497.0" y="-189.857421875"/>
      <point x="568.833984375" y="-110.443359375"/>
      <point x="602.243164062" y="-51.0" type="curve"/>
      <point x="538.853515625" y="-51.0" type="line"/>
      <point x="493.934570312" y="-120.596679688"/>
      <point x="453.44921875" y="-180.752929688"/>
    </contour>
    <contour>
      <point x="835.0" y="584.0" type="line"/>
      <point x="835.0" y="605.0" type="line" smooth="yes"/>
      <point x="835.0" y="756.0"/>
      <point x="700.0" y="893.0"/>
      <point x="524.0" y="893.0" type="curve" smooth="yes"/>
      <point x="343.0" y="893.0"/>
      <point x="224.0" y="761.0"/>
      <point x="201.0" y="618.0" type="curve"/>
      <point x="201.0" y="616.0"/>
      <point x="199.0" y="586.0"/>
      <point x="199.0" y="584.0" type="curve"/>
    </contour>
    <contour>
      <point x="68.0" y="485.0" type="curve" smooth="yes"/>
      <point x="68.0" y="766.0"/>
      <point x="228.0" y="989.0"/>
      <point x="524.0" y="989.0" type="curve" smooth="yes"/>
      <point x="748.0" y="989.0"/>
      <point x="948.0" y="841.0"/>
      <point x="948.0" y="562.0" type="curve" smooth="yes"/>
      <point x="948.0" y="561.0"/>
      <point x="946.0" y="518.0"/>
      <point x="944.0" y="496.0" type="curve"/>
      <point x="196.0" y="496.0" type="line"/>
      <point x="196.0" y="260.0"/>
      <point x="316.0" y="77.0"/>
      <point x="586.0" y="77.0" type="curve" smooth="yes"/>
      <point x="750.018554688" y="77.0"/>
      <point x="845.190429688" y="132.190429688"/>
      <point x="911.0" y="179.0" type="curve"/>
      <point x="921.0" y="177.0" type="line"/>
      <point x="921.0" y="79.0" type="line"/>
      <point x="882.109375" y="50.8974609375"/>
      <point x="761.448242188" y="-18.0"/>
      <point x="565.0" y="-18.0" type="curve" smooth="yes"/>
      <point x="256.0" y="-18.0"/>
      <point x="68.0" y="211.0"/>
    </contour>
  </outline>
</glyph>
<glyph name="gcedilla" format="1">
  <advance width="1220"/>
  <unicode hex="0123"/>
  <outline>
    <contour>
      <point x="1227" y="970" type="line"/>
      <point x="815" y="970" type="line"/>
      <point x="733" y="770" type="line"/>
      <point x="689" y="842" type="line" smooth="yes"/>
      <point x="640" y="923"/>
      <point x="568" y="989"/>
      <point x="451" y="989" type="curve" smooth="yes"/>
      <point x="206" y="989"/>
      <point x="71" y="780"/>
      <point x="71" y="490" type="curve" smooth="yes"/>
      <point x="71" y="203"/>
      <point x="208" y="0"/>
      <point x="453" y="0" type="curve" smooth="yes"/>
      <point x="562" y="0"/>
      <point x="640" y="45"/>
      <point x="695" y="104" type="curve" smooth="yes"/>
      <point x="770" y="182" type="line"/>
      <point x="770" y="66" type="line" smooth="yes"/>
      <point x="770" y="-120"/>
      <point x="673" y="-224"/>
      <point x="515" y="-224" type="curve" smooth="yes"/>
      <point x="404" y="-224"/>
      <point x="306" y="-190"/>
      <point x="206" y="-159" type="curve"/>
      <point x="206" y="-339" type="line"/>
      <point x="343" y="-373"/>
      <point x="459" y="-390"/>
      <point x="567" y="-390" type="curve" smooth="yes"/>
      <point x="884" y="-390"/>
      <point x="1120" y="-253"/>
      <point x="1120" y="84" type="curve" smooth="yes"/>
      <point x="1120" y="761" type="line"/>
      <point x="1227" y="761" type="line"/>
    </contour>
    <contour>
      <point x="768" y="390" type="line" smooth="yes"/>
      <point x="768" y="282"/>
      <point x="661" y="261"/>
      <point x="613" y="261" type="curve" smooth="yes"/>
      <point x="469" y="261"/>
      <point x="424" y="403"/>
      <point x="424" y="535" type="curve" smooth="yes"/>
      <point x="424" y="706"/>
      <point x="480" y="830"/>
      <point x="609" y="830" type="curve" smooth="yes"/>
      <point x="690" y="830"/>
      <point x="750" y="774"/>
      <point x="768" y="691" type="curve"/>
    </contour>
    <contour>
      <point x="734.887695312" y="1948.76269531" type="line"/>
      <point x="429.361328125" y="1933.93945312"/>
      <point x="301.9140625" y="1796.11035156"/>
      <point x="301.9140625" y="1464.97460938" type="curve" smooth="yes"/>
      <point x="301.9140625" y="1397.89355469"/>
      <point x="307.350585938" y="1324.54492188"/>
      <point x="319.009765625" y="1238.98828125" type="curve"/>
      <point x="733.887695312" y="1238.98828125" type="line"/>
      <point x="733.887695312" y="1502.97167969" type="line"/>
      <point x="544.899414062" y="1502.97167969" type="line"/>
      <point x="544.899414062" y="1591.46679688" type="line" smooth="yes"/>
      <point x="544.899414062" y="1728.078125"/>
      <point x="606.670898438" y="1811.79296875"/>
      <point x="734.887695312" y="1825.45898438" type="curve"/>
    </contour>
    <contour>
      <point x="734.887695312" y="1722.33984375" type="line"/>
      <point x="837.522460938" y="1827.95214844" type="line"/>
      <point x="910.001953125" y="1827.95214844" type="line"/>
      <point x="734.887695312" y="1652.83789062" type="line"/>
    </contour>
  </outline>
</glyph>
<glyph name="hbar" format="1">
  <advance width="1279"/>
  <unicode hex="0127"/>
  <outline>
    <contour>
      <point x="84" y="102" type="line"/>
      <point x="593" y="102" type="line"/>
      <point x="593" y="305" type="line"/>
      <point x="524" y="305" type="line"/>
      <point x="524" y="677" type="line" smooth="yes"/>
      <point x="524" y="774"/>
      <point x="571" y="846"/>
      <point x="655" y="846" type="curve" smooth="yes"/>
      <point x="737" y="846"/>
      <point x="770" y="762"/>
      <point x="771" y="670" type="curve" smooth="yes"/>
      <point x="771" y="102" type="line"/>
      <point x="1214" y="102" type="line"/>
      <point x="1214" y="305" type="line"/>
      <point x="1128" y="305" type="line"/>
      <point x="1128" y="753" type="line" smooth="yes"/>
      <point x="1128" y="974"/>
      <point x="1027" y="1089"/>
      <point x="841" y="1089" type="curve" smooth="yes"/>
      <point x="745" y="1089"/>
      <point x="696" y="1051"/>
      <point x="654" y="1002" type="curve" smooth="yes"/>
      <point x="625" y="969" type="line"/>
      <point x="623" y="966"/>
      <point x="612" y="952"/>
      <point x="597" y="933" type="curve" smooth="yes"/>
      <point x="520" y="834" type="line"/>
      <point x="520" y="1235" type="line"/>
      <point x="671" y="1235" type="line"/>
      <point x="671" y="1272" type="line"/>
      <point x="520" y="1272" type="line"/>
      <point x="520" y="1640" type="line"/>
      <point x="80" y="1640" type="line"/>
      <point x="80" y="1434" type="line"/>
      <point x="164" y="1434" type="line"/>
      <point x="164" y="1272" type="line"/>
      <point x="80" y="1272" type="line"/>
      <point x="80" y="1235" type="line"/>
      <point x="164" y="1235" type="line"/>
      <point x="164" y="305" type="line"/>
      <point x="85" y="305" type="line"/>
    </contour>
  </outline>
</glyph>
<glyph name="Itilde" format="1">
  <advance width="736"/>
  <unicode hex="0128"/>
  <outline>
    <contour>
      <point x="-39.0537109375" y="2063.890625" type="curve"/>
      <point x="-76.0" y="2039.58007812" type="line"/>
      <point x="-11.5615234375" y="1923.91015625"/>
      <point x="27.6015625" y="1818.0"/>
      <point x="129.64453125" y="1818.0" type="curve" smooth="yes"/>
      <point x="210.375976562" y="1818.0"/>
      <point x="261.7578125" y="1938.0"/>
      <point x="383.64453125" y="1938.0" type="curve" smooth="yes"/>
      <point x="459.39453125" y="1938.0"/>
      <point x="506.004882812" y="1878.20996094"/>
      <point x="537.25390625" y="1843.95019531" type="curve"/>
      <point x="573.345703125" y="1867.58007812" type="line"/>
      <point x="509.077148438" y="1984.15039062"/>
      <point x="466.89453125" y="2093.0"/>
      <point x="372.64453125" y="2093.0" type="curve" smooth="yes"/>
      <point x="284.53515625" y="2093.0"/>
      <point x="243.87109375" y="1967.0"/>
      <point x="119.64453125" y="1967.0" type="curve" smooth="yes"/>
      <point x="42.564453125" y="1967.0"/>
      <point x="-6.2587890625" y="2028.0703125"/>
    </contour>
    <contour>
      <point x="595.0" y="359.0" type="line"/>
      <point x="736.0" y="359.0" type="line"/>
      <point x="736.0" y="102.0" type="line"/>
      <point x="78.0" y="102.0" type="line"/>
      <point x="78.0" y="359.0" type="line"/>
      <point x="225.0" y="359.0" type="line"/>
      <point x="225.0" y="1342.0" type="line"/>
      <point x="82.0" y="1342.0" type="line"/>
      <point x="82.0" y="1593.0" type="line"/>
      <point x="742.0" y="1593.0" type="line"/>
      <point x="742.0" y="1342.0" type="line"/>
      <point x="595.0" y="1342.0" type="line"/>
    </contour>
  </outline>
</glyph>
<glyph name="imacron" format="1">
  <advance width="651"/>
  <unicode hex="012B"/>
  <outline>
    <contour>
      <point x="660" y="1318" type="line"/>
      <point x="14" y="1318" type="line"/>
      <point x="14" y="1542" type="line"/>
      <point x="660" y="1542" type="line"/>
    </contour>
    <contour>
      <point x="643" y="51" type="line"/>
      <point x="98" y="51" type="line"/>
      <point x="98" y="248" type="line"/>
      <point x="180" y="248" type="line"/>
      <point x="180" y="798" type="line"/>
      <point x="91" y="798" type="line"/>
      <point x="91" y="962" type="line"/>
      <point x="559" y="1015" type="line"/>
      <point x="559" y="248" type="line"/>
      <point x="643" y="248" type="line"/>
    </contour>
  </outline>
</glyph>
<glyph name="Iogonek" format="1">
  <advance width="736"/>
  <unicode hex="012E"/>
  <outline>
    <contour>
      <point x="190.890625" y="-244.799804688" type="curve" smooth="yes"/>
      <point x="175.747070312" y="-269.317382812"/>
      <point x="174.0" y="-269.005859375"/>
      <point x="174.0" y="-288.0" type="curve" smooth="yes"/>
      <point x="174.0" y="-368.637695312"/>
      <point x="306.10546875" y="-428.84765625"/>
      <point x="461.0" y="-436.276367188" type="curve"/>
      <point x="461.0" y="-423.107421875" type="line"/>
      <point x="384.450195312" y="-415.26953125"/>
      <point x="274.0" y="-384.725585938"/>
      <point x="274.0" y="-273.0" type="curve" smooth="yes"/>
      <point x="274.0" y="-189.857421875"/>
      <point x="345.833984375" y="-110.443359375"/>
      <point x="379.243164062" y="-51.0" type="curve"/>
      <point x="315.853515625" y="-51.0" type="line"/>
      <point x="270.934570312" y="-120.596679688"/>
      <point x="230.44921875" y="-180.752929688"/>
    </contour>
    <contour>
      <point x="595.0" y="359.0" type="line"/>
      <point x="736.0" y="359.0" type="line"/>
      <point x="736.0" y="102.0" type="line"/>
      <point x="78.0" y="102.0" type="line"/>
      <point x="78.0" y="359.0" type="line"/>
      <point x="225.0" y="359.0" type="line"/>
      <point x="225.0" y="1342.0" type="line"/>
      <point x="82.0" y="1342.0" type="line"/>
      <point x="82.0" y="1593.0" type="line"/>
      <point x="742.0" y="1593.0" type="line"/>
      <point x="742.0" y="1342.0" type="line"/>
      <point x="595.0" y="1342.0" type="line"/>
    </contour>
  </outline>
</glyph>
<glyph name="iogonek" format="1">
  <advance width="690"/>
  <unicode hex="012F"/>
  <outline>
    <contour>
      <point x="165.890625" y="-244.799804688" type="curve" smooth="yes"/>
      <point x="150.747070312" y="-269.317382812"/>
      <point x="149.0" y="-269.005859375"/>
      <point x="149.0" y="-288.0" type="curve" smooth="yes"/>
      <point x="149.0" y="-368.637695312"/>
      <point x="281.10546875" y="-428.84765625"/>
      <point x="436.0" y="-436.276367188" type="curve"/>
      <point x="436.0" y="-423.107421875" type="line"/>
      <point x="359.450195312" y="-415.26953125"/>
      <point x="249.0" y="-384.725585938"/>
      <point x="249.0" y="-273.0" type="curve" smooth="yes"/>
      <point x="249.0" y="-189.857421875"/>
      <point x="320.833984375" y="-110.443359375"/>
      <point x="354.243164062" y="-51.0" type="curve"/>
      <point x="290.853515625" y="-51.0" type="line"/>
      <point x="245.934570312" y="-120.596679688"/>
      <point x="205.44921875" y="-180.752929688"/>
    </contour>
    <contour>
      <point x="75.0" y="874.0" type="line"/>
      <point x="75.0" y="966.0" type="line"/>
      <point x="363.0" y="1020.0" type="line"/>
      <point x="363.0" y="92.0" type="line"/>
      <point x="523.0" y="92.0" type="line"/>
      <point x="523.0" y="0.0" type="line"/>
      <point x="75.0" y="0.0" type="line"/>
      <point x="75.0" y="92.0" type="line"/>
      <point x="235.0" y="92.0" type="line"/>
      <point x="235.0" y="874.0" type="line"/>
    </contour>
    <contour>
      <point x="249.0" y="1182.0" type="curve" smooth="yes"/>
      <point x="182.0" y="1182.0"/>
      <point x="139.0" y="1218.0"/>
      <point x="139.0" y="1285.0" type="curve" smooth="yes"/>
      <point x="139.0" y="1351.0"/>
      <point x="180.0" y="1390.0"/>
      <point x="249.0" y="1390.0" type="curve" smooth="yes"/>
      <point x="319.0" y="1390.0"/>
      <point x="363.0" y="1351.0"/>
      <point x="363.0" y="1285.0" type="curve" smooth="yes"/>
      <point x="363.0" y="1218.0"/>
      <point x="318.0" y="1182.0"/>
    </contour>
  </outline>
</glyph>
<glyph name="dotlessi" format="1">
  <advance width="700"/>
  <unicode hex="0131"/>
  <outline>
    <contour>
      <point x="86" y="51" type="line"/>
      <point x="631" y="51" type="line"/>
      <point x="631" y="248" type="line"/>
      <point x="547" y="248" type="line"/>
      <point x="547" y="1015" type="line"/>
      <point x="79" y="962" type="line"/>
      <point x="79" y="798" type="line"/>
      <point x="168" y="798" type="line"/>
      <point x="168" y="248" type="line"/>
      <point x="86" y="248" type="line"/>
    </contour>
  </outline>
</glyph>
